<?xml version="1.0" standalone="no"?>
<!DOCTYPE svg PUBLIC "-//W3C//DTD SVG 1.1//EN" "http://www.w3.org/Graphics/SVG/1.1/DTD/svg11.dtd" >
<svg xmlns="http://www.w3.org/2000/svg" xmlns:xlink="http://www.w3.org/1999/xlink" version="1.1">
<metadata>
Created by FontForge 20201107 at Sat Dec  5 09:28:27 2020
 By 
Copyright (c) 2020 by Sarid Ezra. All rights reserved.
</metadata>
<defs>
<font id="Ezra-SemiBoldItalic" horiz-adv-x="705" >
  <font-face 
    font-family="Ezra SemBd"
    font-weight="600"
    font-style="italic"
    font-stretch="normal"
    units-per-em="1000"
    panose-1="0 0 0 0 0 0 0 0 0 0"
    ascent="750"
    descent="-250"
    x-height="540"
    cap-height="700"
    bbox="-122 -251 1338 899"
    underline-thickness="50"
    underline-position="-125"
    unicode-range="U+000D-FB01"
  />
<missing-glyph horiz-adv-x="500" 
 />
    <glyph glyph-name="fi" unicode="fi" horiz-adv-x="674" 
d="M465 0l101 436h-225l-101 -436h-141l101 436h-88l20 87l100 15q-17 30 -17 64q0 14 3 29q8 33 35 59.5t65.5 45t85 28t94.5 9.5q40 0 79 -7.5t71 -23.5t55.5 -40t34.5 -58l-120 -59q-10 21 -26 36t-35 24t-40.5 13.5t-43.5 4.5q-24 0 -46.5 -5t-40.5 -13.5t-30.5 -21
t-15.5 -27.5q-4 -16 2 -32t22 -24h365l-125 -540h-139z" />
    <glyph glyph-name=".notdef" horiz-adv-x="500" 
 />
    <glyph glyph-name="uni0000" horiz-adv-x="0" 
 />
    <glyph glyph-name="uni0000" horiz-adv-x="0" 
 />
    <glyph glyph-name="uni000D" unicode="&#xd;" horiz-adv-x="250" 
 />
    <glyph glyph-name="space" unicode=" " horiz-adv-x="276" 
 />
    <glyph glyph-name="exclam" unicode="!" horiz-adv-x="212" 
d="M196 700h143l-141 -494h-89zM44 66q8 31 34 52t57 21t47 -21t9 -52q-8 -31 -33.5 -52.5t-56.5 -21.5t-47.5 21.5t-9.5 52.5z" />
    <glyph glyph-name="quotedbl" unicode="&#x22;" horiz-adv-x="388" 
d="M232 708h115l-135 -229h-76zM407 708h115l-135 -229h-77z" />
    <glyph glyph-name="numbersign" unicode="#" horiz-adv-x="824" 
d="M468 185h-168l-135 -185h-109l136 185h-120l22 93h165l95 129h-175l21 92h221l147 201h108l-147 -201h168l147 201h109l-148 -201h96l-21 -92h-142l-94 -129h148l-21 -93h-195l-135 -185h-108zM536 278l94 129h-168l-94 -129h168z" />
    <glyph glyph-name="dollar" unicode="$" horiz-adv-x="750" 
d="M599 750l-16 -70q79 -7 147.5 -31.5t108.5 -62.5l-92 -105q-27 31 -79.5 51t-112.5 27l-39 -171q43 -8 85.5 -18.5t77 -28t56 -45t21.5 -69.5q0 -17 -5 -42q-12 -50 -43.5 -86.5t-76 -61t-98.5 -37.5t-111 -16l-10 -46h-75l10 46q-44 3 -85.5 11t-78 21t-66 30.5
t-48.5 38.5l95 107q13 -17 35.5 -31t50.5 -25t60 -18.5t65 -11.5l41 175q-42 8 -83 19t-73.5 29t-52.5 44.5t-20 67.5q0 9 1.5 19t3.5 21q12 51 42.5 88.5t73 61.5t94.5 36.5t106 14.5l16 68h75zM480 561q-55 -3 -96.5 -23t-50.5 -60q-4 -17 3 -29t22 -21t37 -15.5t48 -11.5
zM450 104q30 1 56.5 6.5t47.5 15t35 24t19 33.5q4 18 -3.5 31.5t-24 23t-40.5 16.5t-52 13z" />
    <glyph glyph-name="percent" unicode="%" horiz-adv-x="841" 
d="M318 429q-34 0 -58.5 9t-40 24.5t-23 36t-7.5 43.5q0 31 13.5 63.5t39 58.5t62 43t82.5 17q34 0 59 -9t41 -25t23.5 -36.5t7.5 -43.5q0 -31 -13.5 -63t-39.5 -58.5t-63 -43t-83 -16.5zM942 700l-769 -700h-119l769 700h119zM369 650q-23 0 -40.5 -8.5t-30 -21.5t-19 -29
t-6.5 -32q0 -23 15 -39.5t47 -16.5q23 0 41.5 8.5t31 21.5t19.5 29.5t7 31.5q0 23 -15.5 39.5t-49.5 16.5zM627 0q-33 0 -57.5 9t-40.5 24.5t-23.5 36t-7.5 43.5q0 31 13.5 63.5t39 58.5t62 43t83.5 17q67 0 98.5 -33.5t31.5 -79.5q0 -31 -13.5 -63.5t-39.5 -58.5t-63 -43
t-83 -17zM679 225q-24 0 -42.5 -9t-31.5 -22.5t-20 -30.5t-7 -33q0 -24 16 -41.5t50 -17.5q24 0 43 9t32.5 22.5t20.5 30.5t7 33q0 24 -16.5 41.5t-51.5 17.5z" />
    <glyph glyph-name="ampersand" unicode="&#x26;" horiz-adv-x="828" 
d="M662 -19q-7 7 -17 18q-8 9 -19 21.5t-24 28.5q-66 -45 -137.5 -65.5t-139.5 -20.5q-52 0 -98 12t-80.5 36t-54.5 59t-20 81q0 24 6 51q11 48 39 84t66 64t83.5 49t91.5 39q-8 26 -13 51t-5 48q0 21 5 44q8 35 30 61.5t53 44.5t67 27t71 9q30 0 57.5 -7t48.5 -20.5
t33.5 -34.5t12.5 -48q0 -15 -4 -30q-8 -35 -27 -62t-45.5 -48.5t-58.5 -39.5t-67 -33q23 -42 51.5 -86t60.5 -86q20 29 34.5 64t22.5 77l122 3q-13 -72 -41 -130.5t-67 -105.5q24 -30 45.5 -55t37.5 -43q18 -21 34 -38zM478 485q48 20 80 42.5t39 53.5q7 29 -9.5 43.5
t-40.5 14.5q-25 0 -48.5 -15.5t-30.5 -46.5q-9 -37 10 -92zM394 351q-32 -13 -61.5 -27t-52.5 -31t-39 -37t-22 -45q-7 -30 1.5 -53t28 -38.5t48 -24t62.5 -8.5q42 0 86 12t86 38q-36 48 -72 102.5t-65 111.5z" />
    <glyph glyph-name="quotesingle" unicode="'" horiz-adv-x="199" 
d="M343 708l-131 -229h-76l92 229h115z" />
    <glyph glyph-name="parenleft" unicode="(" horiz-adv-x="283" 
d="M169 -40q-41 38 -60 98t-19 132q0 71 17.5 148t50.5 148t80 131t106 98l67 -36q-48 -35 -87 -92.5t-66.5 -125t-43 -140t-15.5 -138.5q0 -59 13 -107.5t41 -79.5l-84 -36v0z" />
    <glyph glyph-name="parenright" unicode=")" horiz-adv-x="283" 
d="M28 -4q48 35 87 92t66.5 124.5t43 140t15.5 138.5q0 59 -13 107.5t-41 80.5l84 36q42 -38 61 -98.5t19 -132.5q0 -71 -18 -147.5t-51 -147.5t-80 -131t-105 -98z" />
    <glyph glyph-name="asterisk" unicode="*" horiz-adv-x="325" 
d="M432 591l-87 -12l42 -61l-74 -48l-25 78l-59 -75l-52 46l68 59l-80 10l40 77l71 -35l7 70h78l-23 -69l87 35z" />
    <glyph glyph-name="plus" unicode="+" horiz-adv-x="481" 
d="M122 399h158l33 143h105l-33 -143h158l-22 -97h-158l-36 -155h-105l35 155h-158z" />
    <glyph glyph-name="comma" unicode="," horiz-adv-x="275" 
d="M128 121h140l-207 -239h-93z" />
    <glyph glyph-name="hyphen" unicode="-" horiz-adv-x="545" 
d="M122 399h485l-22 -97h-486z" />
    <glyph glyph-name="period" unicode="." horiz-adv-x="223" 
d="M54 66q7 31 33 52t57 21t47 -21t9 -52q-8 -31 -33.5 -52.5t-56.5 -21.5t-47.5 21.5t-8.5 52.5z" />
    <glyph glyph-name="slash" unicode="/" horiz-adv-x="613" 
d="M745 700l-611 -700h-105l611 700h105z" />
    <glyph glyph-name="zero" unicode="0" horiz-adv-x="766" 
d="M122 350q21 92 66.5 161.5t104.5 116t125.5 69.5t131.5 23q54 0 103 -16.5t86 -49.5t58.5 -83t21.5 -116q0 -50 -13 -105q-21 -93 -66.5 -162t-104 -115.5t-125.5 -69.5t-131 -23q-54 0 -103 16.5t-86 50t-59 83.5t-22 116q0 49 13 104zM253 350q-5 -18 -6.5 -35
t-1.5 -32q0 -42 13.5 -73t36 -51.5t52.5 -31t64 -10.5q39 0 80.5 14.5t78 44t64.5 73t42 101.5q5 18 6.5 35t1.5 32q0 42 -13.5 73t-36 52t-52.5 31.5t-63 10.5q-40 0 -81.5 -14.5t-78 -44t-65 -73.5t-41.5 -102z" />
    <glyph glyph-name="one" unicode="1" horiz-adv-x="396" 
d="M488 711l-164 -711h-144l121 524l-115 -80l-45 76l264 191h83z" />
    <glyph glyph-name="two" unicode="2" horiz-adv-x="589" 
d="M529 511q9 41 -21 62.5t-79 21.5q-50 0 -108 -24.5t-103 -77.5l-33 117q26 28 58 49t67 35t72 21t73 7q43 0 82 -10t69 -30t47.5 -49.5t17.5 -68.5q0 -10 -1 -21t-4 -22q-12 -51 -41 -90t-68.5 -70.5t-86 -59l-93 -55t-90 -57.5t-76.5 -68h374l-28 -121h-526
q20 85 62 145t94.5 104t109 75.5t105 60t83.5 58t44 68.5z" />
    <glyph glyph-name="three" unicode="3" horiz-adv-x="659" 
d="M306 338l23 93q61 -1 104.5 9.5t72 27t42 36.5t13.5 40q0 26 -23 45t-66 19q-54 0 -108.5 -22.5t-102.5 -70.5l-48 80q63 65 136.5 93.5t139.5 28.5q55 0 96 -12.5t68.5 -33.5t41 -48.5t13.5 -57.5q0 -48 -33.5 -96t-101.5 -82q49 -27 72 -65t23 -80q0 -46 -25.5 -92.5
t-73 -83.5t-115 -60.5t-151.5 -23.5q-39 0 -76.5 8.5t-69.5 26.5t-56.5 45.5t-39.5 65.5l86 99q15 -32 35.5 -53.5t46 -35t54.5 -19.5t60 -6q40 0 73.5 11t57.5 28t37.5 39t13.5 44q0 20 -11.5 38.5t-36.5 33t-64 23t-94 8.5h-13z" />
    <glyph glyph-name="four" unicode="4" horiz-adv-x="664" 
d="M588 152l-35 -152l-144 -1l36 153h-389l28 121l540 429l90 -2l-98 -427h89l-28 -121h-89zM473 273l53 230l-290 -230h237z" />
    <glyph glyph-name="five" unicode="5" horiz-adv-x="670" 
d="M140 316l137 384h458l-28 -121h-341l-50 -137q33 8 64.5 11t62.5 3q63 0 109 -15t75.5 -40t44 -58t14.5 -70q0 -51 -26 -103t-74.5 -95t-118.5 -70t-158 -27q-41 0 -79 9t-69.5 28t-54.5 48.5t-34 70.5l121 58q4 -22 17 -38t32 -26.5t42.5 -15.5t48.5 -5q49 0 88.5 13.5
t67 35t42 47.5t14.5 52q0 38 -34.5 66t-109.5 28q-38 0 -83.5 -10t-89.5 -32z" />
    <glyph glyph-name="six" unicode="6" horiz-adv-x="716" 
d="M367 -15q-68 0 -116.5 20.5t-80 56t-46.5 83t-15 100.5q0 52 14 107t40 107t63.5 98.5t85 81t104.5 54.5t122 20q60 0 104.5 -13.5t75 -31.5t47 -35.5t20.5 -25.5l-87 -83q-3 5 -15.5 17.5t-36 25t-57.5 22t-79 9.5q-44 0 -82.5 -16.5t-71 -44t-57 -64t-39.5 -75.5
q39 30 96 50t138 20q62 0 107 -15t74.5 -40t43.5 -58.5t14 -70.5q0 -51 -25.5 -104t-72.5 -96.5t-115 -71t-153 -27.5zM468 354q-54 0 -94.5 -12t-68 -31.5t-41 -43.5t-13.5 -48q0 -39 36 -68.5t111 -29.5q46 0 83.5 13t63 34t39.5 46.5t14 50.5q0 36 -31 62.5t-99 26.5z
" />
    <glyph glyph-name="seven" unicode="7" horiz-adv-x="637" 
d="M558 579h-403l28 121h594l-6 -27l-517 -673h-159z" />
    <glyph glyph-name="eight" unicode="8" horiz-adv-x="709" 
d="M215 535q9 40 36 73.5t67 57.5t91.5 37t111.5 13q105 0 165 -40t60 -106q0 -19 -4 -35q-11 -50 -47 -87.5t-91 -60.5q61 -21 94 -59t33 -90q0 -16 -5 -39q-11 -48 -43.5 -87.5t-81.5 -67.5t-112.5 -43.5t-136.5 -15.5q-65 0 -117 12.5t-88 35t-55.5 55t-19.5 71.5
q0 17 5 40q15 67 70 115t138 73q-74 39 -74 113q0 19 4 35zM457 440q38 0 68 9t50.5 23t31.5 31.5t11 34.5q0 28 -29.5 49.5t-92.5 21.5q-39 0 -69 -8.5t-51 -22.5t-31.5 -31.5t-10.5 -34.5q0 -29 30 -50.5t93 -21.5zM380 107q49 0 88 11t65 29t40 40.5t14 45.5q0 36 -38 64
t-119 28q-50 0 -88.5 -11t-65 -29t-40.5 -40.5t-14 -44.5q0 -37 38.5 -65t119.5 -28z" />
    <glyph glyph-name="nine" unicode="9" horiz-adv-x="715" 
d="M509 713q67 0 116 -20.5t80 -56t46 -83t15 -100.5q0 -52 -13.5 -107t-39.5 -107t-63.5 -98.5t-85 -81t-104.5 -54.5t-122 -20q-60 0 -104.5 13.5t-75 31.5t-47.5 35.5t-21 25.5l87 83q3 -5 16 -17.5t36.5 -25t57 -22t78.5 -9.5q44 0 83 16.5t71 44t56.5 63.5t39.5 75
q-39 -29 -95.5 -49t-137.5 -20q-62 0 -107.5 15t-74.5 40.5t-43 59t-14 70.5q0 51 25 104t72.5 96t115 70.5t153.5 27.5zM408 344q54 0 94.5 12t68 31.5t41 43t13.5 47.5q0 39 -36.5 69t-110.5 30q-47 0 -84 -13t-62.5 -34t-39.5 -46.5t-14 -50.5q0 -36 31 -62.5t99 -26.5z
" />
    <glyph glyph-name="colon" unicode=":" horiz-adv-x="200" 
d="M138 473q8 31 34 52t57 21t47 -21t9 -52q-8 -32 -33.5 -53t-56.5 -21t-47.5 21t-9.5 53zM49 66q8 31 34 52t56 21q32 0 48 -21t8 -52q-7 -31 -32.5 -52.5t-56.5 -21.5t-47.5 21.5t-9.5 52.5z" />
    <glyph glyph-name="semicolon" unicode=";" horiz-adv-x="292" 
d="M192 445q8 32 34 52.5t57 20.5t47 -20.5t8 -52.5q-7 -31 -32.5 -52.5t-56.5 -21.5t-47.5 21.5t-9.5 52.5zM150 121h140l-187 -208h-93z" />
    <glyph glyph-name="less" unicode="&#x3c;" horiz-adv-x="329" 
d="M325 110l-225 196l18 77l315 195l-27 -115l-200 -119l145 -119z" />
    <glyph glyph-name="equal" unicode="=" horiz-adv-x="454" 
d="M138 468h394l-22 -97h-395zM99 301h395l-23 -97h-395z" />
    <glyph glyph-name="greater" unicode="&#x3e;" horiz-adv-x="329" 
d="M370 306l-315 -196l26 115l201 119l-146 119l27 115l225 -196z" />
    <glyph glyph-name="question" unicode="?" horiz-adv-x="563" 
d="M517 517q10 43 -14 64t-65 21q-24 0 -52 -7t-56 -20t-55.5 -33t-49.5 -45l-58 91q28 30 63.5 53.5t75 39t80 23.5t79.5 8q40 0 75 -8.5t61 -26.5t41.5 -45.5t15.5 -64.5q0 -22 -6 -46q-12 -52 -38.5 -85t-60 -55.5t-70.5 -38.5t-70 -34.5t-58 -44t-34 -66.5h-81
q13 58 36 95t51.5 61.5t58.5 41t56.5 32.5t46.5 36.5t28 53.5zM182 65q7 32 33 53t57 21t47.5 -21t8.5 -53q-8 -31 -33 -52t-57 -21q-31 0 -47.5 21t-8.5 52z" />
    <glyph glyph-name="at" unicode="@" horiz-adv-x="723" 
d="M591 482l-26 -113q-5 -22 -9.5 -46t-4.5 -47q0 -26 9.5 -44t37.5 -18q23 0 43.5 14.5t35.5 38.5t23.5 54.5t8.5 62.5q0 34 -11 67.5t-36 60t-65.5 42.5t-98.5 16q-78 0 -141 -30.5t-106.5 -78.5t-67 -106.5t-23.5 -114.5q0 -40 12.5 -76.5t39 -64t67 -43.5t96.5 -16
q53 0 104.5 20t93.5 58l29 -53q-57 -43 -117.5 -65.5t-123.5 -22.5q-71 0 -122 20t-84 54t-49 79t-16 95q0 69 29 141.5t84 131.5t133 96.5t176 37.5q71 0 121.5 -20t82.5 -53t46.5 -75.5t14.5 -86.5q0 -45 -14 -87.5t-39 -76.5t-60.5 -54.5t-78.5 -20.5q-42 0 -64.5 14
t-32.5 37q-23 -29 -53.5 -48.5t-72.5 -19.5q-47 0 -68 31.5t-21 76.5q0 39 13.5 81.5t38 78.5t58 59.5t73.5 23.5q38 0 65 -21l3 11h67zM496 362q2 32 -13 50t-41 18q-21 0 -39 -17t-31.5 -42.5t-21 -55.5t-7.5 -55t8 -41t26 -16q22 0 40 15t33 38.5t26.5 51.5t19.5 54z" />
    <glyph glyph-name="A" unicode="A" horiz-adv-x="823" 
d="M505 710h142l165 -710h-150l-26 108h-399l-76 -108h-149zM608 229l-73 306l-214 -306h287z" />
    <glyph glyph-name="B" unicode="B" horiz-adv-x="744" 
d="M71 0l162 700h360q44 0 76 -12t52.5 -32.5t30.5 -48t10 -57.5q0 -24 -6 -48q-8 -34 -25.5 -66t-44.5 -58q32 -23 47.5 -57t15.5 -72q0 -25 -6 -50q-9 -38 -30 -73.5t-53.5 -63.5t-75 -45t-93.5 -17h-420zM502 412q47 0 76 27.5t37 60.5q4 17 1.5 33t-11 28.5t-24.5 20
t-39 7.5h-193l-41 -177h194zM493 118q23 0 42.5 8t34 21t24.5 29.5t14 34.5q4 17 2 33.5t-11 29.5t-24.5 21t-39.5 8h-252l-43 -185h253z" />
    <glyph glyph-name="C" unicode="C" horiz-adv-x="770" 
d="M122 350q21 92 71.5 161.5t115 116t136 70t136.5 23.5q98 0 171 -40t109 -112l-123 -95q-12 24 -31 44t-43.5 35t-52.5 23.5t-56 8.5q-59 0 -107.5 -20t-85.5 -53t-61.5 -75.5t-34.5 -86.5q-7 -28 -7 -59q0 -36 11 -68t34 -56t58 -38t84 -14q35 0 67.5 9t62.5 25t56.5 37
t48.5 44l80 -96q-72 -72 -164.5 -113.5t-187.5 -41.5q-56 0 -109.5 17.5t-95.5 52.5t-67.5 87.5t-25.5 121.5q0 21 2.5 44t8.5 48z" />
    <glyph glyph-name="D" unicode="D" horiz-adv-x="829" 
d="M610 700q70 -1 121 -22t84 -57t48.5 -83.5t15.5 -99.5q0 -45 -10 -88q-15 -65 -51 -127.5t-90 -111.5t-124.5 -79.5t-155.5 -31.5h-377l162 700h377zM346 579l-105 -457h229q49 0 91 19.5t74 51.5t54 73t32 84q8 35 8 66q0 33 -9 63t-28 52t-47.5 35t-68.5 13h-230z" />
    <glyph glyph-name="E" unicode="E" horiz-adv-x="700" 
d="M233 700h592l-28 -121h-451l-38 -168h386l-28 -121h-386l-39 -169h457l-28 -121h-599z" />
    <glyph glyph-name="F" unicode="F" horiz-adv-x="674" 
d="M233 700h591l-28 -121h-450l-47 -204h386l-28 -121h-386l-58 -254h-142z" />
    <glyph glyph-name="G" unicode="G" horiz-adv-x="788" 
d="M726 0h-64l-16 63q-53 -40 -113.5 -62t-123.5 -22q-56 0 -109.5 17.5t-95.5 52.5t-67.5 87.5t-25.5 121.5q0 21 2.5 44t8.5 48q21 92 71.5 161.5t115 116t136 70t136.5 23.5q98 0 171 -39.5t109 -112.5l-124 -95q-12 24 -31 44.5t-43 35t-52 23t-56 8.5q-59 0 -107.5 -20
t-85.5 -53t-61.5 -75.5t-34.5 -86.5q-7 -28 -7 -58q0 -36 11 -68t34 -56t58 -38t84 -14q43 0 78.5 14t62 37t43.5 54t25 64l1 5h-162l22 92h298z" />
    <glyph glyph-name="H" unicode="H" horiz-adv-x="821" 
d="M233 700h141l-66 -289h395l67 289h141l-161 -700h-141l66 290h-395l-67 -290h-142z" />
    <glyph glyph-name="I" unicode="I" horiz-adv-x="285" 
d="M233 700h141l-161 -700h-142z" />
    <glyph glyph-name="J" unicode="J" horiz-adv-x="550" 
d="M499 700h141l-107 -466q-16 -70 -51 -118.5t-80.5 -79t-97 -44.5t-99.5 -14q-59 0 -106 18t-68 48l70 130q22 -26 55.5 -41t71.5 -15q27 0 53.5 8.5t49.5 26.5t41 46t27 68z" />
    <glyph glyph-name="K" unicode="K" horiz-adv-x="778" 
d="M372 289l-114 -93l-45 -196h-142l162 700h141l-73 -317l394 317h182l-391 -318l280 -382h-186z" />
    <glyph glyph-name="L" unicode="L" horiz-adv-x="668" 
d="M233 700h141l-133 -579h444l-28 -121h-586z" />
    <glyph glyph-name="M" unicode="M" horiz-adv-x="972" 
d="M233 700h141l158 -499l388 499h142l-162 -700h-141l103 447l-349 -447h-54l-143 447l-103 -447h-142z" />
    <glyph glyph-name="N" unicode="N" horiz-adv-x="859" 
d="M233 700h141l316 -512l118 512h141l-161 -700h-141l-316 512l-118 -512h-142z" />
    <glyph glyph-name="O" unicode="O" horiz-adv-x="858" 
d="M895 350q-21 -93 -72.5 -163t-117.5 -116t-140 -69t-141 -23q-58 0 -113.5 17.5t-99.5 52.5t-71 87.5t-27 123.5q0 40 11 90q22 93 73.5 163t117.5 116t140 69t140 23q58 0 114 -17.5t99.5 -52t70.5 -87.5t27 -123q0 -21 -2.5 -44t-8.5 -47zM752 350q7 29 7 58
q0 45 -17 78t-44.5 55t-62.5 33t-71 11q-42 0 -88.5 -14.5t-88 -44t-74 -73.5t-46.5 -103q-7 -28 -7 -57q0 -45 17 -78t44.5 -55.5t62.5 -33.5t71 -11q42 0 88.5 14.5t88.5 43.5t74 73.5t46 103.5z" />
    <glyph glyph-name="P" unicode="P" horiz-adv-x="680" 
d="M233 700h359q45 0 77.5 -13.5t54 -36.5t31.5 -53.5t10 -64.5q0 -14 -2 -28.5t-5 -29.5q-10 -42 -33 -82.5t-57.5 -72t-80 -51t-99.5 -19.5h-218l-57 -249h-142zM503 370q23 0 42.5 9t34.5 23.5t25 33t15 38.5q3 15 3 29q0 31 -17 53.5t-55 22.5h-205l-48 -209h205z" />
    <glyph glyph-name="Q" unicode="Q" horiz-adv-x="858" 
d="M566 3q-72 -24 -142 -24q-58 0 -113.5 17.5t-99.5 52.5t-71 87.5t-27 123.5q0 40 11 90q22 93 73.5 163t117.5 116t140 69t140 23q58 0 114 -17.5t99.5 -52t70.5 -87.5t27 -123q0 -21 -2.5 -44t-8.5 -47q-23 -102 -82 -175.5t-133 -119.5l46 -99l-108 -65zM752 350
q7 29 7 58q0 45 -17 78t-44.5 55t-62.5 33t-71 11q-42 0 -88.5 -14.5t-88 -44t-74 -73.5t-46.5 -103q-7 -28 -7 -57q0 -45 17 -78t44.5 -55.5t62.5 -33.5t71 -11q28 0 57 6l-36 78l108 65l43 -94q44 29 77.5 74t47.5 106z" />
    <glyph glyph-name="R" unicode="R" horiz-adv-x="768" 
d="M456 273h-180l-63 -273h-142l162 700h397q46 0 79 -13t54.5 -35t31.5 -51t10 -62q0 -26 -6 -53q-8 -32 -24 -63t-40 -58t-55 -47.5t-69 -32.5l146 -285h-176zM529 394q25 0 46 8t37 21t26 29.5t14 33.5t1.5 34t-12.5 30t-27 21t-42 8h-226l-42 -185h225z" />
    <glyph glyph-name="S" unicode="S" horiz-adv-x="742" 
d="M743 503q-18 21 -45.5 37.5t-60 28.5t-67.5 18t-68 6q-29 0 -55.5 -5t-48.5 -16t-37.5 -28.5t-21.5 -41.5q-6 -25 9 -40.5t42.5 -25.5t65.5 -17t78 -15t79 -19.5t70 -30t50 -46.5t19 -69q0 -22 -6 -47q-13 -57 -48.5 -97.5t-85.5 -67t-110 -38.5t-121 -12q-50 0 -98 7.5
t-90.5 21.5t-77.5 34t-57 46l101 115q18 -23 48.5 -41.5t67 -31t75.5 -19.5t75 -7q29 0 57 5t50.5 15.5t38.5 27t21 39.5q6 26 -8.5 42.5t-42 27.5t-65 18.5t-77.5 16t-79 20t-70 30t-50 46.5t-19 69q0 20 6 46q13 57 47 98t80 66.5t101.5 37.5t112.5 12q46 0 92 -7
t87 -20.5t75.5 -32.5t58.5 -42z" />
    <glyph glyph-name="T" unicode="T" horiz-adv-x="765" 
d="M917 700l-28 -119h-301l-134 -581h-142l134 581h-301l28 119h744z" />
    <glyph glyph-name="U" unicode="U" horiz-adv-x="809" 
d="M233 700h141l-96 -419q-5 -23 -5 -40q0 -32 12.5 -56t34.5 -40.5t50 -24.5t60 -8q36 0 73 10.5t69 31.5t55.5 53t33.5 74l96 419h142l-97 -419q-18 -77 -59.5 -134t-97 -95.5t-120 -57.5t-126.5 -19q-54 0 -103.5 14.5t-87 43.5t-59.5 72t-22 101q0 34 9 75z" />
    <glyph glyph-name="V" unicode="V" horiz-adv-x="824" 
d="M338 -10l-165 710h150l127 -535l374 535h150l-494 -710h-142z" />
    <glyph glyph-name="W" unicode="W" horiz-adv-x="1115" 
d="M267 -10l-94 710h148l58 -500l293 500h94l62 -500l289 500h148l-423 -710h-114l-63 476l-283 -476h-115z" />
    <glyph glyph-name="X" unicode="X" horiz-adv-x="749" 
d="M556 0l-126 243l-237 -243h-182l359 360l-175 340h168l121 -226l225 226h168l-332 -340l193 -360h-182z" />
    <glyph glyph-name="Y" unicode="Y" horiz-adv-x="750" 
d="M338 700l129 -302l268 302h164l-388 -416l-66 -284h-141l65 284l-196 416h165z" />
    <glyph glyph-name="Z" unicode="Z" horiz-adv-x="669" 
d="M220 121h448l-28 -121h-611l28 121h1h-1l530 458h-415l27 121h570l-28 -121h-1h1z" />
    <glyph glyph-name="bracketleft" unicode="[" horiz-adv-x="244" 
d="M191 700h186l-13 -56l-90 -9l-145 -628l86 -9l-13 -56h-186z" />
    <glyph glyph-name="backslash" unicode="\" horiz-adv-x="610" 
d="M293 700l287 -700h-102l-287 700h102z" />
    <glyph glyph-name="bracketright" unicode="]" horiz-adv-x="247" 
d="M202 -58h-186l13 56l89 9l145 628l-85 9l13 56h186z" />
    <glyph glyph-name="asciicircum" unicode="^" horiz-adv-x="414" 
d="M342 700h62l88 -251h-103l-40 148l-108 -148h-103z" />
    <glyph glyph-name="underscore" unicode="_" horiz-adv-x="588" 
d="M46 73h530l-20 -87h-530z" />
    <glyph glyph-name="grave" unicode="`" horiz-adv-x="176" 
d="M223 731l86 -115l-33 -29l-109 94z" />
    <glyph glyph-name="a" unicode="a" horiz-adv-x="712" 
d="M767 540l-124 -540h-120l5 90q-46 -54 -103.5 -79.5t-114.5 -25.5q-43 0 -82 14t-68.5 41t-47 66.5t-17.5 90.5q0 34 9 73q15 67 51 120t83.5 90t100.5 56t103 19q55 0 99.5 -24.5t67.5 -76.5l20 86h138zM243 270q-6 -24 -6 -46q0 -32 11 -55.5t29 -40t42 -24.5t50 -8
q30 0 60.5 10.5t57.5 32t48 54.5t31 77q6 27 6 51q0 31 -10 54t-26.5 38t-39 22.5t-47.5 7.5q-31 0 -63 -11t-60.5 -33t-50.5 -54.5t-32 -74.5z" />
    <glyph glyph-name="b" unicode="b" horiz-adv-x="713" 
d="M243 750h138l-68 -297q46 52 102 77t112 25q43 0 82 -14.5t68.5 -41.5t47 -67t17.5 -91q0 -17 -1.5 -34.5t-6.5 -36.5q-16 -68 -52 -121t-83 -89.5t-100.5 -55.5t-103.5 -19q-57 0 -102.5 25.5t-66.5 80.5l-37 -91h-120zM594 270q6 24 6 46q0 31 -11 55t-29 40t-42 24
t-50 8q-30 0 -60.5 -10.5t-57.5 -32t-48 -54t-31 -76.5q-6 -29 -6 -51q0 -31 10 -54t26.5 -38.5t39 -23t47.5 -7.5q31 0 63 11t60.5 33t50.5 54.5t32 75.5z" />
    <glyph glyph-name="c" unicode="c" horiz-adv-x="636" 
d="M103 269q16 72 56.5 126t93 90t111 54.5t111.5 18.5q79 0 139 -31t91 -88l-119 -87q-20 40 -54.5 58t-82.5 18q-49 0 -88.5 -18t-67 -46.5t-42 -63.5t-14.5 -68q0 -24 8 -46t25.5 -38.5t43.5 -26.5t62 -10q100 0 172 76l79 -86q-58 -56 -133 -88t-153 -32q-46 0 -90 14
t-78.5 41.5t-56 68.5t-21.5 96q0 16 1.5 33t6.5 35z" />
    <glyph glyph-name="d" unicode="d" horiz-adv-x="726" 
d="M104 270q15 67 51 120t83.5 90t100.5 56t103 19q55 0 99.5 -24.5t67.5 -76.5l68 296h139l-134 -580q-2 -11 -4 -19t-2 -15q0 -16 9.5 -23t34.5 -7h7l-24 -106q-43 0 -76 3.5t-55.5 13.5t-34 27.5t-10.5 44.5q-46 -54 -103 -79t-114 -25q-43 0 -82 14t-68.5 41t-47 66.5
t-17.5 90.5q0 34 9 73zM243 270q-6 -24 -6 -46q0 -32 11 -55.5t29 -40t42 -24.5t50 -8q30 0 60.5 10.5t57.5 32t48 54.5t31 77q6 27 6 51q0 31 -10 54t-26.5 38t-39 22.5t-47.5 7.5q-31 0 -63 -11t-60.5 -33t-50.5 -54.5t-32 -74.5z" />
    <glyph glyph-name="e" unicode="e" horiz-adv-x="656" 
d="M103 269q16 72 56.5 126t93 90t111 54.5t111.5 18.5q48 0 88.5 -14.5t69.5 -42.5t45.5 -68.5t16.5 -92.5q0 -38 -9 -80l-445 1q-4 -30 2 -58t22 -49t43.5 -34t66.5 -13q51 0 96 19t81 58l75 -83q-58 -56 -133 -88t-153 -32q-46 0 -90 14t-78.5 41.5t-56 68.5t-21.5 96
q0 16 1.5 33t6.5 35zM572 349q-3 20 -11 39t-22 33.5t-34.5 23.5t-47.5 9q-63 0 -109.5 -30t-73.5 -75h298z" />
    <glyph glyph-name="f" unicode="f" horiz-adv-x="490" 
d="M200 436h-88l20 87l100 15q-17 30 -17 64q0 14 3 29q7 31 29 55.5t52.5 41.5t67.5 26.5t74 9.5q31 0 61 -7t54.5 -21t43 -36.5t27.5 -52.5l-94 -63q-13 32 -45 48t-66 16q-29 0 -52.5 -12.5t-29.5 -39.5q-4 -16 2 -32t22 -24h218l-24 -104h-217l-101 -436h-141z" />
    <glyph glyph-name="g" unicode="g" horiz-adv-x="711" 
d="M767 540l-108 -470q-18 -79 -59.5 -139t-100 -100.5t-130.5 -61t-151 -20.5q-51 0 -105 15t-93 38l57 126q35 -26 85.5 -41t104.5 -15q42 0 82.5 11.5t74 35t58.5 60t37 86.5l5 20q-47 -52 -102.5 -76t-111.5 -24q-43 0 -82 14t-68.5 41t-47 66.5t-17.5 90.5q0 34 9 73
q15 67 51 120t83.5 90t100.5 56t103 19q56 0 100.5 -25t66.5 -77l59 87h99zM243 270q-6 -24 -6 -46q0 -32 11 -55.5t29 -40t42 -24.5t50 -8q29 0 59.5 10t57 31t47.5 52.5t32 73.5l3 13q2 12 3.5 22.5t1.5 21.5q0 31 -10 54t-27 38.5t-39.5 23t-47.5 7.5q-31 0 -63 -11
t-60.5 -33t-50.5 -54.5t-32 -74.5z" />
    <glyph glyph-name="h" unicode="h" horiz-adv-x="723" 
d="M69 0l173 750h139l-69 -300q36 43 89 72t123 29q96 0 145.5 -39.5t49.5 -118.5q0 -17 -2.5 -35.5t-7.5 -39.5l-34 -148q-4 -16 -4 -30q0 -18 10 -26t36 -8h7l-23 -106q-28 0 -59.5 2t-58 11t-44 28t-17.5 52q0 8 1 16.5t3 17.5l34 145q10 41 10 76q0 48 -25 72t-85 24
q-30 0 -59.5 -10.5t-55 -31t-44 -50t-27.5 -68.5l-66 -284h-139z" />
    <glyph glyph-name="i" unicode="i" horiz-adv-x="290" 
d="M216 670q8 33 33.5 53t60.5 20t51.5 -20t8.5 -53q-8 -32 -33.5 -52t-60.5 -20t-51.5 20t-8.5 52zM146 540h23q21 0 48 -2.5t50.5 -12t37 -27.5t6.5 -48l-64 -280q-2 -11 -4 -19t-2 -15q0 -16 9.5 -23t34.5 -7h7l-24 -106q-42 0 -75 3.5t-55.5 13t-34 26t-11.5 42.5
q0 14 5 36l62 268q3 15 2.5 30t-17.5 15h-23z" />
    <glyph glyph-name="j" unicode="j" horiz-adv-x="317" 
d="M257 670q8 33 33 53t60 20t51.5 -20t8.5 -53q-8 -32 -33 -52t-60 -20t-51.5 20t-8.5 52zM234 540h139l-120 -516q-15 -67 -45 -111.5t-67.5 -71.5t-78.5 -38t-79 -11q-32 0 -59.5 6.5t-45.5 17.5l56 118q14 -6 31 -11t36 -5q17 0 34.5 5.5t33 19t28 36t20.5 57.5z" />
    <glyph glyph-name="k" unicode="k" horiz-adv-x="691" 
d="M237 725h138l-90 -389l275 204h185l-301 -220q37 0 60.5 -14.5t41 -36.5t31.5 -47.5t31 -47t40 -36t59 -14.5l-29 -130q-60 0 -99.5 19t-66 47.5t-45 61t-36.5 60t-39.5 45t-54.5 14.5l-88 -65l-41 -176h-139z" />
    <glyph glyph-name="l" unicode="l" horiz-adv-x="291" 
d="M381 750l-134 -580q-5 -22 -5 -33q0 -16 9.5 -23.5t34.5 -7.5h7l-24 -106q-42 0 -75 3.5t-55.5 13t-34.5 26t-12 42.5q0 14 5 36l146 629h138z" />
    <glyph glyph-name="m" unicode="m" horiz-adv-x="1010" 
d="M68 0l89 384q0 2 1 3v2q4 16 3.5 30.5t-17.5 14.5h-23l25 106h23q19 0 44 -2.5t47.5 -10t38 -22t14.5 -39.5q32 37 76.5 61t99.5 24q143 0 162 -109q29 46 76.5 77.5t116.5 31.5q165 0 165 -145q0 -20 -2.5 -41.5t-8.5 -46.5l-35 -148q-4 -16 -4 -30q0 -18 10 -26t36 -8
h8l-24 -106q-28 0 -59.5 2t-58 11t-44 28t-17.5 52q0 8 1 16.5t3 17.5l39 168q9 40 9 70q0 38 -17.5 58.5t-57.5 20.5q-50 0 -88 -34.5t-58 -99.5l-72 -310l-139 1l68 294q9 39 9 68q0 39 -18 60t-59 21q-55 0 -97 -41t-60 -119l-66 -284h-139z" />
    <glyph glyph-name="n" unicode="n" horiz-adv-x="722" 
d="M68 0l89 384q0 2 1 3v2q4 16 3.5 30.5t-17.5 14.5h-23l25 106h23q20 0 46.5 -2.5t49.5 -11t37.5 -25t10.5 -44.5q37 40 90.5 67t119.5 27q97 0 146.5 -39.5t49.5 -118.5q0 -17 -2.5 -35.5t-7.5 -39.5l-34 -148q-5 -20 -5 -31q0 -17 10.5 -25t36.5 -8h7l-24 -106
q-28 0 -59.5 2t-58 11t-44 28t-17.5 52q0 8 1 16.5t3 17.5l34 145q5 22 7.5 41t2.5 36q0 48 -24.5 71.5t-84.5 23.5q-30 0 -60 -11t-55.5 -31.5t-44 -50.5t-27.5 -67l-66 -284h-139z" />
    <glyph glyph-name="o" unicode="o" 
d="M726 271q-17 -72 -58 -126t-94 -90t-112 -53.5t-113 -17.5q-47 0 -92 13.5t-80.5 41t-57.5 68.5t-22 96q0 16 1.5 33t6.5 35q16 72 57 125.5t94 89.5t112 53.5t113 17.5q47 0 92.5 -13.5t81 -41t57.5 -68.5t22 -96q0 -29 -8 -67zM587 271q2 10 3 19.5t1 17.5q0 30 -12 53
t-31.5 38t-44.5 22.5t-51 7.5q-30 0 -62.5 -10t-62 -29.5t-52 -49t-31.5 -69.5q-5 -22 -5 -38q0 -30 12 -53t32 -38t45 -22.5t51 -7.5q30 0 62.5 10t61.5 29.5t52 49.5t32 70z" />
    <glyph glyph-name="p" unicode="p" horiz-adv-x="713" 
d="M734 270q-16 -68 -52 -121t-83 -89.5t-100.5 -55.5t-103.5 -19q-56 0 -100.5 24.5t-67.5 77.5l-73 -317h-139l142 614q0 2 0.5 2.5t0.5 1.5q4 16 3.5 31t-17.5 15h-23l25 106h23q20 0 47 -2.5t50.5 -11.5t37.5 -26.5t8 -47.5q46 53 102.5 78t112.5 25q43 0 82 -14.5
t68.5 -41.5t47 -67t17.5 -91q0 -17 -1.5 -34.5t-6.5 -36.5zM594 270q6 24 6 46q0 31 -11 55t-29 40t-42 24t-50 8q-30 0 -60.5 -10.5t-57.5 -32t-48 -54t-31 -76.5q-6 -29 -6 -51q0 -31 10 -54t26.5 -38.5t39 -23t47.5 -7.5q31 0 63 11t60.5 33t50.5 54.5t32 75.5z" />
    <glyph glyph-name="q" unicode="q" horiz-adv-x="712" 
d="M767 540l-173 -750h-138l68 295q-47 -52 -103 -76t-111 -24q-43 0 -82 14t-68.5 41t-47 66.5t-17.5 90.5q0 34 9 73q15 67 51 120t83.5 90t100.5 56t103 19q55 0 100 -25t67 -77l46 87h112zM243 270q-6 -24 -6 -46q0 -32 11 -55.5t29 -40t42 -24.5t50 -8q29 0 59.5 10.5
t57.5 31.5t47.5 53t31.5 75l2 7q3 13 4 25t1 23q0 31 -10 54t-26.5 38t-39 22.5t-47.5 7.5q-31 0 -63 -11t-60.5 -33t-50.5 -54.5t-32 -74.5z" />
    <glyph glyph-name="r" unicode="r" horiz-adv-x="505" 
d="M68 0l89 384q0 2 1 3v2q4 16 3.5 30.5t-17.5 14.5h-23l25 106h23q21 0 48 -2.5t50.5 -12t37 -27.5t6.5 -48v-2q38 44 87 72t106 28q49 0 99 -25l-57 -108q-24 10 -61 10q-31 0 -65 -8.5t-63.5 -25t-52 -41t-29.5 -56.5l-68 -294h-139z" />
    <glyph glyph-name="s" unicode="s" horiz-adv-x="651" 
d="M628 373q-15 15 -39.5 28t-54 22t-61.5 14.5t-62 5.5q-45 0 -79 -13.5t-41 -44.5q-5 -22 19 -33.5t63.5 -20t86.5 -16.5t88.5 -23.5t69 -42t27.5 -71.5q0 -18 -4 -35q-11 -45 -41 -77t-72.5 -53t-94 -30.5t-103.5 -9.5q-43 0 -84 6t-77.5 17t-65.5 27t-48 36l89 103
q14 -18 38.5 -32.5t55 -24t64.5 -15t66 -5.5q50 0 87.5 14t45.5 45q4 19 -8.5 30.5t-36 19t-55 12.5t-65 11t-66.5 15t-58.5 24t-41.5 38t-16 58q0 16 5 39q10 45 37 76.5t65.5 51.5t85 29t94.5 9q40 0 80.5 -6t76.5 -17t66 -26.5t50 -34.5z" />
    <glyph glyph-name="t" unicode="t" horiz-adv-x="518" 
d="M394 652l-26 -112h227l-24 -104h-227l-54 -235q-6 -23 -6 -42q0 -29 16 -46t58 -17q36 0 69 15.5t63 41.5l19 -99q-42 -36 -95 -58.5t-103 -22.5q-81 0 -128 33t-47 104q0 14 2 28t6 31l61 267h-93l24 104h93l76 111z" />
    <glyph glyph-name="u" unicode="u" 
d="M191 540h139l-73 -317q-4 -16 -4 -33q0 -47 31.5 -70t75.5 -23q27 0 55 8.5t52.5 26t42.5 42.5t26 58l71 308h139l-85 -370q-2 -11 -4 -19t-2 -15q0 -16 9.5 -23t34.5 -7h7l-24 -106q-42 0 -74.5 3.5t-55 12.5t-34.5 25.5t-12 42.5q-44 -50 -101 -74.5t-113 -24.5
q-36 0 -69 11t-58 32.5t-40 54t-15 76.5q0 15 2 31t6 33z" />
    <glyph glyph-name="v" unicode="v" horiz-adv-x="695" 
d="M273 -10l-137 550h152l87 -420l281 420h152l-391 -550h-144z" />
    <glyph glyph-name="w" unicode="w" horiz-adv-x="934" 
d="M222 -10l-86 550h147l49 -370l213 370h93l42 -370l220 370h147l-340 -550h-115l-50 334l-205 -334h-115z" />
    <glyph glyph-name="x" unicode="x" horiz-adv-x="658" 
d="M467 0l-100 168l-177 -168h-179l294 272l-160 268h167l103 -166l178 166h168l-283 -268l168 -272h-179z" />
    <glyph glyph-name="y" unicode="y" horiz-adv-x="697" 
d="M197 540h138l-73 -317q-2 -9 -3 -17.5t-1 -16.5q0 -48 31.5 -71t75.5 -23q26 0 53.5 8.5t52 25t43 41t26.5 57.5l73 313h139l-109 -470q-18 -79 -56.5 -139t-94 -100.5t-125 -61t-148.5 -20.5q-51 0 -104.5 15t-93.5 38l57 126q31 -24 82 -38.5t103 -14.5q57 0 97.5 13.5
t69 38.5t46.5 60t28 78l2 11q-44 -47 -99 -70t-109 -23q-37 0 -70 11t-58 32.5t-39.5 54t-14.5 75.5q0 15 1.5 32t6.5 35z" />
    <glyph glyph-name="z" unicode="z" horiz-adv-x="594" 
d="M225 116h374l-27 -116h-551l27 116l428 308h-339l27 116h507l-27 -116z" />
    <glyph glyph-name="braceleft" unicode="{" horiz-adv-x="296" 
d="M114 366q44 -2 67.5 12t35 38t15 55t6.5 64t10.5 64.5t26.5 56.5t54 40t94 15l-8 -67q-39 0 -57.5 -17t-27.5 -44.5t-12 -62.5t-10 -70t-23 -67t-49 -55q24 -25 24 -65q0 -26 -7.5 -53.5t-16.5 -55t-16.5 -52.5t-7.5 -44q0 -21 12.5 -33.5t44.5 -12.5l-23 -67
q-37 0 -61 6t-38.5 17t-20.5 25.5t-6 32.5q0 25 8.5 53.5t19 57t19.5 55t9 47.5q0 25 -17 39t-63 12l18 76v0z" />
    <glyph glyph-name="bar" unicode="|" horiz-adv-x="145" 
d="M191 700h85l-183 -792h-85z" />
    <glyph glyph-name="braceright" unicode="}" horiz-adv-x="296" 
d="M333 290q-44 2 -68 -12t-35 -38t-14.5 -55t-6.5 -64t-10 -64.5t-26.5 -56.5t-54.5 -40t-94 -15l8 67q38 0 57 17t27.5 44.5t12 62t10.5 69.5t23 67.5t49 55.5q-14 13 -19 29t-5 35q0 25 7.5 53.5t17 55.5t17 52t7.5 45q0 21 -12.5 33.5t-45.5 12.5l23 67q37 0 61 -6
t38.5 -17t20.5 -25.5t6 -32.5q0 -25 -8.5 -53.5t-19 -57t-19 -55t-8.5 -47.5q0 -25 17 -39t62 -12z" />
    <glyph glyph-name="asciitilde" unicode="~" horiz-adv-x="478" 
d="M100 306q49 65 84.5 89t64.5 24q21 0 38.5 -8.5t34 -19t32.5 -19t34 -8.5t38 11t44 40l64 -46q-48 -59 -84.5 -81t-65.5 -22q-21 0 -39 8t-34.5 17.5t-32 17.5t-32.5 8t-37 -12.5t-44 -45.5z" />
    <glyph glyph-name="exclamdown" unicode="&#xa1;" horiz-adv-x="178" 
d="M262 436q-7 -31 -33 -52t-57 -21t-47 21t-9 52q8 31 33.5 52.5t56.5 21.5t47.5 -21.5t8.5 -52.5zM114 -199h-143l141 494h89z" />
    <glyph glyph-name="cent" unicode="&#xa2;" horiz-adv-x="563" 
d="M508 666l-18 -77q44 -5 82 -27.5t75 -62.5l-101 -76q-17 22 -37 38.5t-43 24.5l-77 -334q29 8 60.5 26.5t63.5 48.5l50 -88q-52 -38 -101.5 -60.5t-96.5 -28.5l-15 -68l-101 3l16 69q-45 9 -77.5 28t-54 46t-32 59.5t-10.5 68.5q0 29 8 63q10 45 34.5 88t61 79t85.5 62
t108 37l19 85zM364 481q-39 -11 -69 -32.5t-50.5 -49t-31.5 -58.5t-11 -61q0 -41 21 -74t66 -49z" />
    <glyph glyph-name="sterling" unicode="&#xa3;" horiz-adv-x="597" 
d="M631 598q-41 0 -72.5 -18.5t-57 -49.5t-47 -72t-42.5 -85h113l-22 -96h-140q-26 -49 -58 -92t-75 -74h363l-25 -111h-533l17 76q63 38 106 90t77 111h-141l21 96h170q31 63 61.5 122t72 105.5t98 74.5t139.5 28z" />
    <glyph glyph-name="yen" unicode="&#xa5;" horiz-adv-x="749" 
d="M254 342h87l-168 358h164l129 -302l268 302h165l-334 -358h84l-20 -88h-126l-15 -65h126l-21 -88h-125l-23 -101h-142l24 101h-129l21 88h128l15 65h-128z" />
    <glyph glyph-name="dieresis" unicode="&#xa8;" horiz-adv-x="213" 
d="M161 643q4 17 18.5 29t31.5 12q15 0 24.5 -12t5.5 -29q-4 -15 -18.5 -27t-30.5 -12q-17 0 -26 12t-5 27zM270 643q4 17 19 29t32 12q14 0 23 -12t5 -29q-4 -15 -18 -27t-28 -12q-17 0 -27 12t-6 27z" />
    <glyph glyph-name="copyright" unicode="&#xa9;" horiz-adv-x="642" 
d="M104 341q14 61 50 115t85.5 94t108.5 63t120 23q52 0 95.5 -17.5t74 -48t47.5 -72.5t17 -91q0 -17 -2 -33.5t-6 -33.5q-14 -61 -49.5 -114.5t-85 -93.5t-108.5 -63t-120 -23q-53 0 -96 17.5t-74 48t-48 72.5t-17 91q0 29 8 66zM145 340q-7 -28 -7 -57q0 -42 15 -78
t41.5 -62.5t64 -41.5t82.5 -15q52 0 103 20t93.5 55t73.5 81t43 99q3 15 5 29t2 28q0 42 -15 78.5t-42 62.5t-64.5 41t-82.5 15q-52 0 -102.5 -20.5t-93 -55t-73.5 -81t-43 -98.5zM497 211q-35 -23 -69 -36t-69 -13q-33 0 -60.5 11t-47 30.5t-30 46.5t-10.5 58
q0 11 1.5 21.5t3.5 21.5q9 39 31.5 73t54 59.5t69 40t76.5 14.5q35 0 63.5 -13t51.5 -36l-32 -29q-20 19 -42.5 29t-50.5 10q-31 0 -60.5 -12t-54.5 -32t-43 -47.5t-25 -57.5q-4 -15 -4 -33q0 -50 33 -83t86 -33q29 0 56 10.5t55 29.5z" />
    <glyph glyph-name="guillemotleft" unicode="&#xab;" horiz-adv-x="422" 
d="M264 374l280 278l-30 -132l-172 -169l94 -168l-30 -132l-153 278zM115 372l281 279l-31 -133l-171 -168l94 -168l-31 -132l-152 278z" />
    <glyph glyph-name="registered" unicode="&#xae;" horiz-adv-x="345" 
d="M162 587q7 30 24.5 55.5t41.5 45t52.5 30.5t58.5 11q25 0 46.5 -8.5t36.5 -23.5t23.5 -35t8.5 -44q0 -8 -1 -15.5t-3 -15.5q-7 -29 -24 -55.5t-41 -46.5t-53 -31.5t-59 -11.5q-52 0 -83.5 32t-31.5 80q0 18 4 33zM185 587q-6 -24 -1.5 -46.5t17.5 -39t33 -26.5t45 -10
t49.5 10t44.5 27t34.5 39t19.5 46q6 24 1.5 46t-17 38.5t-32 26.5t-44.5 10t-49.5 -9.5t-45 -26t-35 -38.5t-20.5 -47zM348 504h-28l-36 63h-16l-14 -63h-22l39 170h52q26 -1 39 -15.5t8 -37.5q-5 -20 -21.5 -34t-39.5 -18zM273 587h22q20 0 35 8t20 26q4 19 -7 27.5
t-31 8.5h-23z" />
    <glyph glyph-name="degree" unicode="&#xb0;" horiz-adv-x="335" 
d="M268 416q-29 0 -50 9t-34.5 24t-20 35t-6.5 42q0 32 12.5 65t35.5 60t56.5 44.5t74.5 17.5q29 0 49.5 -8.5t34 -23.5t20 -35t6.5 -42q0 -32 -12.5 -65.5t-35.5 -60.5t-56 -44.5t-74 -17.5zM321 646q-20 0 -35.5 -10t-27 -25.5t-17.5 -34t-6 -35.5q0 -23 11.5 -39.5
t37.5 -16.5q19 0 34.5 10t26.5 25.5t17.5 34t6.5 36.5q0 23 -11.5 39t-36.5 16z" />
    <glyph glyph-name="plusminus" unicode="&#xb1;" horiz-adv-x="486" 
d="M434 597l-36 -153h160l-22 -98h-160l-35 -148h-106l34 148h-160l23 98h160l35 153h107zM54 98h421l-22 -98h-422z" />
    <glyph glyph-name="acute" unicode="&#xb4;" horiz-adv-x="175" 
d="M293 739l33 -51l-153 -93l-19 29z" />
    <glyph glyph-name="periodcentered" unicode="&#xb7;" horiz-adv-x="204" 
d="M216 354q-3 -14 -14.5 -23t-25.5 -9t-21 9t-3 23q3 14 14 23t25 9t21.5 -9t3.5 -23z" />
    <glyph glyph-name="cedilla" unicode="&#xb8;" horiz-adv-x="165" 
d="M129 13l-38 -56q19 -7 27.5 -19.5t8.5 -27.5q0 -14 -6 -27.5t-16.5 -25t-25 -18.5t-31.5 -7t-30 4.5t-22 10.5q-11 6 -19 15l33 41q5 -13 16 -20t22 -7q22 0 28 20q5 13 -5.5 27t-42.5 15l56 90z" />
    <glyph glyph-name="guillemotright" unicode="&#xbb;" horiz-adv-x="435" 
d="M331 372l-11 -44l-279 -279l30 133l171 168l-93 168l31 133zM491 372l-11 -44l-280 -278l30 132l172 168l-94 168l31 133z" />
    <glyph glyph-name="questiondown" unicode="&#xbf;" horiz-adv-x="559" 
d="M504 471q-8 -32 -34 -52.5t-57 -20.5t-47 20.5t-8 52.5q7 31 32.5 52t56.5 21t47.5 -21t9.5 -52zM168 19q-10 -44 14 -64.5t65 -20.5q24 0 52 7t56 20t55 32.5t50 45.5l58 -91q-28 -30 -63.5 -53.5t-75 -39t-80 -23.5t-79.5 -8q-40 0 -75 8.5t-61.5 26.5t-41.5 45t-15 64
q0 21 6 47q12 52 38.5 85t60 55.5t70.5 38.5t70 34.5t57.5 44t34.5 66.5h81q-13 -58 -36.5 -95t-51.5 -61.5t-58.5 -41t-56.5 -32.5t-46 -36.5t-28 -53.5z" />
    <glyph glyph-name="Agrave" unicode="&#xc0;" horiz-adv-x="823" 
d="M583 891l86 -115l-33 -29l-109 94zM504 710h142l166 -710h-150l-26 108h-399l-76 -108h-150zM607 229l-72 306l-214 -306h286z" />
    <glyph glyph-name="Aacute" unicode="&#xc1;" horiz-adv-x="823" 
d="M653 899l33 -51l-153 -93l-19 29zM504 710h142l166 -710h-150l-26 108h-399l-76 -108h-150zM607 229l-72 306l-214 -306h286z" />
    <glyph glyph-name="Acircumflex" unicode="&#xc2;" horiz-adv-x="823" 
d="M493 765l93 110h54l43 -110h-54l-26 65l-56 -65h-54zM504 710h142l166 -710h-150l-26 108h-399l-76 -108h-150zM607 229l-72 306l-214 -306h286z" />
    <glyph glyph-name="Atilde" unicode="&#xc3;" horiz-adv-x="823" 
d="M486 816q17 14 38 27.5t47 13.5q14 0 23.5 -4.5t16.5 -9.5t14 -9.5t17 -4.5t23.5 6t35.5 21l12 -42q-14 -11 -37.5 -22.5t-43.5 -11.5q-16 0 -26.5 4.5t-18 9.5t-13.5 9.5t-15 4.5q-10 0 -23.5 -7t-35.5 -25zM504 710h142l166 -710h-150l-26 108h-399l-76 -108h-150z
M607 229l-72 306l-214 -306h286z" />
    <glyph glyph-name="Adieresis" unicode="&#xc4;" horiz-adv-x="823" 
d="M503 803q4 17 18.5 29t31.5 12q15 0 24.5 -12t5.5 -29q-4 -15 -18.5 -27t-30.5 -12q-17 0 -26 12t-5 27zM612 803q4 17 19 29t32 12q14 0 23 -12t5 -29q-4 -15 -18.5 -27t-28.5 -12q-17 0 -26.5 12t-5.5 27zM504 710h142l166 -710h-150l-26 108h-399l-76 -108h-150z
M607 229l-72 306l-214 -306h286z" />
    <glyph glyph-name="Aring" unicode="&#xc5;" horiz-adv-x="823" 
d="M579 716q-37 0 -54 19t-17 45q0 18 7.5 36.5t22 33.5t34.5 24.5t46 9.5q36 0 52 -18.5t16 -44.5q0 -18 -7.5 -36.5t-21.5 -34t-33.5 -25t-44.5 -9.5zM607 838q-23 0 -35.5 -15.5t-12.5 -32.5q0 -11 7 -19.5t23 -8.5q22 0 34.5 15.5t12.5 32.5q0 11 -7 19.5t-22 8.5z
M504 710h142l166 -710h-150l-26 108h-399l-76 -108h-150zM607 229l-72 306l-214 -306h286z" />
    <glyph glyph-name="AE" unicode="&#xc6;" horiz-adv-x="1212" 
d="M720 700h618l-28 -121h-450l-39 -168h386l-28 -121h-386l-39 -169h457l-28 -121h-599l25 108h-330l-112 -108h-155zM637 229l67 289l-299 -289h232z" />
    <glyph glyph-name="Ccedilla" unicode="&#xc7;" horiz-adv-x="770" 
d="M122 350q21 92 71 161.5t115 116t136.5 70t136.5 23.5q97 0 170.5 -40t109.5 -112l-123 -95q-12 24 -31 44t-43.5 35t-52.5 23.5t-57 8.5q-59 0 -107.5 -20t-85 -53t-61 -75.5t-34.5 -86.5q-7 -28 -7 -59q0 -36 11 -68t34 -56t58 -38t84 -14q35 0 67.5 9t62.5 25t56.5 37
t48.5 44l80 -96q-72 -72 -163.5 -113t-186.5 -42l-15 -22q19 -7 27 -19.5t8 -27.5q0 -14 -6 -27.5t-16.5 -25t-25 -18.5t-30.5 -7q-17 0 -30 4.5t-22 10.5q-11 6 -19 15l33 41q5 -13 16 -20t22 -7q9 0 17 5t11 15q5 13 -5.5 27t-42.5 15l28 44q-49 7 -94.5 28t-80 55.5
t-55 82.5t-20.5 110q0 22 2.5 44.5t8.5 47.5z" />
    <glyph glyph-name="Egrave" unicode="&#xc8;" horiz-adv-x="700" 
d="M521 891l86 -115l-33 -29l-109 94zM233 700h592l-28 -121h-451l-39 -168h387l-28 -121h-387l-39 -169h457l-28 -121h-598z" />
    <glyph glyph-name="Eacute" unicode="&#xc9;" horiz-adv-x="700" 
d="M591 899l33 -51l-153 -93l-19 29zM233 700h592l-28 -121h-451l-39 -168h387l-28 -121h-387l-39 -169h457l-28 -121h-598z" />
    <glyph glyph-name="Ecircumflex" unicode="&#xca;" horiz-adv-x="700" 
d="M431 765l93 110h54l43 -110h-54l-26 65l-56 -65h-54zM233 700h592l-28 -121h-451l-39 -168h387l-28 -121h-387l-39 -169h457l-28 -121h-598z" />
    <glyph glyph-name="Edieresis" unicode="&#xcb;" horiz-adv-x="700" 
d="M441 803q4 17 18.5 29t31.5 12q15 0 24.5 -12t5.5 -29q-4 -15 -18.5 -27t-30.5 -12q-17 0 -26 12t-5 27zM550 803q4 17 19 29t32 12q14 0 23 -12t5 -29q-4 -15 -18.5 -27t-28.5 -12q-17 0 -26.5 12t-5.5 27zM233 700h592l-28 -121h-451l-39 -168h387l-28 -121h-387
l-39 -169h457l-28 -121h-598z" />
    <glyph glyph-name="Igrave" unicode="&#xcc;" horiz-adv-x="285" 
d="M314 891l86 -115l-33 -29l-109 94zM233 700h141l-161 -700h-142z" />
    <glyph glyph-name="Iacute" unicode="&#xcd;" horiz-adv-x="285" 
d="M383 899l33 -51l-152 -93l-19 29zM233 700h141l-161 -700h-142z" />
    <glyph glyph-name="Icircumflex" unicode="&#xce;" horiz-adv-x="285" 
d="M223 765l94 110h54l43 -110h-54l-26 65l-57 -65h-54zM233 700h141l-161 -700h-142z" />
    <glyph glyph-name="Idieresis" unicode="&#xcf;" horiz-adv-x="285" 
d="M234 803q4 17 18 29t31 12q16 0 25.5 -12t5.5 -29q-4 -15 -19 -27t-30 -12q-17 0 -26 12t-5 27zM342 803q5 17 20 29t32 12q14 0 23 -12t4 -29q-3 -15 -17.5 -27t-28.5 -12q-17 0 -27 12t-6 27zM233 700h141l-161 -700h-142z" />
    <glyph glyph-name="Eth" unicode="&#xd0;" horiz-adv-x="829" 
d="M610 700q70 -1 120.5 -22.5t83.5 -57.5t48.5 -83t15.5 -99q0 -45 -10 -88q-15 -65 -50.5 -127.5t-89.5 -111.5t-124.5 -79.5t-155.5 -31.5h-377l78 339h-50l23 97h50l61 264h377zM346 579l-33 -143h294l-22 -97h-294l-50 -217h229q49 0 91 19.5t74 51.5t54 73t32 84
q8 35 8 66q0 33 -9 63t-28 52t-48 35t-69 13h-229z" />
    <glyph glyph-name="Ntilde" unicode="&#xd1;" horiz-adv-x="859" 
d="M504 816q17 14 38 27.5t47 13.5q14 0 23.5 -4.5t16.5 -9.5t14 -9.5t17 -4.5t23.5 6t35.5 21l12 -42q-14 -11 -37.5 -22.5t-43.5 -11.5q-16 0 -26.5 4.5t-18 9.5t-13.5 9.5t-15 4.5q-10 0 -23.5 -7t-35.5 -25zM233 700h141l316 -511l118 511h141l-161 -700h-142l-315 512
l-118 -512h-142z" />
    <glyph glyph-name="Ograve" unicode="&#xd2;" horiz-adv-x="858" 
d="M601 891l86 -115l-33 -29l-109 94zM895 350q-21 -93 -72.5 -163t-117.5 -116t-140 -69t-141 -23q-58 0 -114 17.5t-99.5 52t-70.5 87t-27 123.5q0 21 2.5 44t8.5 47q21 93 72.5 163t117.5 116t140 69t141 23q58 0 114 -17.5t99.5 -52t70.5 -87.5t27 -123q0 -21 -2.5 -44
t-8.5 -47zM752 350q7 29 7 58q0 45 -17 78t-44.5 55t-62.5 33t-71 11q-42 0 -88.5 -14.5t-88.5 -44t-74.5 -73.5t-45.5 -103q-7 -29 -7 -58q0 -45 17 -78t44.5 -55t62.5 -33t71 -11q42 0 88.5 14.5t88.5 43.5t74 73.5t46 103.5z" />
    <glyph glyph-name="Oacute" unicode="&#xd3;" horiz-adv-x="858" 
d="M670 899l33 -51l-152 -93l-19 29zM895 350q-21 -93 -72.5 -163t-117.5 -116t-140 -69t-141 -23q-58 0 -114 17.5t-99.5 52t-70.5 87t-27 123.5q0 21 2.5 44t8.5 47q21 93 72.5 163t117.5 116t140 69t141 23q58 0 114 -17.5t99.5 -52t70.5 -87.5t27 -123q0 -21 -2.5 -44
t-8.5 -47zM752 350q7 29 7 58q0 45 -17 78t-44.5 55t-62.5 33t-71 11q-42 0 -88.5 -14.5t-88.5 -44t-74.5 -73.5t-45.5 -103q-7 -29 -7 -58q0 -45 17 -78t44.5 -55t62.5 -33t71 -11q42 0 88.5 14.5t88.5 43.5t74 73.5t46 103.5z" />
    <glyph glyph-name="Ocircumflex" unicode="&#xd4;" horiz-adv-x="858" 
d="M510 765l94 110h54l43 -110h-54l-26 65l-57 -65h-54zM895 350q-21 -93 -72.5 -163t-117.5 -116t-140 -69t-141 -23q-58 0 -114 17.5t-99.5 52t-70.5 87t-27 123.5q0 21 2.5 44t8.5 47q21 93 72.5 163t117.5 116t140 69t141 23q58 0 114 -17.5t99.5 -52t70.5 -87.5
t27 -123q0 -21 -2.5 -44t-8.5 -47zM752 350q7 29 7 58q0 45 -17 78t-44.5 55t-62.5 33t-71 11q-42 0 -88.5 -14.5t-88.5 -44t-74.5 -73.5t-45.5 -103q-7 -29 -7 -58q0 -45 17 -78t44.5 -55t62.5 -33t71 -11q42 0 88.5 14.5t88.5 43.5t74 73.5t46 103.5z" />
    <glyph glyph-name="Otilde" unicode="&#xd5;" horiz-adv-x="858" 
d="M504 816q17 14 38 27.5t47 13.5q14 0 23 -4.5t16.5 -9.5t14 -9.5t16.5 -4.5t24 6t36 21l12 -42q-14 -11 -38 -22.5t-44 -11.5q-16 0 -26 4.5t-17.5 9.5t-14 9.5t-15.5 4.5t-23 -7t-36 -25zM895 350q-21 -93 -72.5 -163t-117.5 -116t-140 -69t-141 -23q-58 0 -114 17.5
t-99.5 52t-70.5 87t-27 123.5q0 21 2.5 44t8.5 47q21 93 72.5 163t117.5 116t140 69t141 23q58 0 114 -17.5t99.5 -52t70.5 -87.5t27 -123q0 -21 -2.5 -44t-8.5 -47zM752 350q7 29 7 58q0 45 -17 78t-44.5 55t-62.5 33t-71 11q-42 0 -88.5 -14.5t-88.5 -44t-74.5 -73.5
t-45.5 -103q-7 -29 -7 -58q0 -45 17 -78t44.5 -55t62.5 -33t71 -11q42 0 88.5 14.5t88.5 43.5t74 73.5t46 103.5z" />
    <glyph glyph-name="Odieresis" unicode="&#xd6;" horiz-adv-x="858" 
d="M521 803q4 17 18 29t31 12q16 0 25.5 -12t5.5 -29q-4 -15 -19 -27t-30 -12q-17 0 -26 12t-5 27zM629 803q5 17 20 29t32 12q14 0 23 -12t4 -29q-3 -15 -17.5 -27t-28.5 -12q-17 0 -27 12t-6 27zM895 350q-21 -93 -72.5 -163t-117.5 -116t-140 -69t-141 -23
q-58 0 -114 17.5t-99.5 52t-70.5 87t-27 123.5q0 21 2.5 44t8.5 47q21 93 72.5 163t117.5 116t140 69t141 23q58 0 114 -17.5t99.5 -52t70.5 -87.5t27 -123q0 -21 -2.5 -44t-8.5 -47zM752 350q7 29 7 58q0 45 -17 78t-44.5 55t-62.5 33t-71 11q-42 0 -88.5 -14.5t-88.5 -44
t-74.5 -73.5t-45.5 -103q-7 -29 -7 -58q0 -45 17 -78t44.5 -55t62.5 -33t71 -11q42 0 88.5 14.5t88.5 43.5t74 73.5t46 103.5z" />
    <glyph glyph-name="multiply" unicode="&#xd7;" horiz-adv-x="438" 
d="M228 525l87 -104l141 108l58 -72l-140 -107l89 -106l-94 -68l-86 104l-139 -108l-58 72l138 106l-87 105z" />
    <glyph glyph-name="Oslash" unicode="&#xd8;" horiz-adv-x="858" 
d="M895 350q-21 -93 -72.5 -163t-117.5 -116t-140 -69t-141 -23q-82 0 -156 34l-11 -13h-105l49 56q-40 35 -64 85.5t-24 117.5q0 41 11 91q21 93 72.5 163t117.5 116t140 69t141 23q82 0 156 -34l12 13h104l-49 -57q40 -35 64 -85t24 -117q0 -41 -11 -91zM649 570
q-41 15 -85 15q-42 0 -88.5 -14.5t-88.5 -44t-74.5 -73.5t-45.5 -103q-7 -29 -7 -58q0 -38 12 -67t32 -51zM752 350q7 29 7 58q0 37 -12 66t-32 51l-344 -395q39 -15 84 -15q42 0 88.5 14.5t88.5 43.5t74 73.5t46 103.5z" />
    <glyph glyph-name="Ugrave" unicode="&#xd9;" horiz-adv-x="809" 
d="M576 891l86 -115l-33 -29l-109 94zM233 700h141l-97 -419q-5 -23 -5 -40q0 -32 13 -56.5t34.5 -40.5t50 -24t60.5 -8q36 0 73 10.5t68.5 31.5t55 53t33.5 74l97 419h141l-96 -419q-18 -77 -59.5 -134t-97.5 -95.5t-120 -57.5t-127 -19q-54 0 -103 14.5t-86.5 43.5
t-59.5 72t-22 101q0 34 9 75z" />
    <glyph glyph-name="Uacute" unicode="&#xda;" horiz-adv-x="809" 
d="M645 899l33 -51l-152 -93l-19 29zM233 700h141l-97 -419q-5 -23 -5 -40q0 -32 13 -56.5t34.5 -40.5t50 -24t60.5 -8q36 0 73 10.5t68.5 31.5t55 53t33.5 74l97 419h141l-96 -419q-18 -77 -59.5 -134t-97.5 -95.5t-120 -57.5t-127 -19q-54 0 -103 14.5t-86.5 43.5
t-59.5 72t-22 101q0 34 9 75z" />
    <glyph glyph-name="Ucircumflex" unicode="&#xdb;" horiz-adv-x="809" 
d="M485 765l94 110h54l43 -110h-54l-26 65l-57 -65h-54zM233 700h141l-97 -419q-5 -23 -5 -40q0 -32 13 -56.5t34.5 -40.5t50 -24t60.5 -8q36 0 73 10.5t68.5 31.5t55 53t33.5 74l97 419h141l-96 -419q-18 -77 -59.5 -134t-97.5 -95.5t-120 -57.5t-127 -19q-54 0 -103 14.5
t-86.5 43.5t-59.5 72t-22 101q0 34 9 75z" />
    <glyph glyph-name="Udieresis" unicode="&#xdc;" horiz-adv-x="809" 
d="M496 803q4 17 18 29t31 12q16 0 25.5 -12t5.5 -29q-4 -15 -19 -27t-30 -12q-17 0 -26 12t-5 27zM604 803q5 17 20 29t32 12q14 0 23 -12t4 -29q-3 -15 -17.5 -27t-28.5 -12q-17 0 -27 12t-6 27zM233 700h141l-97 -419q-5 -23 -5 -40q0 -32 13 -56.5t34.5 -40.5t50 -24
t60.5 -8q36 0 73 10.5t68.5 31.5t55 53t33.5 74l97 419h141l-96 -419q-18 -77 -59.5 -134t-97.5 -95.5t-120 -57.5t-127 -19q-54 0 -103 14.5t-86.5 43.5t-59.5 72t-22 101q0 34 9 75z" />
    <glyph glyph-name="Yacute" unicode="&#xdd;" horiz-adv-x="750" 
d="M616 899l33 -51l-153 -93l-19 29zM338 700l128 -302l268 302h165l-388 -416l-66 -284h-141l65 284l-196 416h165z" />
    <glyph glyph-name="Thorn" unicode="&#xde;" horiz-adv-x="718" 
d="M233 700h143l-29 -124h234q48 0 82.5 -13.5t57 -37t33 -54.5t10.5 -65q0 -14 -2 -28t-5 -28q-10 -42 -33.5 -83t-59.5 -72.5t-83 -51t-104 -19.5h-234l-29 -124h-143zM492 245q30 0 53.5 12t40 31t25.5 42.5t9 45.5q0 32 -19 55t-61 23h-221l-48 -209h221z" />
    <glyph glyph-name="germandbls" unicode="&#xdf;" horiz-adv-x="722" 
d="M53 1l114 491q14 62 46 107t73.5 74t89.5 43t95 14q41 0 78 -10.5t65.5 -30.5t45 -49.5t16.5 -66.5q0 -17 -5 -40q-8 -34 -26.5 -56t-38 -38t-35.5 -28.5t-19 -27.5q-3 -11 10.5 -19.5t34.5 -17.5t46.5 -20.5t47.5 -28t37 -40t15 -56.5q0 -18 -4 -35q-11 -49 -39 -84.5
t-65 -58.5t-80.5 -34t-85.5 -11q-62 0 -113.5 22t-71.5 64l88 80q12 -17 42 -28.5t65 -11.5q36 0 67.5 16t40.5 54q6 27 -6.5 45.5t-34 32.5t-48 25t-48.5 24t-35 29.5t-7 41.5q7 29 25.5 48t39 35t38.5 33t24 43q5 22 0.5 40t-16 31t-28.5 19.5t-37 6.5q-21 0 -43.5 -8.5
t-43 -26.5t-37 -46t-25.5 -68l-110 -480z" />
    <glyph glyph-name="agrave" unicode="&#xe0;" horiz-adv-x="671" 
d="M470 731l86 -115l-33 -29l-109 94zM767 540l-125 -540h-119l5 90q-47 -54 -104 -79.5t-114 -25.5q-43 0 -82 14t-68.5 41.5t-47 67.5t-17.5 91q0 17 1.5 34.5t6.5 36.5q16 67 52 120t83 90t100 56t103 19q56 0 100.5 -24.5t67.5 -76.5l20 86h138zM243 270q-6 -24 -6 -46
q0 -32 11 -55.5t29 -40t42 -24.5t50 -8q30 0 60.5 10.5t57.5 32t48 54.5t31 77q6 27 6 51q0 31 -10 54t-26.5 38t-39 22.5t-47.5 7.5q-31 0 -63.5 -11t-61 -33t-50 -54.5t-31.5 -74.5z" />
    <glyph glyph-name="aacute" unicode="&#xe1;" horiz-adv-x="671" 
d="M540 739l33 -51l-153 -93l-19 29zM767 540l-125 -540h-119l5 90q-47 -54 -104 -79.5t-114 -25.5q-43 0 -82 14t-68.5 41.5t-47 67.5t-17.5 91q0 17 1.5 34.5t6.5 36.5q16 67 52 120t83 90t100 56t103 19q56 0 100.5 -24.5t67.5 -76.5l20 86h138zM243 270q-6 -24 -6 -46
q0 -32 11 -55.5t29 -40t42 -24.5t50 -8q30 0 60.5 10.5t57.5 32t48 54.5t31 77q6 27 6 51q0 31 -10 54t-26.5 38t-39 22.5t-47.5 7.5q-31 0 -63.5 -11t-61 -33t-50 -54.5t-31.5 -74.5z" />
    <glyph glyph-name="acircumflex" unicode="&#xe2;" horiz-adv-x="671" 
d="M380 605l93 110h54l43 -110h-54l-26 65l-56 -65h-54zM767 540l-125 -540h-119l5 90q-47 -54 -104 -79.5t-114 -25.5q-43 0 -82 14t-68.5 41.5t-47 67.5t-17.5 91q0 17 1.5 34.5t6.5 36.5q16 67 52 120t83 90t100 56t103 19q56 0 100.5 -24.5t67.5 -76.5l20 86h138z
M243 270q-6 -24 -6 -46q0 -32 11 -55.5t29 -40t42 -24.5t50 -8q30 0 60.5 10.5t57.5 32t48 54.5t31 77q6 27 6 51q0 31 -10 54t-26.5 38t-39 22.5t-47.5 7.5q-31 0 -63.5 -11t-61 -33t-50 -54.5t-31.5 -74.5z" />
    <glyph glyph-name="atilde" unicode="&#xe3;" horiz-adv-x="671" 
d="M373 656q17 14 38 27.5t47 13.5q14 0 23.5 -4.5t16.5 -9.5t14 -9.5t17 -4.5t23.5 6t35.5 21l12 -42q-14 -11 -37.5 -22.5t-43.5 -11.5q-16 0 -26.5 4.5t-18 9.5t-13.5 9.5t-15 4.5q-10 0 -23.5 -7t-35.5 -25zM767 540l-125 -540h-119l5 90q-47 -54 -104 -79.5t-114 -25.5
q-43 0 -82 14t-68.5 41.5t-47 67.5t-17.5 91q0 17 1.5 34.5t6.5 36.5q16 67 52 120t83 90t100 56t103 19q56 0 100.5 -24.5t67.5 -76.5l20 86h138zM243 270q-6 -24 -6 -46q0 -32 11 -55.5t29 -40t42 -24.5t50 -8q30 0 60.5 10.5t57.5 32t48 54.5t31 77q6 27 6 51
q0 31 -10 54t-26.5 38t-39 22.5t-47.5 7.5q-31 0 -63.5 -11t-61 -33t-50 -54.5t-31.5 -74.5z" />
    <glyph glyph-name="adieresis" unicode="&#xe4;" horiz-adv-x="671" 
d="M390 643q4 17 18.5 29t31.5 12q15 0 24.5 -12t5.5 -29q-4 -15 -18.5 -27t-30.5 -12q-17 0 -26 12t-5 27zM499 643q4 17 19 29t32 12q14 0 23 -12t5 -29q-4 -15 -18.5 -27t-28.5 -12q-17 0 -26.5 12t-5.5 27zM767 540l-125 -540h-119l5 90q-47 -54 -104 -79.5t-114 -25.5
q-43 0 -82 14t-68.5 41.5t-47 67.5t-17.5 91q0 17 1.5 34.5t6.5 36.5q16 67 52 120t83 90t100 56t103 19q56 0 100.5 -24.5t67.5 -76.5l20 86h138zM243 270q-6 -24 -6 -46q0 -32 11 -55.5t29 -40t42 -24.5t50 -8q30 0 60.5 10.5t57.5 32t48 54.5t31 77q6 27 6 51
q0 31 -10 54t-26.5 38t-39 22.5t-47.5 7.5q-31 0 -63.5 -11t-61 -33t-50 -54.5t-31.5 -74.5z" />
    <glyph glyph-name="aring" unicode="&#xe5;" horiz-adv-x="671" 
d="M470 578q-37 0 -54 19t-17 45q0 18 7.5 36.5t22 33.5t34.5 24.5t46 9.5q36 0 52 -18.5t16 -44.5q0 -18 -7.5 -36.5t-21.5 -34t-33.5 -25t-44.5 -9.5zM498 701q-23 0 -35.5 -15.5t-12.5 -32.5q0 -11 7 -19.5t23 -8.5q22 0 34.5 15.5t12.5 32.5q0 11 -7 19.5t-22 8.5z
M767 540l-125 -540h-119l5 90q-47 -54 -104 -79.5t-114 -25.5q-43 0 -82 14t-68.5 41.5t-47 67.5t-17.5 91q0 17 1.5 34.5t6.5 36.5q16 67 52 120t83 90t100 56t103 19q56 0 100.5 -24.5t67.5 -76.5l20 86h138zM243 270q-6 -24 -6 -46q0 -32 11 -55.5t29 -40t42 -24.5t50 -8
q30 0 60.5 10.5t57.5 32t48 54.5t31 77q6 27 6 51q0 31 -10 54t-26.5 38t-39 22.5t-47.5 7.5q-31 0 -63.5 -11t-61 -33t-50 -54.5t-31.5 -74.5z" />
    <glyph glyph-name="ae" unicode="&#xe6;" horiz-adv-x="1064" 
d="M195 492q24 13 55 24t65 19.5t70.5 13t71.5 4.5q63 0 116.5 -17t80.5 -56q54 39 114.5 58.5t114.5 19.5q48 0 88.5 -14.5t70 -42.5t45.5 -68.5t16 -92.5q0 -37 -9 -80l-444 1q-4 -30 1.5 -58t21.5 -49t43.5 -34t66.5 -13q51 0 96 19t82 58l75 -83q-59 -56 -134 -88
t-153 -32q-41 0 -80.5 11t-72.5 33t-56.5 55t-32.5 77q-21 -38 -52.5 -67.5t-71 -50t-85 -32t-93.5 -12.5q-38 -1 -65.5 7.5t-45 23.5t-26 35.5t-8.5 44.5q0 37 20 77t57 73t90 53.5t118 18.5l104 -2h23t25 3t21.5 9.5t13.5 18.5q5 22 -2 37t-22 24t-37 13t-48 4
q-29 0 -60.5 -4.5t-61 -11.5t-55 -16t-42.5 -18zM980 349q-3 20 -11 39t-22 33.5t-34.5 23.5t-47.5 9q-63 0 -109.5 -30t-73.5 -75h298zM506 244q-33 -22 -82 -20l-100 1q-25 0 -45.5 -7t-35 -18.5t-22.5 -25.5t-8 -27q0 -18 17 -31t54 -11q25 1 59.5 10t67.5 25.5t59 41
t35 57.5z" />
    <glyph glyph-name="ccedilla" unicode="&#xe7;" horiz-adv-x="636" 
d="M103 269q16 72 56.5 126t93 90t111 54.5t111.5 18.5q79 0 139 -31t91 -88l-119 -87q-20 40 -54.5 58t-82.5 18q-50 0 -89 -18t-66.5 -46.5t-42 -63.5t-14.5 -68q0 -24 8 -46t25 -38.5t43 -26.5t62 -10q100 0 173 76l79 -86q-57 -55 -131.5 -87t-150.5 -33l-16 -24
q19 -7 27.5 -19.5t8.5 -27.5q0 -14 -6 -27.5t-16.5 -25t-25 -18.5t-31.5 -7t-30 4.5t-22 10.5q-11 6 -18 15l32 41q5 -13 16 -20t23 -7q9 0 17 5t11 15q5 13 -6 27t-43 15l29 46q-40 6 -76 22.5t-63.5 44t-44 65t-16.5 85.5q0 16 1.5 33t6.5 35z" />
    <glyph glyph-name="egrave" unicode="&#xe8;" horiz-adv-x="656" 
d="M462 731l86 -115l-33 -29l-109 94zM103 269q16 72 56.5 126t93 90t111 54.5t111.5 18.5q48 0 88.5 -14.5t69.5 -42.5t45.5 -69t16.5 -93q0 -37 -9 -79l-445 1q-4 -30 1.5 -58t21.5 -49t43.5 -34t67.5 -13q51 0 95.5 19t81.5 58l75 -83q-58 -56 -133.5 -88t-152.5 -32
q-46 0 -90 14t-78.5 41.5t-56 68.5t-21.5 96q0 16 1.5 33t6.5 35zM571 349q-3 20 -11 39t-22 33.5t-34.5 23.5t-47.5 9q-63 0 -109 -30t-74 -75h298z" />
    <glyph glyph-name="eacute" unicode="&#xe9;" horiz-adv-x="656" 
d="M532 739l33 -51l-153 -93l-19 29zM103 269q16 72 56.5 126t93 90t111 54.5t111.5 18.5q48 0 88.5 -14.5t69.5 -42.5t45.5 -69t16.5 -93q0 -37 -9 -79l-445 1q-4 -30 1.5 -58t21.5 -49t43.5 -34t67.5 -13q51 0 95.5 19t81.5 58l75 -83q-58 -56 -133.5 -88t-152.5 -32
q-46 0 -90 14t-78.5 41.5t-56 68.5t-21.5 96q0 16 1.5 33t6.5 35zM571 349q-3 20 -11 39t-22 33.5t-34.5 23.5t-47.5 9q-63 0 -109 -30t-74 -75h298z" />
    <glyph glyph-name="ecircumflex" unicode="&#xea;" horiz-adv-x="656" 
d="M372 605l93 110h54l43 -110h-54l-26 65l-56 -65h-54zM103 269q16 72 56.5 126t93 90t111 54.5t111.5 18.5q48 0 88.5 -14.5t69.5 -42.5t45.5 -69t16.5 -93q0 -37 -9 -79l-445 1q-4 -30 1.5 -58t21.5 -49t43.5 -34t67.5 -13q51 0 95.5 19t81.5 58l75 -83
q-58 -56 -133.5 -88t-152.5 -32q-46 0 -90 14t-78.5 41.5t-56 68.5t-21.5 96q0 16 1.5 33t6.5 35zM571 349q-3 20 -11 39t-22 33.5t-34.5 23.5t-47.5 9q-63 0 -109 -30t-74 -75h298z" />
    <glyph glyph-name="edieresis" unicode="&#xeb;" horiz-adv-x="656" 
d="M382 643q4 17 18.5 29t31.5 12q15 0 24.5 -12t5.5 -29q-4 -15 -18.5 -27t-30.5 -12q-17 0 -26 12t-5 27zM491 643q4 17 19 29t32 12q14 0 23 -12t5 -29q-4 -15 -18.5 -27t-28.5 -12q-17 0 -26.5 12t-5.5 27zM103 269q16 72 56.5 126t93 90t111 54.5t111.5 18.5
q48 0 88.5 -14.5t69.5 -42.5t45.5 -69t16.5 -93q0 -37 -9 -79l-445 1q-4 -30 1.5 -58t21.5 -49t43.5 -34t67.5 -13q51 0 95.5 19t81.5 58l75 -83q-58 -56 -133.5 -88t-152.5 -32q-46 0 -90 14t-78.5 41.5t-56 68.5t-21.5 96q0 16 1.5 33t6.5 35zM571 349q-3 20 -11 39
t-22 33.5t-34.5 23.5t-47.5 9q-63 0 -109 -30t-74 -75h298z" />
    <glyph glyph-name="igrave" unicode="&#xec;" horiz-adv-x="290" 
d="M280 731l86 -115l-33 -29l-109 94zM146 540h23q21 0 48 -2.5t50.5 -12t37 -27.5t6.5 -48l-64 -280q-2 -11 -4 -19t-2 -15q0 -16 9.5 -23t34.5 -7h7l-24 -106q-42 0 -75 3.5t-55.5 13t-34 26t-11.5 42.5q0 14 5 36l62 268q3 15 2.5 30t-17.5 15h-23z" />
    <glyph glyph-name="iacute" unicode="&#xed;" horiz-adv-x="290" 
d="M350 739l32 -51l-152 -93l-19 29zM146 540h23q21 0 48 -2.5t50.5 -12t37 -27.5t6.5 -48l-64 -280q-2 -11 -4 -19t-2 -15q0 -16 9.5 -23t34.5 -7h7l-24 -106q-42 0 -75 3.5t-55.5 13t-34 26t-11.5 42.5q0 14 5 36l62 268q3 15 2.5 30t-17.5 15h-23z" />
    <glyph glyph-name="icircumflex" unicode="&#xee;" horiz-adv-x="290" 
d="M189 605l94 110h54l43 -110h-54l-26 65l-57 -65h-54zM146 540h23q21 0 48 -2.5t50.5 -12t37 -27.5t6.5 -48l-64 -280q-2 -11 -4 -19t-2 -15q0 -16 9.5 -23t34.5 -7h7l-24 -106q-42 0 -75 3.5t-55.5 13t-34 26t-11.5 42.5q0 14 5 36l62 268q3 15 2.5 30t-17.5 15h-23z" />
    <glyph glyph-name="idieresis" unicode="&#xef;" horiz-adv-x="290" 
d="M200 643q4 17 18 29t31 12q16 0 25.5 -12t5.5 -29q-4 -15 -19 -27t-30 -12q-17 0 -26 12t-5 27zM308 643q5 17 20 29t32 12q14 0 23 -12t4 -29q-3 -15 -17.5 -27t-28.5 -12q-17 0 -26.5 12t-6.5 27zM146 540h23q21 0 48 -2.5t50.5 -12t37 -27.5t6.5 -48l-64 -280
q-2 -11 -4 -19t-2 -15q0 -16 9.5 -23t34.5 -7h7l-24 -106q-42 0 -75 3.5t-55.5 13t-34 26t-11.5 42.5q0 14 5 36l62 268q3 15 2.5 30t-17.5 15h-23z" />
    <glyph glyph-name="ntilde" unicode="&#xf1;" horiz-adv-x="722" 
d="M398 656q17 14 38.5 27.5t47.5 13.5q14 0 23 -4.5t16.5 -9.5t14 -9.5t16.5 -4.5t24 6t36 21l11 -42q-14 -11 -37.5 -22.5t-43.5 -11.5q-16 0 -26.5 4.5t-18 9.5t-13.5 9.5t-15 4.5q-10 0 -23.5 -7t-35.5 -25zM68 0l90 392q4 14 3.5 28t-17.5 14h-23l24 106h24
q20 0 46.5 -2.5t49 -11t37 -25t10.5 -44.5q38 40 91.5 67t119.5 27q97 0 146.5 -39.5t49.5 -118.5q0 -17 -2.5 -35.5t-7.5 -39.5l-34 -148q-5 -20 -5 -31q0 -17 10.5 -25t36.5 -8h7l-24 -106q-28 0 -59.5 2t-58 11t-44 28t-17.5 52q0 8 1 16.5t3 17.5l34 145q5 22 7.5 41
t2.5 36q0 48 -24.5 71.5t-84.5 23.5q-30 0 -60 -11t-55.5 -31.5t-44 -50.5t-27.5 -67l-66 -284h-139z" />
    <glyph glyph-name="ograve" unicode="&#xf2;" 
d="M487 731l86 -115l-33 -29l-109 94zM725 271q-17 -72 -57.5 -126t-93.5 -90t-112 -53.5t-113 -17.5q-47 0 -92.5 13.5t-81 41t-57.5 68.5t-22 97q0 29 8 67q17 72 58 125.5t94 89.5t112 53.5t113 17.5q47 0 92 -13.5t80.5 -40.5t57.5 -68t22 -96q0 -16 -1.5 -33t-6.5 -35z
M586 271q5 22 5 38q0 30 -12 52.5t-31.5 37.5t-44.5 22.5t-51 7.5q-30 0 -63 -10t-62 -29.5t-52 -49t-32 -69.5q-4 -17 -4 -37q0 -31 12 -54t31.5 -38t44.5 -22.5t51 -7.5q30 0 62.5 10t62 29.5t52 49.5t31.5 70z" />
    <glyph glyph-name="oacute" unicode="&#xf3;" 
d="M557 739l32 -51l-152 -93l-19 29zM725 271q-17 -72 -57.5 -126t-93.5 -90t-112 -53.5t-113 -17.5q-47 0 -92.5 13.5t-81 41t-57.5 68.5t-22 97q0 29 8 67q17 72 58 125.5t94 89.5t112 53.5t113 17.5q47 0 92 -13.5t80.5 -40.5t57.5 -68t22 -96q0 -16 -1.5 -33t-6.5 -35z
M586 271q5 22 5 38q0 30 -12 52.5t-31.5 37.5t-44.5 22.5t-51 7.5q-30 0 -63 -10t-62 -29.5t-52 -49t-32 -69.5q-4 -17 -4 -37q0 -31 12 -54t31.5 -38t44.5 -22.5t51 -7.5q30 0 62.5 10t62 29.5t52 49.5t31.5 70z" />
    <glyph glyph-name="ocircumflex" unicode="&#xf4;" 
d="M396 605l94 110h54l43 -110h-54l-26 65l-57 -65h-54zM725 271q-17 -72 -57.5 -126t-93.5 -90t-112 -53.5t-113 -17.5q-47 0 -92.5 13.5t-81 41t-57.5 68.5t-22 97q0 29 8 67q17 72 58 125.5t94 89.5t112 53.5t113 17.5q47 0 92 -13.5t80.5 -40.5t57.5 -68t22 -96
q0 -16 -1.5 -33t-6.5 -35zM586 271q5 22 5 38q0 30 -12 52.5t-31.5 37.5t-44.5 22.5t-51 7.5q-30 0 -63 -10t-62 -29.5t-52 -49t-32 -69.5q-4 -17 -4 -37q0 -31 12 -54t31.5 -38t44.5 -22.5t51 -7.5q30 0 62.5 10t62 29.5t52 49.5t31.5 70z" />
    <glyph glyph-name="otilde" unicode="&#xf5;" 
d="M390 656q17 14 38 27.5t47 13.5q14 0 23 -4.5t16.5 -9.5t14 -9.5t16.5 -4.5t24 6t36 21l12 -42q-14 -11 -37.5 -22.5t-44.5 -11.5q-16 0 -26 4.5t-17.5 9.5t-14 9.5t-15.5 4.5t-23 -7t-36 -25zM725 271q-17 -72 -57.5 -126t-93.5 -90t-112 -53.5t-113 -17.5
q-47 0 -92.5 13.5t-81 41t-57.5 68.5t-22 97q0 29 8 67q17 72 58 125.5t94 89.5t112 53.5t113 17.5q47 0 92 -13.5t80.5 -40.5t57.5 -68t22 -96q0 -16 -1.5 -33t-6.5 -35zM586 271q5 22 5 38q0 30 -12 52.5t-31.5 37.5t-44.5 22.5t-51 7.5q-30 0 -63 -10t-62 -29.5t-52 -49
t-32 -69.5q-4 -17 -4 -37q0 -31 12 -54t31.5 -38t44.5 -22.5t51 -7.5q30 0 62.5 10t62 29.5t52 49.5t31.5 70z" />
    <glyph glyph-name="odieresis" unicode="&#xf6;" 
d="M407 643q4 17 18 29t31 12q16 0 25.5 -12t5.5 -29q-4 -15 -19 -27t-30 -12q-17 0 -26 12t-5 27zM515 643q5 17 20 29t32 12q14 0 23 -12t4 -29q-3 -15 -17.5 -27t-28.5 -12q-17 0 -26.5 12t-6.5 27zM725 271q-17 -72 -57.5 -126t-93.5 -90t-112 -53.5t-113 -17.5
q-47 0 -92.5 13.5t-81 41t-57.5 68.5t-22 97q0 29 8 67q17 72 58 125.5t94 89.5t112 53.5t113 17.5q47 0 92 -13.5t80.5 -40.5t57.5 -68t22 -96q0 -16 -1.5 -33t-6.5 -35zM586 271q5 22 5 38q0 30 -12 52.5t-31.5 37.5t-44.5 22.5t-51 7.5q-30 0 -63 -10t-62 -29.5t-52 -49
t-32 -69.5q-4 -17 -4 -37q0 -31 12 -54t31.5 -38t44.5 -22.5t51 -7.5q30 0 62.5 10t62 29.5t52 49.5t31.5 70z" />
    <glyph glyph-name="divide" unicode="&#xf7;" horiz-adv-x="455" 
d="M288 515q6 25 26.5 41.5t45.5 16.5t37.5 -16.5t7.5 -41.5q-6 -25 -26.5 -42t-45.5 -17t-38 17t-7 42zM494 299h-395l8 37h395zM192 101q6 25 27 41.5t45 16.5q26 0 38.5 -16.5t6.5 -41.5q-5 -25 -26 -42t-46 -17q-24 0 -37 17t-8 42z" />
    <glyph glyph-name="oslash" unicode="&#xf8;" 
d="M725 271q-17 -72 -57.5 -126t-93.5 -90t-112 -53.5t-113 -17.5q-57 0 -111 20l-72 -83h-105l108 123q-33 27 -53 67t-20 93q0 29 8 67q17 72 58 125.5t94 89.5t112 53.5t113 17.5q30 0 59.5 -5.5t56.5 -16.5l75 86h104l-111 -127q31 -28 49.5 -66t18.5 -89
q0 -16 -1.5 -33t-6.5 -35zM499 423q-23 6 -47 6q-30 0 -63 -10t-62 -29.5t-52 -49t-32 -69.5q-4 -17 -4 -37q0 -47 28 -77zM586 271q2 11 3.5 20t1.5 18q0 42 -24 71l-230 -263q11 -2 20.5 -3.5t20.5 -1.5q30 0 62.5 10t62 29.5t52 49.5t31.5 70z" />
    <glyph glyph-name="ugrave" unicode="&#xf9;" 
d="M487 731l86 -115l-33 -29l-109 94zM191 540h139l-74 -317q-4 -16 -4 -32q0 -47 31.5 -70.5t75.5 -23.5q27 0 55 8.5t52.5 26t43 42.5t26.5 58l71 308h139l-85 -370q-2 -11 -4 -19t-2 -15q0 -16 9.5 -23t34.5 -7h7l-24 -106q-84 0 -129.5 16t-46.5 67q-44 -49 -101 -73.5
t-112 -24.5q-37 0 -70 11t-58 32.5t-40 54t-15 75.5q0 28 8 65z" />
    <glyph glyph-name="uacute" unicode="&#xfa;" 
d="M557 739l32 -51l-152 -93l-19 29zM191 540h139l-74 -317q-4 -16 -4 -32q0 -47 31.5 -70.5t75.5 -23.5q27 0 55 8.5t52.5 26t43 42.5t26.5 58l71 308h139l-85 -370q-2 -11 -4 -19t-2 -15q0 -16 9.5 -23t34.5 -7h7l-24 -106q-84 0 -129.5 16t-46.5 67q-44 -49 -101 -73.5
t-112 -24.5q-37 0 -70 11t-58 32.5t-40 54t-15 75.5q0 28 8 65z" />
    <glyph glyph-name="ucircumflex" unicode="&#xfb;" 
d="M396 605l94 110h54l43 -110h-54l-26 65l-57 -65h-54zM191 540h139l-74 -317q-4 -16 -4 -32q0 -47 31.5 -70.5t75.5 -23.5q27 0 55 8.5t52.5 26t43 42.5t26.5 58l71 308h139l-85 -370q-2 -11 -4 -19t-2 -15q0 -16 9.5 -23t34.5 -7h7l-24 -106q-84 0 -129.5 16t-46.5 67
q-44 -49 -101 -73.5t-112 -24.5q-37 0 -70 11t-58 32.5t-40 54t-15 75.5q0 28 8 65z" />
    <glyph glyph-name="udieresis" unicode="&#xfc;" 
d="M407 643q4 17 18 29t31 12q16 0 25.5 -12t5.5 -29q-4 -15 -19 -27t-30 -12q-17 0 -26 12t-5 27zM515 643q5 17 20 29t32 12q14 0 23 -12t4 -29q-3 -15 -17.5 -27t-28.5 -12q-17 0 -26.5 12t-6.5 27zM191 540h139l-74 -317q-4 -16 -4 -32q0 -47 31.5 -70.5t75.5 -23.5
q27 0 55 8.5t52.5 26t43 42.5t26.5 58l71 308h139l-85 -370q-2 -11 -4 -19t-2 -15q0 -16 9.5 -23t34.5 -7h7l-24 -106q-84 0 -129.5 16t-46.5 67q-44 -49 -101 -73.5t-112 -24.5q-37 0 -70 11t-58 32.5t-40 54t-15 75.5q0 28 8 65z" />
    <glyph glyph-name="yacute" unicode="&#xfd;" horiz-adv-x="697" 
d="M553 739l32 -51l-152 -93l-19 29zM197 540h138l-73 -317q-2 -9 -3 -17.5t-1 -16.5q0 -48 31 -71t75 -23q26 0 53.5 8.5t52 25t43 41t27.5 57.5l73 313h138l-108 -470q-18 -79 -57 -139t-94 -100.5t-124.5 -61t-148.5 -20.5q-51 0 -104.5 15t-93.5 38l57 126
q31 -24 82 -38.5t103 -14.5q57 0 97.5 13.5t69 38.5t46 60t27.5 78l3 11q-44 -47 -99.5 -70t-109.5 -23q-37 0 -70 11t-58 32.5t-39.5 54t-14.5 76.5q0 28 8 66z" />
    <glyph glyph-name="thorn" unicode="&#xfe;" horiz-adv-x="713" 
d="M734 270q-16 -68 -52 -121t-83 -89.5t-100.5 -55.5t-103.5 -19q-56 0 -100.5 24.5t-67.5 77.5l-54 -237h-139l184 800h140l-46 -198q46 53 102.5 78t112.5 25q43 0 82 -14.5t68.5 -41.5t47 -67t17.5 -91q0 -17 -1.5 -34.5t-6.5 -36.5zM594 270q6 24 6 46q0 31 -11 55
t-29 40t-42 24t-50 8q-30 0 -60.5 -10.5t-57.5 -32t-48 -54t-31 -76.5q-6 -29 -6 -51q0 -31 10 -54t26.5 -38.5t39 -23t47.5 -7.5q31 0 63 11t60.5 33t50.5 54.5t32 75.5z" />
    <glyph glyph-name="ydieresis" unicode="&#xff;" horiz-adv-x="697" 
d="M403 643q4 17 18 29t31 12q16 0 25.5 -12t5.5 -29q-4 -15 -19 -27t-30 -12q-17 0 -26 12t-5 27zM511 643q5 17 20 29t32 12q14 0 23 -12t4 -29q-3 -15 -17.5 -27t-28.5 -12q-17 0 -26.5 12t-6.5 27zM197 540h138l-73 -317q-2 -9 -3 -17.5t-1 -16.5q0 -48 31 -71t75 -23
q26 0 53.5 8.5t52 25t43 41t27.5 57.5l73 313h138l-108 -470q-18 -79 -57 -139t-94 -100.5t-124.5 -61t-148.5 -20.5q-51 0 -104.5 15t-93.5 38l57 126q31 -24 82 -38.5t103 -14.5q57 0 97.5 13.5t69 38.5t46 60t27.5 78l3 11q-44 -47 -99.5 -70t-109.5 -23q-37 0 -70 11
t-58 32.5t-39.5 54t-14.5 76.5q0 28 8 66z" />
    <glyph glyph-name="Dcroat" unicode="&#x110;" horiz-adv-x="829" 
d="M610 700q70 -1 120.5 -22.5t83.5 -57.5t48.5 -83t15.5 -99q0 -45 -10 -88q-15 -65 -50.5 -127.5t-89.5 -111.5t-124.5 -79.5t-155.5 -31.5h-377l78 339h-50l23 97h50l61 264h377zM346 579l-33 -143h294l-22 -97h-294l-50 -217h229q49 0 91 19.5t74 51.5t54 73t32 84
q8 35 8 66q0 33 -9 63t-28 52t-48 35t-69 13h-229z" />
    <glyph glyph-name="dcroat" unicode="&#x111;" horiz-adv-x="712" 
d="M103 270q16 67 52 120t83 90t100 56t103 19q56 0 100.5 -24.5t67.5 -76.5l33 146h-258l22 96h258l13 54h138l-12 -54h89l-23 -96l-88 -1l-99 -429q-2 -11 -4 -19t-2 -15q0 -16 9.5 -23t34.5 -7h7l-24 -106q-43 0 -76 3.5t-55.5 13.5t-34 27.5t-10.5 44.5
q-47 -54 -103.5 -79t-113.5 -25q-43 0 -82 14t-68.5 41.5t-47 67.5t-17.5 91q0 17 1.5 34.5t6.5 36.5zM243 270q-6 -24 -6 -46q0 -32 11 -55.5t29 -40t42 -24.5t50 -8q30 0 60.5 10.5t57.5 32t48 54.5t31 77q6 27 6 51q0 31 -10 54t-26.5 38t-39 22.5t-47.5 7.5
q-31 0 -63.5 -11t-61 -33t-50 -54.5t-31.5 -74.5z" />
    <glyph glyph-name="dotlessi" unicode="&#x131;" horiz-adv-x="290" 
d="M146 540h23q21 0 48 -2.5t50.5 -12t37 -27.5t6.5 -48l-64 -280q-2 -11 -4 -19t-2 -15q0 -16 9.5 -23t34.5 -7h7l-24 -106q-42 0 -75 3.5t-55.5 13t-34 26t-11.5 42.5q0 14 5 36l62 268q3 15 2.5 30t-17.5 15h-23z" />
    <glyph glyph-name="Lslash" unicode="&#x141;" horiz-adv-x="668" 
d="M125 234l-54 -18l-11 85l87 30l86 369h141l-73 -318l121 41l11 -86l-155 -52l-38 -164h445l-28 -121h-586z" />
    <glyph glyph-name="lslash" unicode="&#x142;" horiz-adv-x="277" 
d="M381 750l-86 -373l84 31l15 -83l-122 -46l-25 -109q-5 -22 -5 -34q0 -16 9.5 -23t33.5 -7h7l-23 -106q-42 0 -75 3.5t-55.5 13t-34.5 26t-12 42.5q0 14 5 36l23 101l-84 -32l-15 83l122 46l99 431h139z" />
    <glyph glyph-name="OE" unicode="&#x152;" horiz-adv-x="1220" 
d="M1140 121l-28 -121h-675q-60 0 -118.5 15t-104.5 47t-74.5 81.5t-28.5 119.5q0 38 11 87q21 93 73 159.5t119 109t142 62t144 19.5h668l-28 -121h-451l-39 -168h387l-28 -121h-387l-39 -169h457zM644 565h-76q-43 0 -90.5 -11.5t-89.5 -37t-74.5 -66.5t-45.5 -100
q-7 -28 -7 -54q0 -44 18 -74.5t47.5 -50t67 -28t75.5 -8.5h76z" />
    <glyph glyph-name="oe" unicode="&#x153;" horiz-adv-x="1141" 
d="M1113 101q-59 -56 -134 -88t-153 -32q-63 0 -120.5 25.5t-91.5 76.5q-58 -51 -128.5 -75.5t-134.5 -24.5q-47 0 -92.5 13.5t-81 41t-57.5 68.5t-22 96q0 29 8 67q17 72 58 126t94 90t112 53.5t113 17.5q64 0 123 -25t94 -76q58 51 127.5 77t132.5 26q48 0 88.5 -14.5
t70 -42.5t45.5 -68.5t16 -92.5q0 -37 -9 -80l-444 1q-4 -30 1.5 -58t21.5 -49t43.5 -34t66.5 -13q51 0 96 19t82 58zM1057 349q-3 20 -11 39t-22 33.5t-34.5 23.5t-47.5 9q-63 0 -109.5 -30t-73.5 -75h298zM588 269q2 11 3.5 20t1.5 18q0 30 -12 53t-31.5 38t-45 22.5
t-51.5 7.5q-30 0 -62.5 -10t-62 -29.5t-52 -49.5t-31.5 -70q-2 -10 -3 -19.5t-1 -17.5q0 -30 12 -53t31.5 -38t44.5 -22.5t51 -7.5q30 0 62.5 10t62 29.5t52 49t31.5 69.5z" />
    <glyph glyph-name="Scaron" unicode="&#x160;" horiz-adv-x="742" 
d="M475 865h54l26 -65l56 65h54l-93 -110h-55zM743 503q-18 21 -45.5 37.5t-60.5 28.5t-68 18t-68 6q-28 0 -55 -5t-48.5 -16t-37 -28.5t-21.5 -41.5q-6 -25 9 -40.5t42.5 -25.5t65.5 -17t78 -15t79 -19.5t70 -30t50 -46.5t19 -69q0 -22 -6 -47q-13 -57 -48.5 -97.5
t-85.5 -67t-110 -38.5t-121 -12q-50 0 -98.5 7.5t-91 21.5t-77 34t-56.5 46l100 115q18 -23 48.5 -41.5t67 -31t75.5 -19.5t75 -7q29 0 57 5t51 15.5t39 27t21 39.5q6 26 -8.5 42.5t-42 27.5t-65 18.5t-78 16t-79.5 20t-69.5 30t-49.5 46.5t-19 69q0 20 6 46q13 57 46.5 98
t80 66.5t102 37.5t112.5 12q46 0 92 -7t87 -20.5t75.5 -32.5t58.5 -42z" />
    <glyph glyph-name="scaron" unicode="&#x161;" horiz-adv-x="651" 
d="M393 705h54l26 -65l56 65h54l-93 -110h-55zM628 373q-15 15 -39.5 28t-54 22t-61.5 14.5t-62 5.5q-45 0 -79 -13.5t-41 -44.5q-5 -22 19 -33.5t63 -19.5t86.5 -16.5t88.5 -24t68.5 -42t27.5 -70.5q0 -19 -4 -36q-11 -45 -41 -77t-72 -53t-93.5 -30.5t-103.5 -9.5
q-43 0 -84 6t-77.5 17t-65.5 27t-48 36l88 103q14 -18 39 -32.5t55.5 -24t64 -15t65.5 -5.5q51 0 88.5 14t45.5 45q6 26 -17.5 38.5t-62 20.5t-85.5 15t-87.5 22t-68 41t-27.5 72q0 9 1.5 18t3.5 20q10 45 37.5 76.5t66 51.5t84.5 29t94 9q41 0 81 -6t76 -17t66 -26.5
t50 -34.5z" />
    <glyph glyph-name="Ydieresis" unicode="&#x178;" horiz-adv-x="750" 
d="M466 803q5 17 19 29t31 12q16 0 25.5 -12t4.5 -29q-3 -15 -18 -27t-30 -12q-17 0 -26 12t-6 27zM575 803q4 17 19 29t32 12q14 0 23 -12t5 -29q-4 -15 -18 -27t-28 -12q-17 0 -27 12t-6 27zM338 700l128 -302l268 302h165l-388 -416l-66 -284h-141l65 284l-196 416h165z
" />
    <glyph glyph-name="Zcaron" unicode="&#x17d;" horiz-adv-x="669" 
d="M439 865h54l26 -65l56 65h54l-93 -110h-55zM220 121h448l-28 -121h-611l28 121l529 458h-415l28 121h570l-28 -121h-1z" />
    <glyph glyph-name="zcaron" unicode="&#x17e;" horiz-adv-x="594" 
d="M364 705h54l26 -65l57 65h54l-94 -110h-54zM225 116h374l-27 -116h-551l27 116l428 308h-339l27 116h506l-26 -116z" />
    <glyph glyph-name="circumflex" unicode="&#x2c6;" horiz-adv-x="210" 
d="M149 605l94 110h54l43 -110h-54l-27 65l-56 -65h-54z" />
    <glyph glyph-name="caron" unicode="&#x2c7;" horiz-adv-x="210" 
d="M172 705h54l26 -65l57 65h54l-93 -110h-55z" />
    <glyph glyph-name="ring" unicode="&#x2da;" horiz-adv-x="208" 
d="M239 578q-37 0 -54 19t-17 45q0 18 7.5 36.5t22 33.5t34.5 24.5t46 9.5q36 0 52 -18.5t16 -44.5q0 -18 -7.5 -36.5t-21.5 -34t-33.5 -25t-44.5 -9.5zM267 701q-23 0 -35.5 -15.5t-12.5 -32.5q0 -11 7 -19.5t23 -8.5q22 0 34.5 15.5t12.5 32.5q0 11 -7 19.5t-22 8.5z" />
    <glyph glyph-name="tilde" unicode="&#x2dc;" horiz-adv-x="286" 
d="M181 656q17 14 38 27.5t47 13.5q14 0 23.5 -4.5t16.5 -9.5t14 -9.5t17 -4.5t23.5 6t35.5 21l12 -42q-14 -11 -37.5 -22.5t-43.5 -11.5q-16 0 -26.5 4.5t-18 9.5t-13.5 9.5t-15 4.5q-10 0 -23.5 -7t-35.5 -25z" />
    <glyph glyph-name="endash" unicode="&#x2013;" horiz-adv-x="416" 
d="M110 347h356l-21 -91h-356z" />
    <glyph glyph-name="emdash" unicode="&#x2014;" horiz-adv-x="644" 
d="M109 345h585l-22 -96h-585z" />
    <glyph glyph-name="quoteleft" unicode="&#x2018;" horiz-adv-x="226" 
d="M253 485h-112l144 215h74z" />
    <glyph glyph-name="quoteright" unicode="&#x2019;" horiz-adv-x="226" 
d="M247 700h112l-144 -215h-74z" />
    <glyph glyph-name="quotesinglbase" unicode="&#x201a;" horiz-adv-x="227" 
d="M115 130h113l-145 -215h-73z" />
    <glyph glyph-name="quotedblleft" unicode="&#x201c;" horiz-adv-x="395" 
d="M254 485h-113l144 215h75zM421 485h-113l144 215h75z" />
    <glyph glyph-name="quotedblright" unicode="&#x201d;" horiz-adv-x="395" 
d="M415 700h112l-144 -215h-75zM248 700h112l-144 -215h-75z" />
    <glyph glyph-name="quotedblbase" unicode="&#x201e;" horiz-adv-x="390" 
d="M115 130h113l-145 -215h-73zM278 130h112l-144 -215h-74z" />
    <glyph glyph-name="dagger" unicode="&#x2020;" horiz-adv-x="410" 
d="M415 700l-40 -174h127l-23 -99h-127l-117 -510h-99l118 510h-126l23 99h126l40 174h98z" />
    <glyph glyph-name="bullet" unicode="&#x2022;" horiz-adv-x="241" 
d="M110 350q4 18 15.5 34.5t27 29t34 20t36.5 7.5t32.5 -7.5t24.5 -20t13.5 -29t-0.5 -34.5q-4 -19 -15.5 -35.5t-27 -29t-33.5 -20t-36 -7.5q-38 0 -58.5 27t-12.5 65z" />
    <glyph glyph-name="guilsinglleft" unicode="&#x2039;" horiz-adv-x="275" 
d="M115 372l281 279l-31 -133l-171 -168l94 -168l-31 -132l-152 278z" />
    <glyph glyph-name="guilsinglright" unicode="&#x203a;" horiz-adv-x="275" 
d="M332 372l-11 -44l-280 -278l30 132l172 168l-94 168l31 133z" />
    <glyph glyph-name="Euro" unicode="&#x20ac;" horiz-adv-x="706" 
d="M231 466q27 51 66.5 96.5t90.5 79t112.5 53.5t132.5 20q56 0 105.5 -18.5t87.5 -52.5l-89 -100q-17 19 -49 34t-76 15q-80 0 -141 -36.5t-99 -90.5h158l-19 -82h-182q-12 -35 -15 -69h181l-19 -82h-157q14 -53 58 -89t123 -36q56 0 91.5 16.5t55.5 31.5l43 -100
q-51 -35 -103.5 -53t-122.5 -18q-71 0 -123 19.5t-87 53.5t-54 79t-22 96h-113l19 82h97q3 17 7 34.5t9 34.5h-97l19 82h112z" />
    <glyph glyph-name="trademark" unicode="&#x2122;" horiz-adv-x="409" 
d="M438 606l73 94h34l-43 -186h-40l21 93l-45 -58h-27l-18 58l-21 -93h-40l43 186h33zM283 663l-35 -149h-40l34 149h-59l8 37h160l-9 -37h-59z" />
    <glyph glyph-name="minus" unicode="&#x2212;" horiz-adv-x="481" 
d="M121 398h422l-23 -97h-421z" />
    <glyph glyph-name="a.salt" horiz-adv-x="671" 
d="M195 492q24 13 55 24t65.5 19.5t70.5 13t72 4.5q44 0 83.5 -8t69.5 -26t48 -46.5t18 -69.5q0 -24 -6 -51l-43 -182q-5 -22 -5 -34q0 -16 9.5 -23t33.5 -7h7l-24 -106q-47 0 -82 4.5t-57.5 16.5t-31 33.5t-2.5 56.5q-47 -54 -118 -84t-152 -32q-38 -1 -65.5 7.5t-45.5 24
t-26.5 36t-8.5 44.5q0 37 20 77t57 73t90 53t118 18l105 -2h22.5t24.5 2.5t21.5 9t13.5 18.5l1 1q5 22 -2 37t-22 24t-37 13t-48 4q-29 0 -60.5 -4.5t-61 -11.5t-55.5 -16t-43 -18zM507 244q-34 -22 -83 -20l-100 1q-25 0 -45.5 -7t-34.5 -18.5t-22 -25.5t-8 -27
q0 -18 16.5 -31t53.5 -11q25 1 59.5 10t67.5 25.5t59 41t35 57.5z" />
    <glyph glyph-name="d.salt" horiz-adv-x="712" 
d="M816 750l-173 -750h-120l5 90q-46 -54 -103.5 -79.5t-114.5 -25.5q-43 0 -82 14t-68.5 41t-47 66.5t-17.5 90.5q0 34 9 73q15 67 51 120t83.5 90t100.5 56t103 19q55 0 99.5 -24.5t67.5 -76.5l68 296h139zM243 270q-6 -24 -6 -46q0 -32 11 -55.5t29 -40t42 -24.5t50 -8
q30 0 60.5 10.5t57.5 32t48 54.5t31 77q6 27 6 51q0 31 -10 54t-26.5 38t-39 22.5t-47.5 7.5q-31 0 -63 -11t-60.5 -33t-50.5 -54.5t-32 -74.5z" />
    <glyph glyph-name="g.salt" horiz-adv-x="679" 
d="M656 340q-12 -51 -42 -90t-71 -65t-89 -39.5t-94 -13.5q-33 0 -64 7t-57 22q-14 -5 -17 -18q-4 -18 11.5 -27t44 -13t66 -5t77.5 -3t78.5 -7.5t69 -19t49.5 -36t19 -59.5q0 -9 -1.5 -18t-3.5 -20q-11 -45 -46 -80t-84.5 -58t-109 -35t-118.5 -12q-53 0 -101.5 9.5
t-86 29.5t-59.5 49.5t-22 70.5q0 19 4 35q8 38 37 61t64 38q-9 16 -9 38q0 15 4 30q8 35 32.5 60t49.5 39q-11 17 -17.5 38.5t-6.5 47.5q0 27 7 55q12 51 42 90t70.5 65t88 39.5t93.5 13.5q40 0 76 -10.5t63 -30.5q17 22 24.5 51t2.5 58l122 -5q1 -54 -25.5 -93.5
t-77.5 -68.5q13 -27 13 -67q0 -25 -6 -53zM286 345q-6 -26 0.5 -46t21 -33t35.5 -19.5t45 -6.5t48.5 6.5t45.5 19.5t36.5 33t21.5 46t-0.5 46t-21.5 33t-36 19.5t-45 6.5t-48.5 -6.5t-45 -19.5t-36 -33t-21.5 -46zM192 -7q-20 -5 -38 -16.5t-22 -29.5q-5 -21 8 -37t37 -26.5
t56.5 -15.5t67.5 -5q34 0 67 4.5t60.5 13.5t45.5 22.5t22 30.5t-8.5 25.5t-36.5 13t-56 5.5t-67 2t-70.5 3.5t-65.5 9.5z" />
    <glyph glyph-name="h.salt" horiz-adv-x="706" 
d="M69 0l173 750h139l-69 -300q36 43 89 72t123 29q96 0 145.5 -39.5t49.5 -118.5q0 -17 -2.5 -35.5t-7.5 -39.5l-73 -318h-139l63 272q10 41 10 76q0 48 -25 72t-85 24q-30 0 -59.5 -10.5t-55 -31t-44 -50t-27.5 -68.5l-66 -284h-139z" />
    <glyph glyph-name="i.salt" horiz-adv-x="262" 
d="M209 670q8 33 33 53t60 20t51.5 -20t8.5 -53q-8 -32 -33 -52t-60 -20t-51.5 20t-8.5 52zM61 0l125 540h139l-125 -540h-139z" />
    <glyph glyph-name="j.salt" horiz-adv-x="261" 
d="M209 670q8 33 33 53t60 20t51.5 -20t8.5 -53q-8 -32 -33 -52t-60 -20t-51.5 20t-8.5 52zM187 540h139l-163 -707h-139z" />
    <glyph glyph-name="k.salt" horiz-adv-x="730" 
d="M237 725h138l-90 -389l275 204h185l-277 -202l260 -338h-194l-186 249l-99 -73l-41 -176h-139z" />
    <glyph glyph-name="l.salt" horiz-adv-x="277" 
d="M243 750h138l-173 -750h-139z" />
    <glyph glyph-name="m.salt" horiz-adv-x="992" 
d="M69 0l125 540h120l-1 -76q32 38 76.5 62.5t100.5 24.5q143 0 162 -109q29 46 76.5 77.5t116.5 31.5q165 0 165 -145q0 -20 -2.5 -41.5t-8.5 -46.5l-74 -318h-139l68 295q9 40 9 70q0 38 -17.5 58.5t-57.5 20.5q-50 0 -88 -34.5t-58 -99.5l-72 -310l-139 1l68 294
q9 39 9 68q0 39 -18 60t-59 21q-55 0 -97 -41t-60 -119l-66 -284h-139z" />
    <glyph glyph-name="n.salt" horiz-adv-x="704" 
d="M208 0h-139l125 540h120l-2 -85q37 41 91 68.5t121 27.5q97 0 146.5 -39.5t49.5 -118.5q0 -17 -2.5 -35.5t-7.5 -39.5l-73 -318h-140l63 272q5 22 7.5 41t2.5 36q0 48 -24.5 71.5t-84.5 23.5q-30 0 -60 -11t-55.5 -31.5t-44 -50.5t-27.5 -67z" />
    <glyph glyph-name="p.salt" horiz-adv-x="714" 
d="M735 270q-16 -68 -52 -121t-83 -89.5t-100.5 -55.5t-103.5 -19q-56 0 -100.5 24.5t-67.5 77.5l-73 -317h-139l178 770h120l-6 -94q47 56 105 82.5t115 26.5q43 0 82 -14.5t68.5 -41.5t47 -67t17.5 -91q0 -17 -1.5 -34.5t-6.5 -36.5zM595 270q6 24 6 46q0 31 -11 55
t-29 40t-42 24t-50 8q-30 0 -60.5 -10.5t-57.5 -32t-48 -54t-31 -76.5q-6 -29 -6 -51q0 -31 10 -54t26.5 -38.5t39 -23t47.5 -7.5q31 0 63 11t60.5 33t50.5 54.5t32 75.5z" />
    <glyph glyph-name="r.salt" horiz-adv-x="506" 
d="M208 0h-139l125 540h120l-4 -94q38 44 88 73t107 29q49 0 99 -25l-57 -108q-24 10 -61 10q-31 0 -65 -8.5t-63.5 -25t-52 -41t-29.5 -57.5z" />
    <glyph glyph-name="u.salt" horiz-adv-x="691" 
d="M191 540h139l-73 -317q-4 -16 -4 -33q0 -47 31.5 -70t75.5 -23q27 0 55 8.5t52.5 26t42.5 42.5t26 58l71 308h139l-125 -540h-138l18 77q-44 -46 -99 -69t-109 -23q-37 0 -70 11t-58 32.5t-40 54t-15 76.5q0 15 2 31t6 33z" />
    <glyph glyph-name="y.salt" horiz-adv-x="708" 
d="M427 2q-38 -54 -80 -99.5t-85.5 -78.5t-87 -51.5t-84.5 -18.5q-25 0 -47.5 4.5t-41 11.5t-32.5 14.5t-21 13.5l63 114q4 -3 13.5 -8.5t22.5 -10.5t28.5 -9t30.5 -4q22 0 45 9t45.5 24.5t44 35.5t40.5 41h-7l-137 550h152l87 -420l281 420h152z" />
    </font>
</defs>
</svg>
