<?xml version="1.0" standalone="no"?>
<!DOCTYPE svg PUBLIC "-//W3C//DTD SVG 1.1//EN" "http://www.w3.org/Graphics/SVG/1.1/DTD/svg11.dtd" >
<svg xmlns="http://www.w3.org/2000/svg" xmlns:xlink="http://www.w3.org/1999/xlink" version="1.1">
<metadata>
Created by FontForge 20201107 at Sat Dec  5 09:28:03 2020
 By 
Copyright (c) 2020 by Sarid Ezra. All rights reserved.
</metadata>
<defs>
<font id="Ezra-Italic" horiz-adv-x="850" >
  <font-face 
    font-family="Ezra"
    font-weight="400"
    font-style="italic"
    font-stretch="normal"
    units-per-em="1000"
    panose-1="0 0 0 0 0 0 0 0 0 0"
    ascent="750"
    descent="-250"
    x-height="540"
    cap-height="700"
    bbox="-108 -251 1331 885"
    underline-thickness="50"
    underline-position="-125"
    unicode-range="U+000D-FB01"
  />
<missing-glyph horiz-adv-x="500" 
 />
    <glyph glyph-name="fi" unicode="fi" horiz-adv-x="596" 
d="M431 0l108 466h-240l-108 -466h-91l108 466h-81l12 57l91 14q-15 30 -15 61q0 8 1 16t3 16q7 31 30 56t55.5 42.5t72 27t79.5 9.5q33 0 65 -7t58.5 -22t46.5 -38.5t29 -55.5l-79 -41q-17 48 -56 68.5t-84 20.5q-24 0 -47.5 -6t-42.5 -16.5t-32.5 -26t-17.5 -34.5
q-4 -17 0.5 -35t18.5 -32h329l-125 -540h-88z" />
    <glyph glyph-name=".notdef" horiz-adv-x="500" 
 />
    <glyph glyph-name="uni0000" horiz-adv-x="0" 
 />
    <glyph glyph-name="uni0000" horiz-adv-x="0" 
 />
    <glyph glyph-name="uni000D" unicode="&#xd;" horiz-adv-x="250" 
 />
    <glyph glyph-name="space" unicode=" " horiz-adv-x="328" 
 />
    <glyph glyph-name="exclam" unicode="!" horiz-adv-x="179" 
d="M203 700h93l-139 -534h-61zM48 47q5 23 23.5 37.5t39.5 14.5q23 0 34 -14.5t6 -37.5q-5 -21 -23 -36.5t-40 -15.5t-33.5 15.5t-6.5 36.5z" />
    <glyph glyph-name="quotedbl" unicode="&#x22;" horiz-adv-x="347" 
d="M239 709h88l-127 -211h-53zM386 709h87l-126 -211h-53z" />
    <glyph glyph-name="numbersign" unicode="#" horiz-adv-x="802" 
d="M486 193h-202l-136 -193h-76l137 193h-128l16 68h161l115 162h-183l16 67h215l149 210h74l-148 -210h201l149 210h75l-149 -210h104l-15 -67h-137l-115 -162h156l-15 -68h-189l-137 -193h-75zM534 261l115 162h-201l-115 -162h201z" />
    <glyph glyph-name="dollar" unicode="$" horiz-adv-x="755" 
d="M594 750l-16 -68q82 -5 151.5 -29t104.5 -63l-68 -65q-26 31 -83 50.5t-124 24.5l-53 -230q46 -7 90.5 -16t79.5 -25.5t56.5 -42.5t21.5 -67q0 -16 -5 -39q-11 -48 -43 -84t-77.5 -61t-100.5 -38.5t-112 -16.5l-10 -42h-61l10 41q-46 2 -89.5 9.5t-80 21t-65 32.5
t-44.5 43l73 61q11 -18 33.5 -32.5t52.5 -25.5t65.5 -17.5t73.5 -8.5l54 236q-44 6 -87 15t-76.5 25t-54 41t-20.5 64q0 14 5 37q12 51 43.5 88t75 61.5t96 37.5t107.5 15l16 68h61zM498 600q-38 -2 -73 -10t-63.5 -22.5t-48.5 -37t-27 -52.5q-6 -25 5 -42t33.5 -28t54 -18
t68.5 -12zM435 62q40 2 77 10.5t67 23t51 35.5t27 50q6 28 -5 46t-35 30t-58 19t-72 13z" />
    <glyph glyph-name="percent" unicode="%" horiz-adv-x="821" 
d="M306 429q-34 0 -58.5 9t-40 24.5t-23 36t-7.5 43.5q0 31 13.5 63.5t39 58.5t62 43t82.5 17q34 0 59 -9t41 -25t23.5 -36.5t7.5 -43.5q0 -31 -13.5 -63t-39.5 -58.5t-63 -43t-83 -16.5zM894 700l-735 -700h-82l734 700h83zM360 665q-27 0 -48.5 -10t-36.5 -26t-23 -35.5
t-8 -38.5q0 -27 18 -47t57 -20q28 0 50 10t37.5 25.5t23.5 35t8 38.5q0 27 -18.5 47.5t-59.5 20.5zM616 0q-34 0 -58.5 9t-40 24.5t-23 36t-7.5 43.5q0 31 13.5 63.5t39 58.5t62 43t82.5 17q34 0 59 -9t41 -25t23.5 -36.5t7.5 -43.5q0 -31 -13.5 -63t-39.5 -58.5t-63 -43
t-83 -16.5zM670 237q-27 0 -49 -10t-37 -26t-23 -36t-8 -39q0 -28 18 -48t58 -20q28 0 50.5 10t38 26t23.5 35.5t8 38.5q0 28 -18.5 48.5t-60.5 20.5z" />
    <glyph glyph-name="ampersand" unicode="&#x26;" horiz-adv-x="821" 
d="M684 -6l-20 20q-10 10 -23 23.5t-28 30.5q-67 -51 -143 -76t-148 -25q-50 0 -94.5 12t-77.5 35t-52 57.5t-19 79.5q0 24 6 51q11 48 39 83.5t66 63.5t83.5 49t91.5 39q-20 57 -20 105q0 23 4 40q8 34 29 60.5t49.5 43.5t61.5 26t65 9q28 0 53 -6.5t44 -19.5t30.5 -32.5
t11.5 -46.5q0 -16 -4 -31q-8 -34 -27.5 -60t-48 -47t-63.5 -38.5t-72 -32.5q29 -54 69 -109.5t82 -106.5q28 35 47 79.5t26 98.5l86 7q-11 -76 -39.5 -136.5t-69.5 -107.5q26 -29 48 -53.5t39 -41.5q19 -20 36 -37zM449 469q61 24 105 50.5t53 65.5q4 17 -0.5 29.5t-14 21
t-24 13t-30.5 4.5t-33 -4.5t-31.5 -13.5t-25.5 -23t-15 -33q-5 -23 -0.5 -51t16.5 -59zM393 374q-39 -15 -75 -31.5t-65 -37t-49.5 -45t-27.5 -56.5q-4 -15 -4 -32q0 -29 13 -51.5t36 -37.5t54 -23t66 -8q54 0 112 18.5t109 56.5q-45 52 -90.5 116.5t-78.5 130.5z" />
    <glyph glyph-name="quotesingle" unicode="'" horiz-adv-x="183" 
d="M320 709l-120 -211h-53l86 211h87z" />
    <glyph glyph-name="parenleft" unicode="(" horiz-adv-x="265" 
d="M177 -40q-42 38 -61 98.5t-19 132.5q0 71 17.5 147.5t50.5 147.5t80 131t106 98l34 -36q-47 -35 -86 -92.5t-67 -125t-43 -140t-15 -138.5q0 -59 12.5 -107t41.5 -80l-51 -36v0z" />
    <glyph glyph-name="parenright" unicode=")" horiz-adv-x="265" 
d="M36 -4q48 35 87 92t66.5 124.5t43 140t15.5 138.5q0 59 -13 107.5t-41 80.5l51 36q41 -38 60 -98t19 -132q0 -71 -18 -148t-51 -148t-80 -131t-105 -98z" />
    <glyph glyph-name="asterisk" unicode="*" horiz-adv-x="327" 
d="M429 601l-94 -13l46 -66l-61 -39l-27 83l-63 -81l-43 38l74 65l-86 10l33 64l75 -38l8 76h65l-26 -75l94 38z" />
    <glyph glyph-name="plus" unicode="+" horiz-adv-x="465" 
d="M126 387h158l35 149h75l-35 -149h159l-17 -73h-158l-37 -161h-76l37 161h-158z" />
    <glyph glyph-name="comma" unicode="," horiz-adv-x="224" 
d="M108 97h96l-162 -201h-61z" />
    <glyph glyph-name="hyphen" unicode="-" horiz-adv-x="529" 
d="M126 387h456l-17 -73h-456z" />
    <glyph glyph-name="period" unicode="." horiz-adv-x="195" 
d="M57 47q5 23 23.5 37.5t40.5 14.5t33 -14.5t6 -37.5q-5 -21 -23 -36.5t-40 -15.5t-33.5 15.5t-6.5 36.5z" />
    <glyph glyph-name="slash" unicode="/" horiz-adv-x="600" 
d="M724 700l-610 -700h-77l610 700h77z" />
    <glyph glyph-name="zero" unicode="0" horiz-adv-x="777" 
d="M129 350q21 92 66.5 161t104 115t125 69t130.5 23q54 0 102.5 -16.5t85 -49.5t58 -82.5t21.5 -115.5q0 -24 -2.5 -50t-9.5 -54q-21 -92 -66.5 -161t-104 -115t-124.5 -69t-130 -23q-54 0 -103 16.5t-85.5 49.5t-58.5 82.5t-22 115.5q0 24 3 50t10 54zM217 350
q-5 -22 -7.5 -42t-2.5 -38q0 -50 16 -87.5t43.5 -62.5t63.5 -37.5t76 -12.5q47 0 96.5 17.5t93 52.5t77.5 87.5t50 122.5q10 43 10 82q0 50 -16 87.5t-43 62t-63 37t-76 12.5q-48 0 -97.5 -17.5t-93 -53t-77.5 -88t-50 -122.5z" />
    <glyph glyph-name="one" unicode="1" horiz-adv-x="361" 
d="M445 711l-164 -711h-92l133 574l-141 -99l-31 51l253 185h42z" />
    <glyph glyph-name="two" unicode="2" horiz-adv-x="575" 
d="M560 517q6 27 -1.5 48.5t-25 36t-43.5 22t-56 7.5q-26 0 -53 -6t-54 -18t-52 -30.5t-46 -43.5l-31 74q51 56 120.5 83t136.5 27q41 0 78 -10t64.5 -29t44 -47.5t16.5 -65.5q0 -18 -5 -41q-13 -55 -46.5 -96.5t-79 -75.5t-98.5 -63.5t-104 -60.5t-96 -66.5t-74 -80.5h400
l-19 -81h-415h-82q17 75 59.5 130.5t97 98t114.5 76.5t112 66.5t90 67t48 78.5z" />
    <glyph glyph-name="three" unicode="3" horiz-adv-x="651" 
d="M315 352l16 67q70 -2 121 10t84 32t49 44.5t16 48.5q0 34 -31 59.5t-90 25.5q-54 0 -110.5 -22.5t-104.5 -70.5l-46 49q63 64 136 93t138 29q50 0 88 -12t63.5 -32.5t38.5 -47t13 -55.5q0 -51 -38 -101t-116 -82q57 -25 83.5 -64.5t26.5 -84.5t-24.5 -90.5t-69.5 -82.5
t-108.5 -60t-141.5 -23q-39 0 -76.5 8.5t-69 26.5t-56 45.5t-38.5 65.5l73 59q28 -63 81 -90t113 -27q49 0 89.5 14t69.5 36t45 50t16 56q0 24 -13 47t-40.5 40.5t-70.5 28t-104 10.5h-12z" />
    <glyph glyph-name="four" unicode="4" horiz-adv-x="650" 
d="M587 176l-40 -176l-92 -1l40 177h-426l19 81l576 444l44 -1l-102 -443h75l-19 -81h-75zM514 257l68 294l-384 -294h316z" />
    <glyph glyph-name="five" unicode="5" horiz-adv-x="670" 
d="M154 333l131 367h450l-19 -82h-373l-70 -194q45 14 87 20.5t84 6.5q61 0 105 -14.5t73 -39t43 -57t14 -68.5q0 -50 -25 -101.5t-72.5 -93.5t-115.5 -69t-153 -27q-41 0 -78.5 9t-68 27.5t-53.5 47.5t-33 69l88 38q4 -27 19 -47t36.5 -32.5t48.5 -18.5t57 -6
q59 0 106.5 17.5t80.5 44.5t51 60.5t18 66.5q0 24 -10 45.5t-31 38t-53.5 26t-77.5 9.5t-96.5 -13t-103.5 -39z" />
    <glyph glyph-name="six" unicode="6" horiz-adv-x="728" 
d="M376 -15q-68 0 -117 21t-81 56.5t-47 83t-15 100.5q0 78 30.5 160.5t87 150t136 111t177.5 43.5q60 0 103.5 -12t73 -29.5t46.5 -36.5t23 -32l-70 -54q-5 9 -17.5 23t-36.5 27.5t-59.5 23.5t-84.5 10q-56 0 -105 -21.5t-88 -57.5t-67.5 -82.5t-44.5 -95.5q43 38 112 66
t172 28q61 0 105.5 -15t73 -40t42 -58.5t13.5 -70.5q0 -51 -25 -104.5t-71.5 -96.5t-114 -70.5t-151.5 -27.5zM485 388q-66 0 -117 -16.5t-85.5 -43t-52 -59.5t-17.5 -66q0 -26 11 -49.5t34 -41.5t57.5 -28.5t81.5 -10.5q58 0 105 18t79.5 46t50 63t17.5 68q0 24 -9.5 45.5
t-29.5 38t-51 26.5t-74 10z" />
    <glyph glyph-name="seven" unicode="7" horiz-adv-x="652" 
d="M636 619h-464l18 81h594l-6 -27l-561 -673h-104z" />
    <glyph glyph-name="eight" unicode="8" horiz-adv-x="711" 
d="M222 538q9 40 35.5 72.5t65.5 55.5t89.5 36t108.5 13q104 0 162.5 -38.5t58.5 -104.5q0 -18 -4 -34q-12 -51 -50 -88.5t-95 -59.5q63 -20 97 -58t34 -92q0 -18 -5 -41q-11 -48 -43 -87.5t-80 -67.5t-110 -43.5t-134 -15.5q-64 0 -114.5 12.5t-86 35t-54 54.5t-18.5 71
q0 18 5 41q16 69 72.5 118t142.5 73q-39 18 -60 47t-21 67q0 18 4 34zM455 431q47 0 83.5 11t62 28t38.5 39t13 43q0 35 -36 61t-113 26q-48 0 -84.5 -10.5t-62 -27.5t-38.5 -38.5t-13 -42.5q0 -17 9 -33t27.5 -28.5t47 -20t66.5 -7.5zM372 70q62 0 110 14t81 36.5
t50.5 50.5t17.5 56q0 22 -11.5 43t-35.5 36.5t-61 25t-88 9.5q-63 0 -111.5 -14t-81.5 -36.5t-50 -50t-17 -55.5q0 -23 12 -43.5t36 -36.5t61 -25.5t88 -9.5z" />
    <glyph glyph-name="nine" unicode="9" horiz-adv-x="728" 
d="M512 711q68 0 117 -21t81 -56.5t47 -83t15 -100.5q0 -78 -30.5 -160.5t-87 -150t-136 -111t-177.5 -43.5q-60 0 -103.5 12t-73 29.5t-46.5 36t-23 32.5l70 54q4 -9 17 -23t36.5 -27.5t59 -23.5t85.5 -10q56 0 104.5 21.5t88 57.5t68 82t44.5 96q-43 -38 -112.5 -66
t-171.5 -28q-61 0 -105.5 15t-73 40t-42 58.5t-13.5 70.5q0 51 25 104.5t71.5 96.5t114 70.5t151.5 27.5zM403 308q66 0 116.5 17t85 43.5t52 59.5t17.5 66q0 25 -11 48.5t-34 41.5t-57.5 28.5t-80.5 10.5q-59 0 -105.5 -18t-79 -46t-50 -63t-17.5 -68q0 -24 9.5 -46
t29.5 -38.5t51 -26t74 -9.5z" />
    <glyph glyph-name="colon" unicode=":" horiz-adv-x="175" 
d="M146 473q5 22 23.5 36.5t40.5 14.5t33 -14.5t6 -36.5t-23 -37.5t-40 -15.5t-33.5 15.5t-6.5 37.5zM55 47q5 23 23.5 37.5t40.5 14.5t33.5 -14.5t6.5 -37.5q-5 -21 -23.5 -36.5t-40.5 -15.5t-33.5 15.5t-6.5 36.5z" />
    <glyph glyph-name="semicolon" unicode=";" horiz-adv-x="241" 
d="M179 427q5 22 23.5 36.5t40.5 14.5t33.5 -14.5t6.5 -36.5t-23.5 -37t-40.5 -15t-33.5 15t-6.5 37zM130 97h96l-146 -175h-60z" />
    <glyph glyph-name="less" unicode="&#x3c;" horiz-adv-x="326" 
d="M319 128l-210 183l15 66l295 183l-20 -85l-221 -131l161 -131z" />
    <glyph glyph-name="equal" unicode="=" horiz-adv-x="456" 
d="M141 451h382l-17 -73h-382zM107 302h382l-17 -73h-382z" />
    <glyph glyph-name="greater" unicode="&#x3e;" horiz-adv-x="326" 
d="M361 311l-295 -183l20 85l221 131l-161 131l20 85l210 -183z" />
    <glyph glyph-name="question" unicode="?" horiz-adv-x="583" 
d="M574 520q4 15 4 30q0 22 -9 38t-25 26.5t-37 15.5t-46 5q-30 0 -64 -7.5t-66.5 -22t-62.5 -35t-53 -46.5l-41 64q28 30 64 53.5t75.5 39t81 23.5t80.5 8q40 0 75.5 -9t62 -27t42 -45.5t15.5 -64.5q0 -11 -1 -22t-4 -23q-13 -57 -41 -92t-63.5 -58.5t-74.5 -40.5
t-73.5 -38t-61.5 -50.5t-38 -78.5h-62q13 62 39.5 101t59 64t68 42t67 36t55.5 45t34 69zM206 47q5 22 23.5 37t40.5 15t33.5 -15t6.5 -37t-23.5 -37t-40.5 -15q-21 0 -33 15t-7 37z" />
    <glyph glyph-name="at" unicode="@" horiz-adv-x="723" 
d="M583 478l-25 -108q-5 -23 -10 -49t-5 -50q0 -29 11 -48t42 -19q25 0 47 15.5t38.5 41.5t26 59t9.5 68q0 36 -11.5 71t-37 62t-67 44t-100.5 17q-81 0 -145.5 -32t-109.5 -82.5t-69 -112t-24 -120.5q0 -42 13 -80t40 -66.5t68.5 -45t98.5 -16.5q63 0 123.5 26.5
t106.5 75.5l27 -41q-61 -54 -129.5 -82.5t-139.5 -28.5q-69 0 -118.5 20t-82 53.5t-48 78t-15.5 94.5q0 70 29 142.5t82.5 131.5t130.5 96.5t173 37.5q69 0 118 -20t80 -52.5t45.5 -74.5t14.5 -86t-13.5 -86.5t-37.5 -75.5t-58 -53.5t-75 -20.5q-45 0 -66 16.5t-29 42.5
q-22 -33 -53 -55t-75 -22t-63.5 30t-19.5 74q0 38 13 80t36.5 77.5t55.5 58.5t70 23q44 0 71 -27l4 18h53zM504 364q3 35 -14 55t-46 20q-23 0 -42.5 -18t-34 -45.5t-23 -59.5t-8.5 -59t9 -45.5t30 -18.5q25 0 46 17t36.5 42.5t27 55t19.5 55.5v1z" />
    <glyph glyph-name="A" unicode="A" horiz-adv-x="795" 
d="M519 710h86l172 -710h-94l-30 121h-455l-86 -121h-93zM633 203l-98 391l-279 -391h377z" />
    <glyph glyph-name="B" unicode="B" horiz-adv-x="722" 
d="M79 0l161 700h330q43 0 74 -12t51 -32t29.5 -46t9.5 -55q0 -11 -1.5 -22t-3.5 -22q-8 -37 -29.5 -72t-54.5 -61q38 -20 56 -55t18 -77q0 -25 -6 -49q-9 -37 -29.5 -72.5t-52 -63t-73.5 -44.5t-92 -17h-387zM492 399q30 0 54.5 9.5t43.5 25t31 35.5t17 41q4 21 1 41
t-14 36t-31 25.5t-50 9.5h-233l-51 -223h232zM476 81q30 0 55 10.5t44 27t31.5 38t17.5 44.5q2 8 3 15t1 15q0 36 -23 63t-73 27h-290l-56 -240h290z" />
    <glyph glyph-name="C" unicode="C" horiz-adv-x="754" 
d="M129 350q21 92 70 161t112 114.5t132.5 68.5t131.5 23q88 0 158 -38.5t105 -111.5l-78 -61q-14 28 -36 51.5t-49 39.5t-58 25t-61 9q-68 0 -124.5 -24t-100 -64t-72 -90.5t-40.5 -102.5q-5 -18 -6.5 -36.5t-1.5 -35.5q0 -42 12.5 -80t39 -66.5t67 -45t97.5 -16.5
q33 0 68.5 9.5t69 26.5t65 40.5t57.5 50.5l51 -63q-35 -36 -76 -64t-84.5 -47.5t-87.5 -29.5t-85 -10q-54 0 -105.5 17t-92 51t-65 85t-24.5 120q0 22 2.5 45t8.5 49z" />
    <glyph glyph-name="D" unicode="D" horiz-adv-x="806" 
d="M592 700q67 -1 115.5 -22.5t80 -56.5t46.5 -81.5t15 -98.5q0 -23 -3 -45.5t-8 -45.5q-15 -65 -50 -127t-87 -111t-120.5 -80t-150.5 -32h-351l161 700h352zM310 618l-123 -535h255q60 0 110.5 23t89.5 60.5t65 85.5t38 98q9 37 9 74q0 39 -11 74.5t-34 62t-58.5 42
t-84.5 15.5h-256z" />
    <glyph glyph-name="E" unicode="E" horiz-adv-x="688" 
d="M240 700h566l-18 -81h-478l-52 -228h415l-18 -81h-416l-53 -229h484l-19 -81h-572z" />
    <glyph glyph-name="F" unicode="F" horiz-adv-x="662" 
d="M240 700h565l-19 -81h-476l-61 -264h414l-18 -82h-414l-63 -273h-89z" />
    <glyph glyph-name="G" unicode="G" horiz-adv-x="773" 
d="M705 0h-57l-1 83q-55 -48 -118.5 -74t-123.5 -26q-54 0 -105.5 17t-92 51t-65 85t-24.5 120q0 22 2.5 45t8.5 49q21 92 70 161t112 114.5t132.5 68.5t131.5 23q88 0 158 -38.5t105 -111.5l-80 -60q-14 28 -35.5 51t-48.5 39t-57.5 24.5t-60.5 8.5q-68 0 -124.5 -24
t-100 -63.5t-72 -90t-40.5 -102.5q-5 -18 -6.5 -36.5t-1.5 -35.5q0 -42 12.5 -80t39 -66.5t67 -45t97.5 -16.5q47 0 89 17.5t75.5 47t57 68.5t34.5 83l6 24h-172l17 72h259z" />
    <glyph glyph-name="H" unicode="H" horiz-adv-x="788" 
d="M240 700h89l-71 -309h453l72 309h89l-162 -700h-89l71 310h-453l-71 -310h-89z" />
    <glyph glyph-name="I" unicode="I" horiz-adv-x="247" 
d="M240 700h89l-161 -700h-89z" />
    <glyph glyph-name="J" unicode="J" horiz-adv-x="528" 
d="M522 700h89l-108 -466q-16 -70 -49 -118.5t-74.5 -79t-88.5 -44.5t-92 -14q-54 0 -97.5 18t-63.5 48l47 85q21 -28 56 -44t76 -16q30 0 61 10t58 31t48.5 54.5t32.5 81.5z" />
    <glyph glyph-name="K" unicode="K" horiz-adv-x="750" 
d="M358 309l-148 -124l-42 -185h-89l161 700h89l-88 -383l464 383h119l-393 -330l300 -370h-124z" />
    <glyph glyph-name="L" unicode="L" horiz-adv-x="657" 
d="M240 700h89l-143 -619h471l-18 -81h-560z" />
    <glyph glyph-name="M" unicode="M" horiz-adv-x="938" 
d="M240 700h89l172 -561l431 561h89l-162 -700h-89l122 527l-406 -527h-34l-163 527l-121 -527h-89z" />
    <glyph glyph-name="N" unicode="N" horiz-adv-x="816" 
d="M240 700h89l349 -571l132 571h89l-161 -700h-89l-349 572l-132 -572h-89z" />
    <glyph glyph-name="O" unicode="O" 
d="M880 350q-21 -92 -71.5 -161t-115 -115t-136.5 -68.5t-136 -22.5q-56 0 -110 17t-96 51.5t-68 86.5t-26 121q0 21 2.5 43.5t8.5 47.5q21 93 71 161.5t114.5 114.5t136.5 68.5t137 22.5q56 0 110 -17t96 -51.5t68 -86.5t26 -121q0 -21 -2.5 -43.5t-8.5 -47.5zM792 350
q5 19 6.5 36t1.5 33q0 53 -20 93t-52 66.5t-73 39.5t-84 13q-50 0 -104.5 -17.5t-104 -52.5t-88 -87.5t-54.5 -123.5q-9 -38 -9 -70q0 -53 20 -92.5t52.5 -66t73.5 -39.5t84 -13q49 0 104 17.5t104.5 52.5t87.5 87.5t55 123.5z" />
    <glyph glyph-name="P" unicode="P" horiz-adv-x="668" 
d="M240 700h344q43 0 74 -13.5t51 -36t29.5 -52t9.5 -62.5q0 -14 -2 -28.5t-5 -28.5q-10 -42 -32 -81.5t-55.5 -70.5t-76.5 -50t-95 -19h-255l-59 -258h-89zM497 340q30 0 56 12t45.5 31.5t33 44.5t19.5 51q5 22 5 39q0 20 -5.5 38.5t-17 32t-29.5 21.5t-43 8h-251l-64 -278
h251z" />
    <glyph glyph-name="Q" unicode="Q" 
d="M557 6q-71 -23 -136 -23q-56 0 -110 17t-96 51.5t-68 86.5t-26 121q0 21 2.5 43.5t8.5 47.5q21 93 71 161.5t114.5 114.5t136.5 68.5t137 22.5q56 0 110 -17t96 -51.5t68 -86.5t26 -121q0 -21 -2.5 -43.5t-8.5 -47.5q-13 -56 -37.5 -104t-56.5 -87t-70.5 -69t-80.5 -52
l51 -114l-72 -46zM792 350q5 19 6.5 36t1.5 33q0 53 -20 93t-52 66.5t-73 39.5t-84 13q-50 0 -104.5 -17.5t-104 -52.5t-88 -87.5t-54.5 -123.5q-9 -38 -9 -70q0 -53 20 -92.5t52.5 -66t73.5 -39.5t84 -13q37 0 83 11l-42 92l72 47l49 -109q32 17 61.5 40t54.5 53t44 66.5
t29 80.5z" />
    <glyph glyph-name="R" unicode="R" horiz-adv-x="746" 
d="M479 293h-244l-67 -293h-89l161 700h373q43 0 75 -12.5t52 -33.5t30 -48.5t10 -58.5q0 -25 -6 -50q-8 -32 -24.5 -63.5t-41.5 -57.5t-58 -46t-72 -29l149 -301h-110zM528 376q31 0 57 10.5t45.5 27t32.5 38t18 44.5q3 15 3 29q0 19 -6 35.5t-18 29.5t-31 20.5t-45 7.5
h-274l-56 -242h274z" />
    <glyph glyph-name="S" unicode="S" horiz-adv-x="698" 
d="M718 549q-14 19 -37.5 34.5t-53 26t-63 16.5t-67.5 6q-36 0 -71.5 -7.5t-65.5 -23t-51 -40.5t-29 -60q-7 -31 7 -50t42.5 -30.5t67 -18.5t80 -14t82 -16t72.5 -26t51.5 -43.5t19.5 -67.5q0 -20 -6 -45q-13 -55 -47.5 -95t-82.5 -65.5t-105.5 -38t-114.5 -12.5
q-46 0 -89.5 7.5t-80.5 21.5t-65.5 34.5t-43.5 46.5l71 67q12 -22 36.5 -39t56.5 -29t68.5 -18.5t73.5 -6.5q39 0 77 7.5t69.5 23t54 39.5t30.5 57t-6 53.5t-42.5 33t-67 20t-80 14t-81.5 15.5t-72 25t-52 42t-20 67q0 10 1 21t4 23q13 57 46 97t78 66t98.5 38t107.5 12
q42 0 83 -7t76.5 -19.5t63.5 -31t46 -40.5z" />
    <glyph glyph-name="T" unicode="T" horiz-adv-x="755" 
d="M899 700l-18 -79h-315l-144 -621h-89l144 621h-315l18 79h719z" />
    <glyph glyph-name="U" unicode="U" horiz-adv-x="781" 
d="M240 700h89l-99 -429q-6 -26 -6 -49q0 -38 15 -67t40 -48.5t58 -29t69 -9.5q42 0 85 12.5t80.5 38t65 63.5t39.5 89l99 429h89l-99 -429q-17 -74 -56.5 -129.5t-92 -92t-113 -55t-118.5 -18.5q-51 0 -96.5 13.5t-80.5 41.5t-55.5 69t-20.5 97q0 35 9 74z" />
    <glyph glyph-name="V" unicode="V" horiz-adv-x="796" 
d="M352 -10l-172 710h94l148 -594l423 594h93l-500 -710h-86z" />
    <glyph glyph-name="W" unicode="W" horiz-adv-x="1072" 
d="M268 -10l-88 710h95l64 -570l328 570h61l65 -570l326 570h95l-415 -710h-74l-66 543l-318 -543h-73z" />
    <glyph glyph-name="X" unicode="X" horiz-adv-x="701" 
d="M567 0l-151 285l-282 -285h-115l358 359l-180 341h108l145 -269l269 269h108l-338 -341l193 -359h-115z" />
    <glyph glyph-name="Y" unicode="Y" horiz-adv-x="708" 
d="M284 700l154 -336l309 336h103l-385 -411l-67 -289h-89l67 289l-195 411h103z" />
    <glyph glyph-name="Z" unicode="Z" horiz-adv-x="652" 
d="M160 81h474l-18 -81h-580l19 81h1l572 538h-440l18 81h540l-19 -81h-1z" />
    <glyph glyph-name="bracketleft" unicode="[" horiz-adv-x="228" 
d="M198 700h155l-9 -39l-86 -10l-153 -660l82 -10l-9 -39h-155z" />
    <glyph glyph-name="backslash" unicode="\" horiz-adv-x="598" 
d="M275 700l287 -700h-76l-288 700h77z" />
    <glyph glyph-name="bracketright" unicode="]" horiz-adv-x="231" 
d="M178 -58h-155l9 39l87 10l152 660l-82 10l9 39h155z" />
    <glyph glyph-name="asciicircum" unicode="^" horiz-adv-x="400" 
d="M338 700h55l82 -233h-81l-44 164l-120 -164h-81z" />
    <glyph glyph-name="underscore" unicode="_" horiz-adv-x="555" 
d="M49 53h482l-16 -67h-481z" />
    <glyph glyph-name="grave" unicode="`" horiz-adv-x="171" 
d="M217 716l78 -107l-23 -22l-98 92z" />
    <glyph glyph-name="a" unicode="a" horiz-adv-x="689" 
d="M737 540l-124 -540h-72l9 101q-48 -60 -108.5 -88t-120.5 -28q-44 0 -83.5 14t-69.5 41.5t-48 67t-18 90.5q0 34 9 72q16 67 52.5 120t83.5 90t101 56t104 19q59 0 107 -28.5t68 -86.5l23 100h87zM199 270q-4 -15 -5.5 -29.5t-1.5 -27.5q0 -38 13 -66.5t34.5 -48
t50 -29.5t60.5 -10q36 0 72.5 13t69 39t58 65.5t37.5 93.5q8 37 8 63q0 37 -11.5 64.5t-32 46t-47.5 27.5t-57 9q-37 0 -76 -13.5t-73 -40t-60.5 -66t-38.5 -90.5z" />
    <glyph glyph-name="b" unicode="b" horiz-adv-x="691" 
d="M250 750h87l-72 -312q48 60 109 88.5t121 28.5q43 0 82.5 -14t69.5 -41.5t48 -67t18 -90.5q0 -35 -9 -72q-15 -68 -51.5 -121t-84 -89.5t-101 -55.5t-104.5 -19q-61 0 -108.5 28.5t-67.5 89.5l-38 -103h-72zM616 270q7 28 7 56q0 38 -13 66.5t-34.5 48t-50.5 29.5t-60 10
q-36 0 -72.5 -13t-69 -39t-58 -65.5t-37.5 -92.5q-8 -37 -8 -63q0 -38 12 -65.5t32 -46t47 -27.5t57 -9q37 0 76 13.5t73 40t60.5 66t38.5 91.5z" />
    <glyph glyph-name="c" unicode="c" horiz-adv-x="646" 
d="M111 270q16 72 56.5 125.5t93 89t111 53.5t111.5 18q73 0 134 -30t91 -87l-77 -56q-23 51 -68.5 71t-97.5 20q-63 0 -113 -23t-85 -59.5t-53.5 -81t-18.5 -87.5q0 -32 10.5 -60t32 -49.5t54.5 -34t79 -12.5q55 0 109 20.5t99 69.5l51 -56q-29 -28 -63.5 -50t-71 -37
t-74 -23t-71.5 -8q-46 0 -90.5 13.5t-79 40.5t-56 68t-21.5 96q0 16 1.5 33t6.5 36z" />
    <glyph glyph-name="d" unicode="d" horiz-adv-x="706" 
d="M111 270q16 67 52.5 120t83.5 90t101 56t104 19q59 0 107 -28.5t68 -86.5l71 310h88l-141 -609q-2 -9 -3 -17t-1 -14q0 -17 10 -25t36 -8h7l-17 -77q-68 0 -101 22.5t-26 78.5q-48 -60 -108.5 -88t-120.5 -28q-44 0 -83.5 14t-69.5 41.5t-48 67t-18 90.5q0 34 9 72z
M199 270q-4 -15 -5.5 -29.5t-1.5 -27.5q0 -38 13 -66.5t34.5 -48t50 -29.5t60.5 -10q36 0 72.5 12.5t69 38.5t58 65.5t37.5 92.5l1 3q7 31 7 61q0 37 -12 65t-32 46.5t-47 27.5t-57 9q-37 0 -76 -13.5t-73 -40t-60.5 -66t-38.5 -90.5z" />
    <glyph glyph-name="e" unicode="e" horiz-adv-x="662" 
d="M111 270q16 72 56.5 125.5t93 89t111 53.5t111.5 18q49 0 88.5 -15.5t67 -43.5t42.5 -67.5t15 -87.5q0 -34 -7 -68l-488 1q-6 -26 -6 -50q0 -32 10.5 -61t32 -50.5t54.5 -34.5t79 -13q55 0 109.5 20.5t99.5 69.5l50 -55q-29 -28 -63.5 -50t-71 -37t-74 -23t-71.5 -8
q-46 0 -90.5 13.5t-79 40.5t-56 68t-21.5 96q0 16 1.5 33t6.5 36zM613 342q1 23 -7.5 48t-26.5 45.5t-46 33.5t-66 13q-42 0 -79 -11t-67 -30t-53.5 -44.5t-39.5 -54.5h385z" />
    <glyph glyph-name="f" unicode="f" horiz-adv-x="474" 
d="M208 466h-81l12 57l91 14q-15 30 -15 61q0 8 1 16t3 16q7 30 27.5 54.5t49 41.5t63 26.5t69.5 9.5q29 0 56.5 -7t51 -21.5t41 -37t26.5 -53.5l-64 -37q-14 39 -50 58t-76 19t-74 -19t-43 -57q-4 -17 0.5 -35t18.5 -32h238l-16 -74h-238l-108 -466h-91z" />
    <glyph glyph-name="g" unicode="g" horiz-adv-x="689" 
d="M737 540l-106 -460q-18 -78 -54 -139.5t-87.5 -104t-118.5 -65t-146 -22.5q-51 0 -104.5 15t-93.5 38l46 79q42 -26 89 -39.5t95 -13.5t93 15t83.5 45.5t67 78t43.5 112.5l4 20q-48 -59 -107.5 -86.5t-119.5 -27.5q-44 0 -83.5 14t-69.5 41.5t-48 67t-18 90.5q0 34 9 72
q16 67 52.5 120t83.5 90t101 56t104 19q59 0 107 -28.5t68 -86.5l49 100h61zM199 270q-4 -15 -5.5 -29.5t-1.5 -27.5q0 -38 13 -66.5t34.5 -48t50 -29.5t60.5 -10q36 0 72.5 13t69 39t58 65.5t37.5 93.5q8 37 8 63q0 37 -11.5 64.5t-32 46t-47.5 27.5t-57 9q-37 0 -76 -13.5
t-73 -40t-60.5 -66t-38.5 -90.5z" />
    <glyph glyph-name="h" unicode="h" horiz-adv-x="703" 
d="M77 0l173 750h87l-70 -306q39 49 94 78t127 29q95 0 149 -41t54 -124q0 -16 -1.5 -32.5t-6.5 -35.5l-41 -177q-4 -16 -4 -31q0 -17 10 -25.5t36 -8.5h7l-17 -76q-27 0 -50.5 4t-41 14.5t-27.5 27.5t-10 43q0 15 5 38l34 145q6 26 9.5 49t3.5 43q0 54 -31.5 83.5
t-110.5 29.5q-37 0 -72.5 -10.5t-65 -31.5t-51 -52t-30.5 -71l-72 -312h-87z" />
    <glyph glyph-name="i" unicode="i" horiz-adv-x="256" 
d="M216 660q5 25 24 40t45 15t37.5 -15t6.5 -40q-6 -25 -25 -40t-44 -15q-26 0 -38 15t-6 40zM196 141l-3.5 -17.5t-1.5 -14.5q0 -17 10 -24.5t36 -7.5h7l-17 -77q-62 0 -94.5 18t-32.5 65q0 9 1 19.5t4 22.5l67 289q1 8 3 16.5t1 16t-5 12t-13 4.5h-23l18 77h23
q21 0 39.5 -5.5t32 -16.5t19.5 -28t0 -40z" />
    <glyph glyph-name="j" unicode="j" horiz-adv-x="286" 
d="M256 660q6 25 25 40t45 15t37.5 -15t6.5 -40q-6 -25 -25 -40t-45 -15t-37.5 15t-6.5 40zM243 540h88l-118 -512q-14 -61 -39 -101t-55 -63.5t-63.5 -33t-64.5 -9.5q-30 0 -56 6.5t-43 16.5l41 75q14 -6 32 -10.5t37 -4.5q18 0 36.5 6t35 20.5t30 39.5t22.5 63z" />
    <glyph glyph-name="k" unicode="k" horiz-adv-x="675" 
d="M240 708h88l-99 -429l356 261h122l-300 -218q41 -2 66 -20.5t42.5 -45t30.5 -57t29 -56.5t39 -43t60 -17l-18 -85q-53 0 -87 20.5t-57 51t-39 66t-33.5 66t-41.5 50t-63 18.5l-130 -94l-41 -176h-87z" />
    <glyph glyph-name="l" unicode="l" horiz-adv-x="257" 
d="M338 750l-141 -609q-5 -20 -5 -31q0 -17 10.5 -25t35.5 -8h7l-17 -77q-62 0 -94.5 18t-32.5 65q0 9 1 19.5t4 22.5l144 625h88z" />
    <glyph glyph-name="m" unicode="m" horiz-adv-x="978" 
d="M76 0l97 423q3 15 2 27.5t-17 12.5h-23l18 77h23q19 0 36.5 -4.5t31 -13.5t20.5 -23.5t5 -34.5q36 41 84 64t106 23q133 0 150 -114q35 53 87.5 83.5t121.5 30.5q151 0 151 -144q0 -20 -2.5 -42t-8.5 -47l-40 -177q-5 -20 -5 -31q0 -17 10.5 -25.5t36.5 -8.5h7l-17 -76
q-27 0 -50.5 4t-41 14t-27.5 27t-10 43q0 9 1.5 18.5t3.5 20.5l43 184q9 40 9 73q0 43 -20 68t-71 25q-59 0 -110 -36.5t-74 -103.5q-1 -5 -1.5 -9.5t-2.5 -9.5l-73 -318l-88 1l71 310q5 20 7.5 38t2.5 35q0 43 -20.5 68t-71.5 25q-32 0 -62.5 -10.5t-56 -31.5t-45 -52
t-28.5 -71l-72 -312h-87z" />
    <glyph glyph-name="n" unicode="n" horiz-adv-x="702" 
d="M76 0l97 423q3 15 2 27.5t-17 12.5h-23l18 77h23q20 0 38 -5t31.5 -15t20 -25.5t3.5 -37.5q40 43 96 68.5t122 25.5q96 0 150 -40.5t54 -123.5q0 -32 -9 -69l-41 -177q-4 -16 -4 -31q0 -17 10 -25.5t36 -8.5h7l-17 -76q-27 0 -50.5 4t-40.5 14t-27 26.5t-10 42.5
q0 9 1 19t4 21l33 145q6 26 9.5 49t3.5 43q0 54 -31.5 83.5t-110.5 29.5q-37 0 -72.5 -11.5t-65 -33t-51 -52t-30.5 -68.5l-72 -312h-87z" />
    <glyph glyph-name="o" unicode="o" horiz-adv-x="712" 
d="M725 270q-17 -72 -57 -125.5t-92.5 -89t-111 -53t-111.5 -17.5q-47 0 -91.5 13.5t-79.5 40.5t-56.5 67.5t-21.5 95.5q0 16 1.5 33t6.5 35q16 72 56.5 125.5t93 89t111 53t111.5 17.5q46 0 90.5 -13.5t80 -40.5t57 -68t21.5 -96q0 -29 -8 -67zM637 270q6 27 6 49
q0 39 -15.5 68.5t-40 49t-56.5 29.5t-65 10q-38 0 -80 -13t-79.5 -38.5t-66.5 -64t-41 -90.5q-6 -26 -6 -48q0 -40 15.5 -69.5t40.5 -49t57 -29.5t65 -10q38 0 79.5 13t79 38.5t66.5 64t41 90.5z" />
    <glyph glyph-name="p" unicode="p" horiz-adv-x="691" 
d="M704 270q-15 -68 -51.5 -121t-84 -89.5t-101 -55.5t-104.5 -19q-60 0 -108 28.5t-68 88.5l-74 -319h-87l145 631q2 8 3.5 16.5t1 16t-4.5 12t-13 4.5h-23l18 77h23q21 0 39.5 -5.5t32 -16.5t19.5 -28t0 -40l-3 -13q48 60 109 89t122 29q43 0 82.5 -14t69.5 -41.5t48 -67
t18 -90.5q0 -35 -9 -72zM616 270q7 28 7 56q0 38 -13 66.5t-34.5 48t-50.5 29.5t-60 10q-36 0 -72.5 -13t-69 -39t-58 -65.5t-37.5 -92.5q-8 -37 -8 -63q0 -38 12 -65.5t32 -46t47 -27.5t57 -9q37 0 76 13.5t73 40t60.5 66t38.5 91.5z" />
    <glyph glyph-name="q" unicode="q" horiz-adv-x="689" 
d="M737 540l-173 -750h-87l71 309q-48 -59 -107.5 -86.5t-119.5 -27.5q-44 0 -83.5 14t-69.5 41.5t-48 67t-18 90.5q0 34 9 72q16 67 52.5 120t83.5 90t101 56t104 19q59 0 107 -28.5t68 -86.5l44 100h66zM199 270q-4 -15 -5.5 -29.5t-1.5 -27.5q0 -38 13 -66.5t34.5 -48
t50 -29.5t60.5 -10q36 0 72.5 13t69 39t58 65.5t37.5 92.5l1 1q7 31 7 61q0 38 -12 66t-32 46.5t-47 27.5t-57 9q-37 0 -76 -13.5t-73 -40t-60.5 -66t-38.5 -90.5z" />
    <glyph glyph-name="r" unicode="r" horiz-adv-x="447" 
d="M76 0l97 423q3 15 2 27.5t-17 12.5h-23l18 77h23q21 0 39.5 -5.5t32 -16.5t19.5 -28t0 -40l-1 -4q41 45 91.5 73.5t105.5 28.5q40 0 77 -17l-38 -74q-21 8 -47 8q-31 0 -66.5 -11t-66.5 -30t-54 -45t-30 -56l-75 -323h-87z" />
    <glyph glyph-name="s" unicode="s" horiz-adv-x="638" 
d="M628 409q-12 15 -34.5 28t-51 22t-61 14.5t-65.5 5.5q-30 0 -58 -5t-51 -16t-39 -28t-22 -41q-5 -23 8.5 -36.5t39.5 -22t60.5 -14t71 -11.5t72.5 -14.5t64 -22.5t45.5 -36t17.5 -56q0 -17 -4 -33q-10 -44 -40.5 -75.5t-73 -52t-93.5 -30.5t-102 -10q-41 0 -80 6t-72 17
t-58.5 27.5t-38.5 37.5l68 61q10 -17 32 -31t50.5 -23.5t61.5 -14.5t67 -5t66 5.5t58 17t44 29t24 42.5t-7 40.5t-38.5 25t-60 15t-71 10.5t-72.5 12.5t-64 21t-45.5 35t-17.5 55.5q0 17 4 33q10 43 37 74t65 50.5t83.5 28.5t92.5 9q39 0 77 -6t71 -16.5t59.5 -25.5
t42.5 -34z" />
    <glyph glyph-name="t" unicode="t" horiz-adv-x="498" 
d="M348 642l-24 -102h243l-16 -73l-244 -1l-65 -284q-3 -14 -5 -26.5t-2 -23.5q0 -37 20.5 -57t66.5 -20q36 0 69 15.5t63 41.5l27 -58q-42 -36 -88.5 -58.5t-95.5 -22.5q-78 0 -115.5 34.5t-37.5 98.5q0 15 1.5 31.5t6.5 34.5l68 294h-93l17 74h93l51 101z" />
    <glyph glyph-name="u" unicode="u" horiz-adv-x="695" 
d="M199 540h87l-73 -317q-3 -11 -4 -22t-1 -21q0 -31 11.5 -54t30.5 -38t44.5 -22.5t53.5 -7.5q33 0 68 10.5t65 31.5t52.5 52.5t32.5 73.5l73 314h87l-92 -399q-2 -9 -3 -17t-1 -14q0 -17 9.5 -25t35.5 -8h8l-18 -77q-63 0 -95.5 18.5t-31.5 66.5q-46 -51 -106 -76
t-120 -25q-39 0 -74 11t-62 33t-42.5 55.5t-15.5 77.5q0 31 7 62z" />
    <glyph glyph-name="v" unicode="v" horiz-adv-x="677" 
d="M292 -10l-148 550h97l115 -463l329 463h98l-403 -550h-88z" />
    <glyph glyph-name="w" unicode="w" horiz-adv-x="924" 
d="M229 -10l-86 550h94l60 -435l261 435h57l60 -436l262 436h93l-340 -550h-76l-62 399l-247 -399h-76z" />
    <glyph glyph-name="x" unicode="x" horiz-adv-x="624" 
d="M491 0l-132 206l-226 -206h-114l300 270l-173 270h108l134 -207l231 207h107l-297 -270l176 -270h-114z" />
    <glyph glyph-name="y" unicode="y" horiz-adv-x="686" 
d="M206 540h87l-73 -317q-3 -12 -4 -22.5t-1 -21.5q0 -32 11.5 -55.5t30.5 -39t44.5 -23.5t53.5 -8q33 0 66.5 10.5t63 31t52.5 51.5t34 72l75 322h87l-106 -460q-18 -78 -53 -139.5t-86 -104t-116.5 -65t-144.5 -22.5q-51 0 -105 15t-93 38l46 79q16 -11 37 -19.5t44 -15
t47.5 -10t47.5 -3.5q70 0 119.5 18.5t83 51.5t53.5 77.5t32 96.5q-46 -49 -104.5 -73t-116.5 -24q-39 0 -74 11t-61.5 33.5t-42 56t-15.5 78.5q0 15 2 31t6 33z" />
    <glyph glyph-name="z" unicode="z" horiz-adv-x="594" 
d="M163 80h420l-18 -80h-537l19 80l492 380h-380l19 80h489l-19 -80z" />
    <glyph glyph-name="braceleft" unicode="{" horiz-adv-x="286" 
d="M119 358q44 -1 67.5 14t34.5 40t14 56.5t5.5 65t8.5 65t23.5 56.5t50 40.5t88.5 15.5l-10 -53q-41 0 -60.5 -18.5t-27.5 -48t-10 -66.5t-7.5 -73.5t-20.5 -69.5t-48 -54q13 -12 18 -27t5 -32q0 -27 -9.5 -57.5t-20.5 -61t-20.5 -58t-9.5 -48.5t13 -33.5t45 -12.5l-14 -53
q-66 0 -90.5 21t-24.5 53q0 25 10.5 55.5t22.5 60.5t22.5 58.5t10.5 51.5q0 25 -17 39.5t-62 13.5l13 60v0z" />
    <glyph glyph-name="bar" unicode="|" horiz-adv-x="129" 
d="M198 700h55l-182 -792h-55z" />
    <glyph glyph-name="braceright" unicode="}" horiz-adv-x="286" 
d="M318 298q-45 1 -68.5 -14t-35 -40t-14 -56.5t-4.5 -65t-7.5 -65t-22.5 -56.5t-50 -40.5t-89 -15.5l10 53q40 0 59 18.5t27 48t10 66t8 73t21 69.5t48 55q-13 11 -18 26.5t-5 32.5q0 27 9.5 57.5t21 60.5t21 58t9.5 49t-13 33.5t-46 12.5l14 53q66 0 90.5 -21t24.5 -54
q0 -25 -10 -55t-21.5 -60t-21.5 -59t-10 -51q0 -25 16.5 -39.5t60.5 -13.5z" />
    <glyph glyph-name="asciitilde" unicode="~" horiz-adv-x="472" 
d="M108 310q42 56 74.5 76.5t59.5 20.5q22 0 41 -9t37 -20t35.5 -20t37.5 -9q18 0 38 11t43 38l45 -33q-42 -51 -74 -69.5t-59 -18.5q-22 0 -41 8.5t-37 19t-35.5 19.5t-35.5 9t-38.5 -12.5t-43.5 -44.5z" />
    <glyph glyph-name="exclamdown" unicode="&#xa1;" horiz-adv-x="147" 
d="M230 458q-5 -22 -23.5 -37t-39.5 -15q-22 0 -33.5 15t-6.5 37t23 37t41 15q21 0 32.5 -15t6.5 -37zM74 -195h-93l140 534h60z" />
    <glyph glyph-name="cent" unicode="&#xa2;" horiz-adv-x="541" 
d="M485 666l-19 -80q45 -3 82 -23t71 -58l-75 -59q-17 25 -41.5 42t-53.5 22l-89 -384q34 4 70 22t69 50l35 -66q-49 -36 -97 -57t-94 -25l-16 -69l-71 3l16 70q-45 7 -78 25.5t-54 45.5t-31.5 60t-10.5 69q0 29 8 64q10 45 34.5 89t61 80t85 61.5t107.5 34.5l20 85z
M376 505q-47 -10 -83.5 -34t-62 -56t-39 -69t-13.5 -73q0 -50 27 -89t85 -53z" />
    <glyph glyph-name="sterling" unicode="&#xa3;" horiz-adv-x="597" 
d="M616 630q-44 0 -77 -22.5t-60 -60.5t-51 -87t-48 -101h119l-16 -71h-138q-32 -62 -70.5 -117t-93.5 -93h398l-18 -78h-519l13 58q71 42 118.5 102.5t83.5 127.5h-153l16 71h173q31 65 60.5 127t67 110t88 77.5t124.5 29.5z" />
    <glyph glyph-name="yen" unicode="&#xa5;" horiz-adv-x="707" 
d="M237 335h116l-173 365h103l154 -336l309 336h103l-342 -365h112l-16 -70h-145l-17 -74h145l-16 -71h-145l-28 -120h-89l28 120h-149l17 71h148l18 74h-149z" />
    <glyph glyph-name="dieresis" unicode="&#xa8;" horiz-adv-x="199" 
d="M167 639q4 14 15.5 23.5t25.5 9.5q13 0 20.5 -9.5t4.5 -23.5q-3 -13 -15 -22.5t-25 -9.5q-14 0 -21.5 9.5t-4.5 22.5zM262 639q3 14 15.5 23.5t26.5 9.5q11 0 18.5 -9.5t4.5 -23.5q-3 -13 -15 -22.5t-23 -9.5q-14 0 -22 9.5t-5 22.5z" />
    <glyph glyph-name="copyright" unicode="&#xa9;" horiz-adv-x="648" 
d="M111 338q14 60 49 113t84 92t107 62t118 23q52 0 94.5 -17t73 -47.5t47.5 -72t17 -89.5q0 -30 -8 -65q-14 -60 -49.5 -113t-84 -92.5t-107 -62.5t-118.5 -23q-52 0 -94.5 17t-73 47.5t-47 72t-16.5 89.5q0 29 8 66zM144 337q-7 -28 -7 -58q0 -43 15 -79.5t42 -63.5
t65 -42t84 -15q53 0 104.5 20.5t94.5 55.5t74.5 82.5t43.5 100.5q3 15 5 29t2 28q0 43 -15 79.5t-42 63.5t-65 42t-84 15q-53 0 -104.5 -20.5t-94.5 -55.5t-74.5 -82t-43.5 -100zM498 204q-33 -23 -66.5 -35t-69.5 -12q-34 0 -61.5 11.5t-47 31t-30.5 46.5t-11 59q0 19 5 42
q9 39 32 73.5t55 60t70 40.5t77 15q35 0 62.5 -12.5t50.5 -35.5l-27 -24q-39 39 -95 39q-32 0 -63.5 -12.5t-57.5 -34t-45 -50t-26 -60.5q-4 -16 -4 -35q0 -52 34.5 -86.5t90.5 -34.5q29 0 57 10.5t56 29.5z" />
    <glyph glyph-name="guillemotleft" unicode="&#xab;" horiz-adv-x="386" 
d="M238 369l256 253l-22 -92l-183 -179l100 -180l-21 -92l-138 253zM122 368l255 253l-21 -91l-183 -180l100 -180l-21 -91l-139 253z" />
    <glyph glyph-name="registered" unicode="&#xae;" horiz-adv-x="348" 
d="M169 588q7 28 23.5 53t40 44t51 29.5t56.5 10.5q49 0 79 -30.5t30 -76.5q0 -15 -3 -30q-7 -28 -23.5 -53.5t-39 -44.5t-50.5 -30t-57 -11q-51 0 -81 31t-30 77q0 8 1 15.5t3 15.5zM190 588q-6 -24 -1.5 -45.5t17 -38t32 -26t43.5 -9.5q25 0 48.5 9.5t43.5 26t34 38
t20 45.5q5 24 0.5 45.5t-17 37.5t-31.5 25.5t-43 9.5q-25 0 -49 -9.5t-43.5 -25.5t-34 -37.5t-19.5 -45.5zM351 504h-25l-36 63h-22l-15 -63h-19l40 170h52q26 -1 39 -15.5t8 -37.5q-5 -20 -21.5 -34t-39.5 -18zM272 585h28q20 0 35 9t19 27q5 19 -5.5 28.5t-30.5 9.5h-29z
" />
    <glyph glyph-name="degree" unicode="&#xb0;" horiz-adv-x="321" 
d="M267 446q-52 0 -75.5 29t-23.5 69q0 28 11 58.5t32 55t51 40.5t67 16q51 0 74.5 -29t23.5 -69q0 -29 -11 -59t-32 -55t-50.5 -40.5t-66.5 -15.5zM318 665q-21 0 -38.5 -10t-30 -26t-19 -35.5t-6.5 -37.5q0 -25 13 -42.5t42 -17.5q21 0 38 10.5t29.5 26.5t19 35.5
t6.5 37.5q0 24 -13 41.5t-41 17.5z" />
    <glyph glyph-name="plusminus" unicode="&#xb1;" horiz-adv-x="470" 
d="M405 571l-37 -160h160l-17 -73h-160l-36 -154h-76l36 154h-160l17 73h160l37 160h76zM56 73h391l-17 -73h-391z" />
    <glyph glyph-name="acute" unicode="&#xb4;" horiz-adv-x="171" 
d="M288 725l25 -38l-140 -91l-13 21z" />
    <glyph glyph-name="periodcentered" unicode="&#xb7;" horiz-adv-x="176" 
d="M154 354q2 7 7.5 12t12.5 5t10.5 -5t1.5 -12q-4 -16 -20 -16q-7 0 -10.5 4.5t-1.5 11.5z" />
    <glyph glyph-name="cedilla" unicode="&#xb8;" horiz-adv-x="162" 
d="M113 14l-33 -54q20 -5 29 -17.5t9 -27.5q0 -12 -5.5 -25t-15 -23t-22.5 -16.5t-28 -6.5q-16 0 -26.5 4.5t-18.5 9.5q-9 6 -15 15l24 31q4 -11 15.5 -18.5t23.5 -7.5q10 0 18 5.5t11 17.5q4 14 -6.5 27t-40.5 14l49 83z" />
    <glyph glyph-name="guillemotright" unicode="&#xbb;" horiz-adv-x="391" 
d="M318 368l-9 -36l-254 -254l21 92l182 180l-99 180l21 92zM439 368l-8 -36l-255 -253l21 91l183 180l-100 180l21 91z" />
    <glyph glyph-name="questiondown" unicode="&#xbf;" horiz-adv-x="579" 
d="M497 477q-5 -22 -23.5 -37t-40.5 -15t-33 15t-6 37t23 37t40 15t33.5 -15t6.5 -37zM127 5q-7 -30 -0.5 -52t22.5 -36t39.5 -21t52.5 -7q30 0 64 7.5t66.5 21.5t62 35t52.5 47l42 -64q-28 -30 -63.5 -53t-75 -39t-81 -24t-80.5 -8q-41 0 -76.5 8.5t-62 26.5t-42 45.5
t-15.5 65.5q0 11 1 22.5t4 23.5q13 57 41 92t63.5 58.5t74.5 40.5t73.5 37.5t61.5 50.5t38 79h62q-13 -62 -39.5 -101t-59 -64.5t-68 -42.5t-67.5 -36t-56 -44.5t-34 -68.5z" />
    <glyph glyph-name="Agrave" unicode="&#xc0;" horiz-adv-x="795" 
d="M565 876l78 -107l-23 -22l-98 92zM518 710h86l172 -710h-93l-30 121h-455l-86 -121h-94zM632 203l-98 391l-278 -391h376z" />
    <glyph glyph-name="Aacute" unicode="&#xc1;" horiz-adv-x="795" 
d="M636 885l25 -38l-140 -91l-13 21zM518 710h86l172 -710h-93l-30 121h-455l-86 -121h-94zM632 203l-98 391l-278 -391h376z" />
    <glyph glyph-name="Acircumflex" unicode="&#xc2;" horiz-adv-x="795" 
d="M491 765l82 100h47l37 -100h-39l-29 64l-60 -64h-38zM518 710h86l172 -710h-93l-30 121h-455l-86 -121h-94zM632 203l-98 391l-278 -391h376z" />
    <glyph glyph-name="Atilde" unicode="&#xc3;" horiz-adv-x="795" 
d="M477 801q15 12 33.5 24t42.5 12q12 0 20.5 -4.5t16 -10t15.5 -10t19 -4.5t24 5t31 19l8 -31q-12 -10 -32.5 -19.5t-39.5 -9.5q-14 0 -23.5 4.5t-17.5 10t-15.5 10t-17.5 4.5t-23 -6t-32 -22zM518 710h86l172 -710h-93l-30 121h-455l-86 -121h-94zM632 203l-98 391
l-278 -391h376z" />
    <glyph glyph-name="Adieresis" unicode="&#xc4;" horiz-adv-x="795" 
d="M502 799q3 14 15 23.5t26 9.5q12 0 20 -9.5t4 -23.5q-2 -13 -14.5 -22.5t-24.5 -9.5q-14 0 -21.5 9.5t-4.5 22.5zM596 799q4 14 16.5 23.5t26.5 9.5q11 0 18.5 -9.5t3.5 -23.5q-3 -13 -14.5 -22.5t-22.5 -9.5q-14 0 -22 9.5t-6 22.5zM518 710h86l172 -710h-93l-30 121
h-455l-86 -121h-94zM632 203l-98 391l-278 -391h376z" />
    <glyph glyph-name="Aring" unicode="&#xc5;" horiz-adv-x="795" 
d="M518 710h2q-20 15 -20 43q0 15 6.5 31.5t19 29.5t30.5 21.5t40 8.5q32 0 46 -16t14 -39t-13.5 -45.5t-37.5 -35.5l171 -708h-93l-30 121h-455l-86 -121h-94zM587 810q-23 0 -36 -16t-13 -33q0 -12 7 -20.5t24 -8.5q23 0 35.5 16t12.5 33q0 12 -7 20.5t-23 8.5zM632 203
l-98 391l-278 -391h376z" />
    <glyph glyph-name="AE" unicode="&#xc6;" horiz-adv-x="1212" 
d="M756 700h575l-19 -81h-477l-53 -228h416l-19 -81h-416l-52 -229h483l-19 -81h-572l28 121h-380l-129 -121h-103zM650 203l85 369l-396 -369h311z" />
    <glyph glyph-name="Ccedilla" unicode="&#xc7;" horiz-adv-x="754" 
d="M129 350q21 92 70 161t111.5 114.5t132 68.5t131.5 23q88 0 158.5 -38.5t105.5 -111.5l-78 -61q-14 28 -36 51.5t-49 39.5t-58 25t-61 9q-68 0 -125 -24t-100 -64t-71.5 -90.5t-40.5 -102.5q-9 -36 -9 -73q0 -42 13 -79.5t39.5 -66t67 -45t96.5 -16.5q33 0 68.5 9.5
t69.5 26.5t65.5 40.5t57.5 50.5l51 -63q-68 -70 -158 -110.5t-188 -40.5l-14 -23q20 -5 29 -17.5t9 -27.5q0 -12 -5.5 -25t-14.5 -23t-22 -16.5t-28 -6.5q-16 0 -26.5 4.5t-18.5 9.5q-9 6 -15 15l23 31q5 -11 16.5 -18.5t23.5 -7.5q22 0 28 23q4 14 -6 27t-40 14l26 44
q-47 7 -90.5 27t-76.5 54t-53 81t-20 108q0 43 12 94z" />
    <glyph glyph-name="Egrave" unicode="&#xc8;" horiz-adv-x="688" 
d="M511 876l79 -107l-24 -22l-98 92zM240 700h566l-19 -81h-477l-53 -228h416l-19 -81h-415l-53 -229h483l-19 -81h-572z" />
    <glyph glyph-name="Eacute" unicode="&#xc9;" horiz-adv-x="688" 
d="M582 885l26 -38l-140 -91l-14 21zM240 700h566l-19 -81h-477l-53 -228h416l-19 -81h-415l-53 -229h483l-19 -81h-572z" />
    <glyph glyph-name="Ecircumflex" unicode="&#xca;" horiz-adv-x="688" 
d="M437 765l83 100h47l36 -100h-39l-29 64l-59 -64h-39zM240 700h566l-19 -81h-477l-53 -228h416l-19 -81h-415l-53 -229h483l-19 -81h-572z" />
    <glyph glyph-name="Edieresis" unicode="&#xcb;" horiz-adv-x="688" 
d="M448 799q3 14 15 23.5t26 9.5q13 0 20.5 -9.5t4.5 -23.5q-3 -13 -15 -22.5t-25 -9.5q-14 0 -21.5 9.5t-4.5 22.5zM543 799q3 14 15.5 23.5t26.5 9.5q11 0 18.5 -9.5t4.5 -23.5q-3 -13 -15 -22.5t-23 -9.5q-14 0 -22 9.5t-5 22.5zM240 700h566l-19 -81h-477l-53 -228h416
l-19 -81h-415l-53 -229h483l-19 -81h-572z" />
    <glyph glyph-name="Igrave" unicode="&#xcc;" horiz-adv-x="247" 
d="M291 876l78 -107l-23 -22l-98 92zM240 700h89l-162 -700h-89z" />
    <glyph glyph-name="Iacute" unicode="&#xcd;" horiz-adv-x="247" 
d="M362 885l25 -38l-140 -91l-13 21zM240 700h89l-162 -700h-89z" />
    <glyph glyph-name="Icircumflex" unicode="&#xce;" horiz-adv-x="247" 
d="M217 765l82 100h47l37 -100h-39l-29 64l-60 -64h-38zM240 700h89l-162 -700h-89z" />
    <glyph glyph-name="Idieresis" unicode="&#xcf;" horiz-adv-x="247" 
d="M228 799q3 14 15 23.5t26 9.5q12 0 20 -9.5t4 -23.5q-3 -13 -15 -22.5t-24 -9.5q-14 0 -21.5 9.5t-4.5 22.5zM322 799q4 14 16.5 23.5t26.5 9.5q11 0 18.5 -9.5t3.5 -23.5q-3 -13 -14.5 -22.5t-22.5 -9.5q-14 0 -22.5 9.5t-5.5 22.5zM240 700h89l-162 -700h-89z" />
    <glyph glyph-name="Eth" unicode="&#xd0;" horiz-adv-x="806" 
d="M591 700q67 -1 116 -22.5t80.5 -56.5t46.5 -81.5t15 -98.5q0 -23 -3 -45.5t-8 -45.5q-15 -65 -50 -127t-87 -111t-120.5 -80t-150.5 -32h-352l83 360h-50l17 72h50l62 268h351zM310 618l-43 -186h317l-17 -72h-317l-64 -277h255q60 0 110.5 23t89.5 60.5t65 85.5t38 98
q9 37 9 74q0 39 -11 74.5t-34 62t-58.5 42t-84.5 15.5h-255z" />
    <glyph glyph-name="Ntilde" unicode="&#xd1;" horiz-adv-x="816" 
d="M487 801q16 12 34.5 24t41.5 12q12 0 20.5 -4.5t16.5 -10t16 -10t19 -4.5t24 5t31 19l8 -31q-12 -10 -32.5 -19.5t-39.5 -9.5q-14 0 -23.5 4.5t-17.5 10t-15.5 10t-17.5 4.5t-23 -6t-32 -22zM240 700h89l349 -571l132 571h89l-162 -700h-89l-349 572l-132 -572h-89z" />
    <glyph glyph-name="Ograve" unicode="&#xd2;" 
d="M593 876l78 -107l-23 -22l-98 92zM880 350q-21 -92 -71.5 -161t-115 -115t-136.5 -68.5t-136 -22.5q-56 0 -110 17t-96.5 51.5t-68.5 86.5t-26 121q0 21 2.5 43.5t8.5 47.5q21 93 71.5 161.5t115 114.5t136 68.5t136.5 22.5q56 0 110 -17t96.5 -51.5t68.5 -86t26 -121.5
q0 -21 -2.5 -43.5t-8.5 -47.5zM791 350q9 37 9 70q0 53 -20 92.5t-52.5 66t-73.5 39.5t-84 13q-49 0 -104 -17.5t-104 -52.5t-87.5 -87.5t-54.5 -123.5q-9 -38 -9 -70q0 -53 19.5 -92.5t52 -66t73.5 -39.5t84 -13q49 0 104 17.5t104.5 52.5t88 87.5t54.5 123.5z" />
    <glyph glyph-name="Oacute" unicode="&#xd3;" 
d="M663 885l26 -38l-140 -91l-14 21zM880 350q-21 -92 -71.5 -161t-115 -115t-136.5 -68.5t-136 -22.5q-56 0 -110 17t-96.5 51.5t-68.5 86.5t-26 121q0 21 2.5 43.5t8.5 47.5q21 93 71.5 161.5t115 114.5t136 68.5t136.5 22.5q56 0 110 -17t96.5 -51.5t68.5 -86t26 -121.5
q0 -21 -2.5 -43.5t-8.5 -47.5zM791 350q9 37 9 70q0 53 -20 92.5t-52.5 66t-73.5 39.5t-84 13q-49 0 -104 -17.5t-104 -52.5t-87.5 -87.5t-54.5 -123.5q-9 -38 -9 -70q0 -53 19.5 -92.5t52 -66t73.5 -39.5t84 -13q49 0 104 17.5t104.5 52.5t88 87.5t54.5 123.5z" />
    <glyph glyph-name="Ocircumflex" unicode="&#xd4;" 
d="M518 765l83 100h47l36 -100h-38l-30 64l-59 -64h-39zM880 350q-21 -92 -71.5 -161t-115 -115t-136.5 -68.5t-136 -22.5q-56 0 -110 17t-96.5 51.5t-68.5 86.5t-26 121q0 21 2.5 43.5t8.5 47.5q21 93 71.5 161.5t115 114.5t136 68.5t136.5 22.5q56 0 110 -17t96.5 -51.5
t68.5 -86t26 -121.5q0 -21 -2.5 -43.5t-8.5 -47.5zM791 350q9 37 9 70q0 53 -20 92.5t-52.5 66t-73.5 39.5t-84 13q-49 0 -104 -17.5t-104 -52.5t-87.5 -87.5t-54.5 -123.5q-9 -38 -9 -70q0 -53 19.5 -92.5t52 -66t73.5 -39.5t84 -13q49 0 104 17.5t104.5 52.5t88 87.5
t54.5 123.5z" />
    <glyph glyph-name="Otilde" unicode="&#xd5;" 
d="M504 801q15 12 34 24t42 12q12 0 20.5 -4.5t16.5 -10t16 -10t19 -4.5t24 5t31 19l8 -31q-12 -10 -32.5 -19.5t-39.5 -9.5q-14 0 -23.5 4.5t-17.5 10t-15.5 10t-17.5 4.5t-23 -6t-32 -22zM880 350q-21 -92 -71.5 -161t-115 -115t-136.5 -68.5t-136 -22.5q-56 0 -110 17
t-96.5 51.5t-68.5 86.5t-26 121q0 21 2.5 43.5t8.5 47.5q21 93 71.5 161.5t115 114.5t136 68.5t136.5 22.5q56 0 110 -17t96.5 -51.5t68.5 -86t26 -121.5q0 -21 -2.5 -43.5t-8.5 -47.5zM791 350q9 37 9 70q0 53 -20 92.5t-52.5 66t-73.5 39.5t-84 13q-49 0 -104 -17.5
t-104 -52.5t-87.5 -87.5t-54.5 -123.5q-9 -38 -9 -70q0 -53 19.5 -92.5t52 -66t73.5 -39.5t84 -13q49 0 104 17.5t104.5 52.5t88 87.5t54.5 123.5z" />
    <glyph glyph-name="Odieresis" unicode="&#xd6;" 
d="M529 799q4 14 15.5 23.5t25.5 9.5q13 0 20.5 -9.5t4.5 -23.5q-3 -13 -15 -22.5t-25 -9.5q-14 0 -21.5 9.5t-4.5 22.5zM624 799q3 14 16 23.5t27 9.5q11 0 18 -9.5t4 -23.5q-3 -13 -14.5 -22.5t-23.5 -9.5q-14 0 -22 9.5t-5 22.5zM880 350q-21 -92 -71.5 -161t-115 -115
t-136.5 -68.5t-136 -22.5q-56 0 -110 17t-96.5 51.5t-68.5 86.5t-26 121q0 21 2.5 43.5t8.5 47.5q21 93 71.5 161.5t115 114.5t136 68.5t136.5 22.5q56 0 110 -17t96.5 -51.5t68.5 -86t26 -121.5q0 -21 -2.5 -43.5t-8.5 -47.5zM791 350q9 37 9 70q0 53 -20 92.5t-52.5 66
t-73.5 39.5t-84 13q-49 0 -104 -17.5t-104 -52.5t-87.5 -87.5t-54.5 -123.5q-9 -38 -9 -70q0 -53 19.5 -92.5t52 -66t73.5 -39.5t84 -13q49 0 104 17.5t104.5 52.5t88 87.5t54.5 123.5z" />
    <glyph glyph-name="multiply" unicode="&#xd7;" horiz-adv-x="410" 
d="M212 512l86 -109l141 113l41 -54l-140 -112l87 -110l-68 -51l-86 108l-140 -112l-41 54l139 111l-86 109z" />
    <glyph glyph-name="Oslash" unicode="&#xd8;" 
d="M880 350q-21 -92 -71.5 -161t-115 -115t-136.5 -68.5t-136 -22.5q-43 0 -84.5 9.5t-78.5 29.5l-19 -22h-77l48 55q-41 35 -65.5 85t-24.5 119q0 41 11 91q21 93 71.5 161.5t115 114.5t136 68.5t136.5 22.5q43 0 84.5 -9.5t78.5 -29.5l19 22h77l-48 -55q41 -35 65.5 -85
t24.5 -119q0 -41 -11 -91zM688 604q-26 14 -56.5 20.5t-61.5 6.5q-49 0 -104 -17.5t-104 -52.5t-87.5 -87.5t-54.5 -123.5q-9 -38 -9 -70q0 -50 17 -87.5t46 -63.5zM791 350q5 19 6.5 36t1.5 34q0 50 -16.5 87.5t-45.5 63.5l-415 -475q54 -27 118 -27q49 0 104 17.5
t104.5 52.5t88 87.5t54.5 123.5z" />
    <glyph glyph-name="Ugrave" unicode="&#xd9;" horiz-adv-x="781" 
d="M558 876l78 -107l-23 -22l-98 92zM240 700h89l-99 -429q-6 -27 -6 -49q0 -38 15 -67t40 -48.5t58 -29t69 -9.5q42 0 84.5 12.5t80 38t65 63.5t39.5 89l100 429h88l-99 -429q-17 -74 -56.5 -129.5t-92 -92t-112.5 -55t-118 -18.5q-51 0 -96.5 13.5t-80.5 41.5t-55.5 69
t-20.5 97q0 35 9 74z" />
    <glyph glyph-name="Uacute" unicode="&#xda;" horiz-adv-x="781" 
d="M629 885l25 -38l-140 -91l-13 21zM240 700h89l-99 -429q-6 -27 -6 -49q0 -38 15 -67t40 -48.5t58 -29t69 -9.5q42 0 84.5 12.5t80 38t65 63.5t39.5 89l100 429h88l-99 -429q-17 -74 -56.5 -129.5t-92 -92t-112.5 -55t-118 -18.5q-51 0 -96.5 13.5t-80.5 41.5t-55.5 69
t-20.5 97q0 35 9 74z" />
    <glyph glyph-name="Ucircumflex" unicode="&#xdb;" horiz-adv-x="781" 
d="M484 765l82 100h47l37 -100h-39l-29 64l-60 -64h-38zM240 700h89l-99 -429q-6 -27 -6 -49q0 -38 15 -67t40 -48.5t58 -29t69 -9.5q42 0 84.5 12.5t80 38t65 63.5t39.5 89l100 429h88l-99 -429q-17 -74 -56.5 -129.5t-92 -92t-112.5 -55t-118 -18.5q-51 0 -96.5 13.5
t-80.5 41.5t-55.5 69t-20.5 97q0 35 9 74z" />
    <glyph glyph-name="Udieresis" unicode="&#xdc;" horiz-adv-x="781" 
d="M495 799q3 14 15 23.5t26 9.5q12 0 20 -9.5t4 -23.5q-3 -13 -15 -22.5t-24 -9.5q-14 0 -21.5 9.5t-4.5 22.5zM589 799q4 14 16.5 23.5t26.5 9.5q11 0 18.5 -9.5t3.5 -23.5q-3 -13 -14.5 -22.5t-22.5 -9.5q-14 0 -22.5 9.5t-5.5 22.5zM240 700h89l-99 -429q-6 -27 -6 -49
q0 -38 15 -67t40 -48.5t58 -29t69 -9.5q42 0 84.5 12.5t80 38t65 63.5t39.5 89l100 429h88l-99 -429q-17 -74 -56.5 -129.5t-92 -92t-112.5 -55t-118 -18.5q-51 0 -96.5 13.5t-80.5 41.5t-55.5 69t-20.5 97q0 35 9 74z" />
    <glyph glyph-name="Yacute" unicode="&#xdd;" horiz-adv-x="708" 
d="M592 885l26 -38l-140 -91l-14 21zM284 700l153 -336l309 336h104l-385 -411l-67 -289h-89l67 289l-196 411h104z" />
    <glyph glyph-name="Thorn" unicode="&#xde;" horiz-adv-x="726" 
d="M240 700h92l-30 -129h282q47 0 81 -13.5t56 -36.5t32.5 -53t10.5 -64q0 -27 -6 -54q-10 -42 -33 -81.5t-58.5 -70.5t-82 -50t-102.5 -19h-282l-30 -129h-91zM496 211q40 0 72 16t54.5 41.5t34.5 56t12 60.5q0 42 -26.5 73t-82.5 31h-277l-64 -278h277z" />
    <glyph glyph-name="germandbls" unicode="&#xdf;" horiz-adv-x="717" 
d="M61 1l113 493q15 63 44.5 107.5t67.5 73.5t82 42.5t86 13.5q37 0 71 -10t59.5 -29t40.5 -46.5t15 -62.5q0 -16 -5 -38q-7 -32 -25.5 -54.5t-39 -39t-37 -29.5t-19.5 -26q-3 -11 12.5 -20t39.5 -18.5t53 -21.5t53.5 -29.5t41.5 -42.5t17 -60q0 -18 -4 -35
q-12 -50 -40.5 -85.5t-66.5 -58.5t-82.5 -34t-87.5 -11q-30 0 -58.5 5t-52.5 14.5t-42 23t-28 30.5l59 56q7 -10 21 -18.5t33 -15t41 -10t45 -3.5q27 0 54 5.5t49.5 18t39 32t22.5 48.5q8 36 -6 59.5t-40 40t-57.5 28.5t-58 24.5t-42.5 28.5t-10 40q6 26 24.5 44t39.5 34
t40 34.5t26 46.5q6 25 -0.5 45.5t-21.5 35.5t-37 23t-47 8q-26 0 -54 -10t-53 -31t-45 -54.5t-31 -81.5l-111 -482z" />
    <glyph glyph-name="agrave" unicode="&#xe0;" horiz-adv-x="672" 
d="M467 716l78 -107l-23 -22l-98 92zM737 540l-125 -540h-72l10 101q-48 -60 -109 -88t-121 -28q-43 0 -82.5 14t-69.5 41.5t-48 67.5t-18 91q0 17 1.5 34.5t6.5 36.5q16 67 52.5 120t84 90t101 56t104.5 19q60 0 107 -28t67 -87l24 100h87zM199 270q-4 -15 -5.5 -29.5
t-1.5 -27.5q0 -38 13 -66.5t34.5 -48t50 -29.5t60.5 -10q36 0 72.5 13t69 39t58 65.5t37.5 93.5q4 17 6 32.5t2 29.5q0 37 -12 65t-32 46.5t-47 27.5t-57 9q-37 0 -76 -13.5t-73.5 -40t-60.5 -66t-38 -90.5z" />
    <glyph glyph-name="aacute" unicode="&#xe1;" horiz-adv-x="672" 
d="M538 725l25 -38l-140 -91l-14 21zM737 540l-125 -540h-72l10 101q-48 -60 -109 -88t-121 -28q-43 0 -82.5 14t-69.5 41.5t-48 67.5t-18 91q0 17 1.5 34.5t6.5 36.5q16 67 52.5 120t84 90t101 56t104.5 19q60 0 107 -28t67 -87l24 100h87zM199 270q-4 -15 -5.5 -29.5
t-1.5 -27.5q0 -38 13 -66.5t34.5 -48t50 -29.5t60.5 -10q36 0 72.5 13t69 39t58 65.5t37.5 93.5q4 17 6 32.5t2 29.5q0 37 -12 65t-32 46.5t-47 27.5t-57 9q-37 0 -76 -13.5t-73.5 -40t-60.5 -66t-38 -90.5z" />
    <glyph glyph-name="acircumflex" unicode="&#xe2;" horiz-adv-x="672" 
d="M392 605l83 100h47l36 -100h-38l-30 64l-59 -64h-39zM737 540l-125 -540h-72l10 101q-48 -60 -109 -88t-121 -28q-43 0 -82.5 14t-69.5 41.5t-48 67.5t-18 91q0 17 1.5 34.5t6.5 36.5q16 67 52.5 120t84 90t101 56t104.5 19q60 0 107 -28t67 -87l24 100h87zM199 270
q-4 -15 -5.5 -29.5t-1.5 -27.5q0 -38 13 -66.5t34.5 -48t50 -29.5t60.5 -10q36 0 72.5 13t69 39t58 65.5t37.5 93.5q4 17 6 32.5t2 29.5q0 37 -12 65t-32 46.5t-47 27.5t-57 9q-37 0 -76 -13.5t-73.5 -40t-60.5 -66t-38 -90.5z" />
    <glyph glyph-name="atilde" unicode="&#xe3;" horiz-adv-x="672" 
d="M379 641q15 12 33.5 24t41.5 12q12 0 20.5 -4.5t16.5 -10t16 -10t19 -4.5t24 5t31 19l8 -31q-12 -10 -32.5 -19.5t-39.5 -9.5q-14 0 -23.5 4.5t-17.5 10t-15.5 10t-17.5 4.5t-23 -6t-32 -22zM737 540l-125 -540h-72l10 101q-48 -60 -109 -88t-121 -28q-43 0 -82.5 14
t-69.5 41.5t-48 67.5t-18 91q0 17 1.5 34.5t6.5 36.5q16 67 52.5 120t84 90t101 56t104.5 19q60 0 107 -28t67 -87l24 100h87zM199 270q-4 -15 -5.5 -29.5t-1.5 -27.5q0 -38 13 -66.5t34.5 -48t50 -29.5t60.5 -10q36 0 72.5 13t69 39t58 65.5t37.5 93.5q4 17 6 32.5t2 29.5
q0 37 -12 65t-32 46.5t-47 27.5t-57 9q-37 0 -76 -13.5t-73.5 -40t-60.5 -66t-38 -90.5z" />
    <glyph glyph-name="adieresis" unicode="&#xe4;" horiz-adv-x="672" 
d="M403 639q4 14 15.5 23.5t25.5 9.5q13 0 20.5 -9.5t4.5 -23.5q-3 -13 -15 -22.5t-25 -9.5q-14 0 -21 9.5t-5 22.5zM498 639q3 14 16 23.5t27 9.5q11 0 18 -9.5t4 -23.5q-3 -13 -14.5 -22.5t-22.5 -9.5q-14 0 -22.5 9.5t-5.5 22.5zM737 540l-125 -540h-72l10 101
q-48 -60 -109 -88t-121 -28q-43 0 -82.5 14t-69.5 41.5t-48 67.5t-18 91q0 17 1.5 34.5t6.5 36.5q16 67 52.5 120t84 90t101 56t104.5 19q60 0 107 -28t67 -87l24 100h87zM199 270q-4 -15 -5.5 -29.5t-1.5 -27.5q0 -38 13 -66.5t34.5 -48t50 -29.5t60.5 -10q36 0 72.5 13
t69 39t58 65.5t37.5 93.5q4 17 6 32.5t2 29.5q0 37 -12 65t-32 46.5t-47 27.5t-57 9q-37 0 -76 -13.5t-73.5 -40t-60.5 -66t-38 -90.5z" />
    <glyph glyph-name="aring" unicode="&#xe5;" horiz-adv-x="672" 
d="M470 576q-32 0 -47 16.5t-15 39.5q0 15 6.5 31t19 29t30 21.5t40.5 8.5q32 0 46 -16.5t14 -38.5q0 -15 -6.5 -31.5t-18.5 -29.5t-29.5 -21.5t-39.5 -8.5zM495 688q-23 0 -36 -15.5t-13 -32.5q0 -12 7 -20.5t24 -8.5q23 0 35.5 15.5t12.5 32.5q0 11 -7 20t-23 9zM737 540
l-125 -540h-72l10 101q-48 -60 -109 -88t-121 -28q-43 0 -82.5 14t-69.5 41.5t-48 67.5t-18 91q0 17 1.5 34.5t6.5 36.5q16 67 52.5 120t84 90t101 56t104.5 19q60 0 107 -28t67 -87l24 100h87zM199 270q-4 -15 -5.5 -29.5t-1.5 -27.5q0 -38 13 -66.5t34.5 -48t50 -29.5
t60.5 -10q36 0 72.5 13t69 39t58 65.5t37.5 93.5q4 17 6 32.5t2 29.5q0 37 -12 65t-32 46.5t-47 27.5t-57 9q-37 0 -76 -13.5t-73.5 -40t-60.5 -66t-38 -90.5z" />
    <glyph glyph-name="ae" unicode="&#xe6;" horiz-adv-x="1105" 
d="M207 492q49 26 115.5 42.5t132.5 16.5q36 0 69 -5.5t60 -17.5t47 -31t29 -46q58 53 129.5 79t135.5 26q49 0 88.5 -15.5t67 -43t42.5 -67t15 -87.5q0 -35 -7 -69l-487 1q-6 -26 -6 -52q0 -32 10 -60.5t31.5 -50t54.5 -34t79 -12.5q56 0 110.5 20.5t99.5 69.5l50 -55
q-29 -28 -64 -50t-71.5 -37t-74 -23t-71.5 -8q-42 0 -83.5 11.5t-75 35t-57 58t-29.5 81.5q-25 -40 -61.5 -71.5t-80.5 -54t-92 -35t-96 -13.5q-39 -2 -67.5 6.5t-46.5 23.5t-27 35.5t-9 44.5q0 36 19 74.5t54.5 70.5t86 51.5t112.5 18.5l140 -2h24.5t28.5 3t25 10t16 20
q7 33 -1.5 56t-28 37.5t-47.5 20.5t-61 6q-28 0 -57 -4t-57 -10.5t-53.5 -16t-44.5 -19.5zM1056 342q1 23 -8 48t-27 45.5t-46 33.5t-65 13q-43 0 -79.5 -11t-67 -30t-54 -44.5t-39.5 -54.5h386zM549 251q1 5 3 13q-20 -14 -43 -18t-52 -3l-133 2q-37 0 -67.5 -10.5
t-52 -27.5t-33 -37.5t-11.5 -39.5q0 -26 22.5 -43t73.5 -14q37 2 83 15.5t88.5 37t76 55.5t45.5 70z" />
    <glyph glyph-name="ccedilla" unicode="&#xe7;" horiz-adv-x="646" 
d="M110 270q17 72 57.5 125.5t92.5 89t110.5 53.5t111.5 18q74 0 134.5 -30t91.5 -87l-77 -56q-12 25 -29.5 42.5t-39.5 28t-47 15.5t-51 5q-63 0 -113 -23t-85 -59.5t-53.5 -81t-18.5 -87.5q0 -32 10.5 -60t32 -49.5t54.5 -34t79 -12.5q56 0 109.5 20.5t98.5 69.5l52 -56
q-58 -56 -134 -87t-157 -31l-15 -23q21 -5 30 -17.5t9 -27.5q0 -12 -5.5 -25t-15 -23t-22.5 -16.5t-28 -6.5q-16 0 -26.5 4.5t-18.5 9.5q-9 6 -15 15l24 31q4 -11 15.5 -18.5t23.5 -7.5q22 0 28 23q4 14 -6 27t-40 14l26 45q-40 6 -76.5 22t-64 43t-44 64.5t-16.5 85.5
q0 30 8 68z" />
    <glyph glyph-name="egrave" unicode="&#xe8;" horiz-adv-x="662" 
d="M461 716l79 -107l-24 -22l-98 92zM110 270q17 72 57.5 125.5t92.5 89t110.5 53.5t111.5 18q49 0 88.5 -15.5t67 -43t42.5 -67t15 -87.5q0 -35 -7 -69l-487 1q-6 -26 -6 -51q0 -32 10.5 -60.5t32 -50.5t54.5 -34.5t78 -12.5q56 0 110.5 20.5t99.5 69.5l50 -55
q-29 -28 -63.5 -50t-71.5 -37t-74 -23t-71 -8q-46 0 -90.5 13.5t-79.5 41t-56.5 68.5t-21.5 96q0 16 1.5 33t6.5 35zM613 342q1 23 -8 48t-27 45.5t-46 33.5t-65 13q-42 0 -79 -11t-67.5 -30t-54 -44.5t-39.5 -54.5h386z" />
    <glyph glyph-name="eacute" unicode="&#xe9;" horiz-adv-x="662" 
d="M532 725l26 -38l-140 -91l-14 21zM110 270q17 72 57.5 125.5t92.5 89t110.5 53.5t111.5 18q49 0 88.5 -15.5t67 -43t42.5 -67t15 -87.5q0 -35 -7 -69l-487 1q-6 -26 -6 -51q0 -32 10.5 -60.5t32 -50.5t54.5 -34.5t78 -12.5q56 0 110.5 20.5t99.5 69.5l50 -55
q-29 -28 -63.5 -50t-71.5 -37t-74 -23t-71 -8q-46 0 -90.5 13.5t-79.5 41t-56.5 68.5t-21.5 96q0 16 1.5 33t6.5 35zM613 342q1 23 -8 48t-27 45.5t-46 33.5t-65 13q-42 0 -79 -11t-67.5 -30t-54 -44.5t-39.5 -54.5h386z" />
    <glyph glyph-name="ecircumflex" unicode="&#xea;" horiz-adv-x="662" 
d="M387 605l83 100h47l36 -100h-39l-29 64l-59 -64h-39zM110 270q17 72 57.5 125.5t92.5 89t110.5 53.5t111.5 18q49 0 88.5 -15.5t67 -43t42.5 -67t15 -87.5q0 -35 -7 -69l-487 1q-6 -26 -6 -51q0 -32 10.5 -60.5t32 -50.5t54.5 -34.5t78 -12.5q56 0 110.5 20.5t99.5 69.5
l50 -55q-29 -28 -63.5 -50t-71.5 -37t-74 -23t-71 -8q-46 0 -90.5 13.5t-79.5 41t-56.5 68.5t-21.5 96q0 16 1.5 33t6.5 35zM613 342q1 23 -8 48t-27 45.5t-46 33.5t-65 13q-42 0 -79 -11t-67.5 -30t-54 -44.5t-39.5 -54.5h386z" />
    <glyph glyph-name="edieresis" unicode="&#xeb;" horiz-adv-x="662" 
d="M398 639q3 14 15 23.5t26 9.5q13 0 20.5 -9.5t4.5 -23.5q-3 -13 -15 -22.5t-25 -9.5q-14 0 -21.5 9.5t-4.5 22.5zM493 639q3 14 15.5 23.5t26.5 9.5q11 0 18.5 -9.5t4.5 -23.5q-3 -13 -15 -22.5t-23 -9.5q-14 0 -22 9.5t-5 22.5zM110 270q17 72 57.5 125.5t92.5 89
t110.5 53.5t111.5 18q49 0 88.5 -15.5t67 -43t42.5 -67t15 -87.5q0 -35 -7 -69l-487 1q-6 -26 -6 -51q0 -32 10.5 -60.5t32 -50.5t54.5 -34.5t78 -12.5q56 0 110.5 20.5t99.5 69.5l50 -55q-29 -28 -63.5 -50t-71.5 -37t-74 -23t-71 -8q-46 0 -90.5 13.5t-79.5 41t-56.5 68.5
t-21.5 96q0 16 1.5 33t6.5 35zM613 342q1 23 -8 48t-27 45.5t-46 33.5t-65 13q-42 0 -79 -11t-67.5 -30t-54 -44.5t-39.5 -54.5h386z" />
    <glyph glyph-name="igrave" unicode="&#xec;" horiz-adv-x="256" 
d="M259 716l78 -107l-23 -22l-98 92zM196 141l-3.5 -17.5t-1.5 -14.5q0 -17 10 -24.5t36 -7.5h7l-17 -77q-62 0 -94.5 18t-32.5 65q0 9 1 19.5t4 22.5l67 289q1 8 3 16.5t1 16t-5 12t-13 4.5h-23l18 77h23q21 0 39.5 -5.5t32 -16.5t19.5 -28t0 -40z" />
    <glyph glyph-name="iacute" unicode="&#xed;" horiz-adv-x="256" 
d="M330 725l25 -38l-140 -91l-13 21zM196 141l-3.5 -17.5t-1.5 -14.5q0 -17 10 -24.5t36 -7.5h7l-17 -77q-62 0 -94.5 18t-32.5 65q0 9 1 19.5t4 22.5l67 289q1 8 3 16.5t1 16t-5 12t-13 4.5h-23l18 77h23q21 0 39.5 -5.5t32 -16.5t19.5 -28t0 -40z" />
    <glyph glyph-name="icircumflex" unicode="&#xee;" horiz-adv-x="256" 
d="M185 605l82 100h47l37 -100h-39l-29 64l-60 -64h-38zM196 141l-3.5 -17.5t-1.5 -14.5q0 -17 10 -24.5t36 -7.5h7l-17 -77q-62 0 -94.5 18t-32.5 65q0 9 1 19.5t4 22.5l67 289q1 8 3 16.5t1 16t-5 12t-13 4.5h-23l18 77h23q21 0 39.5 -5.5t32 -16.5t19.5 -28t0 -40z" />
    <glyph glyph-name="idieresis" unicode="&#xef;" horiz-adv-x="256" 
d="M196 639q3 14 15 23.5t26 9.5q12 0 20 -9.5t4 -23.5q-2 -13 -14.5 -22.5t-24.5 -9.5q-14 0 -21.5 9.5t-4.5 22.5zM290 639q4 14 16.5 23.5t26.5 9.5q11 0 18.5 -9.5t3.5 -23.5q-3 -13 -14.5 -22.5t-22.5 -9.5q-14 0 -22.5 9.5t-5.5 22.5zM196 141l-3.5 -17.5t-1.5 -14.5
q0 -17 10 -24.5t36 -7.5h7l-17 -77q-62 0 -94.5 18t-32.5 65q0 9 1 19.5t4 22.5l67 289q1 8 3 16.5t1 16t-5 12t-13 4.5h-23l18 77h23q21 0 39.5 -5.5t32 -16.5t19.5 -28t0 -40z" />
    <glyph glyph-name="ntilde" unicode="&#xf1;" horiz-adv-x="702" 
d="M393 641q15 12 33.5 24t42.5 12q12 0 20.5 -4.5t16 -10t16 -10t19.5 -4.5q10 0 23 5t32 19l8 -31q-13 -10 -33 -19.5t-39 -9.5q-14 0 -23.5 4.5t-17.5 10t-16 10t-18 4.5t-23 -6t-32 -22zM75 0l98 423q3 14 2 27t-17 13h-23l18 77h23q19 0 37.5 -5t31.5 -15t19.5 -25.5
t3.5 -37.5q41 43 96.5 68.5t122.5 25.5q95 0 149 -41t54 -124q0 -16 -1.5 -32.5t-6.5 -35.5l-41 -177q-5 -20 -5 -31q0 -17 10.5 -25.5t36.5 -8.5h7l-17 -76q-27 0 -50.5 4t-41 14.5t-27.5 27.5t-10 43q0 15 5 38l34 145q6 26 9.5 48.5t3.5 42.5q0 54 -31.5 84t-110.5 30
q-38 0 -73.5 -11.5t-65 -33t-50.5 -52t-30 -68.5l-72 -312h-88z" />
    <glyph glyph-name="ograve" unicode="&#xf2;" horiz-adv-x="712" 
d="M486 716l79 -107l-24 -22l-98 92zM725 270q-17 -72 -57.5 -125.5t-93 -89t-111 -53t-111.5 -17.5q-46 0 -90.5 13.5t-80 40.5t-57 68t-21.5 96q0 29 8 67q17 72 57.5 125.5t93 89t111 53t111.5 17.5q46 0 90.5 -13.5t80 -40.5t57 -68t21.5 -96q0 -29 -8 -67zM637 270
q6 25 6 49q0 39 -15.5 68.5t-40.5 49t-57 29.5t-65 10q-38 0 -79.5 -13t-79 -38.5t-66.5 -64t-41 -90.5q-6 -26 -6 -49q0 -39 15.5 -68.5t40.5 -49t56.5 -29.5t64.5 -10q38 0 80 13t79.5 38.5t66.5 64t41 90.5z" />
    <glyph glyph-name="oacute" unicode="&#xf3;" horiz-adv-x="712" 
d="M557 725l26 -38l-140 -91l-14 21zM725 270q-17 -72 -57.5 -125.5t-93 -89t-111 -53t-111.5 -17.5q-46 0 -90.5 13.5t-80 40.5t-57 68t-21.5 96q0 29 8 67q17 72 57.5 125.5t93 89t111 53t111.5 17.5q46 0 90.5 -13.5t80 -40.5t57 -68t21.5 -96q0 -29 -8 -67zM637 270
q6 25 6 49q0 39 -15.5 68.5t-40.5 49t-57 29.5t-65 10q-38 0 -79.5 -13t-79 -38.5t-66.5 -64t-41 -90.5q-6 -26 -6 -49q0 -39 15.5 -68.5t40.5 -49t56.5 -29.5t64.5 -10q38 0 80 13t79.5 38.5t66.5 64t41 90.5z" />
    <glyph glyph-name="ocircumflex" unicode="&#xf4;" horiz-adv-x="712" 
d="M412 605l83 100h47l36 -100h-39l-29 64l-59 -64h-39zM725 270q-17 -72 -57.5 -125.5t-93 -89t-111 -53t-111.5 -17.5q-46 0 -90.5 13.5t-80 40.5t-57 68t-21.5 96q0 29 8 67q17 72 57.5 125.5t93 89t111 53t111.5 17.5q46 0 90.5 -13.5t80 -40.5t57 -68t21.5 -96
q0 -29 -8 -67zM637 270q6 25 6 49q0 39 -15.5 68.5t-40.5 49t-57 29.5t-65 10q-38 0 -79.5 -13t-79 -38.5t-66.5 -64t-41 -90.5q-6 -26 -6 -49q0 -39 15.5 -68.5t40.5 -49t56.5 -29.5t64.5 -10q38 0 80 13t79.5 38.5t66.5 64t41 90.5z" />
    <glyph glyph-name="otilde" unicode="&#xf5;" horiz-adv-x="712" 
d="M398 641q15 12 33.5 24t42.5 12q12 0 20.5 -4.5t16 -10t15.5 -10t19 -4.5t24 5t31 19l9 -31q-13 -10 -33 -19.5t-39 -9.5q-14 0 -23.5 4.5t-17.5 10t-16 10t-18 4.5t-23 -6t-32 -22zM725 270q-17 -72 -57.5 -125.5t-93 -89t-111 -53t-111.5 -17.5q-46 0 -90.5 13.5
t-80 40.5t-57 68t-21.5 96q0 29 8 67q17 72 57.5 125.5t93 89t111 53t111.5 17.5q46 0 90.5 -13.5t80 -40.5t57 -68t21.5 -96q0 -29 -8 -67zM637 270q6 25 6 49q0 39 -15.5 68.5t-40.5 49t-57 29.5t-65 10q-38 0 -79.5 -13t-79 -38.5t-66.5 -64t-41 -90.5q-6 -26 -6 -49
q0 -39 15.5 -68.5t40.5 -49t56.5 -29.5t64.5 -10q38 0 80 13t79.5 38.5t66.5 64t41 90.5z" />
    <glyph glyph-name="odieresis" unicode="&#xf6;" horiz-adv-x="712" 
d="M423 639q3 14 15 23.5t26 9.5q13 0 20.5 -9.5t4.5 -23.5q-3 -13 -15 -22.5t-25 -9.5q-14 0 -21.5 9.5t-4.5 22.5zM518 639q3 14 15.5 23.5t26.5 9.5q11 0 18.5 -9.5t4.5 -23.5q-3 -13 -15 -22.5t-23 -9.5q-14 0 -22 9.5t-5 22.5zM725 270q-17 -72 -57.5 -125.5t-93 -89
t-111 -53t-111.5 -17.5q-46 0 -90.5 13.5t-80 40.5t-57 68t-21.5 96q0 29 8 67q17 72 57.5 125.5t93 89t111 53t111.5 17.5q46 0 90.5 -13.5t80 -40.5t57 -68t21.5 -96q0 -29 -8 -67zM637 270q6 25 6 49q0 39 -15.5 68.5t-40.5 49t-57 29.5t-65 10q-38 0 -79.5 -13
t-79 -38.5t-66.5 -64t-41 -90.5q-6 -26 -6 -49q0 -39 15.5 -68.5t40.5 -49t56.5 -29.5t64.5 -10q38 0 80 13t79.5 38.5t66.5 64t41 90.5z" />
    <glyph glyph-name="divide" unicode="&#xf7;" horiz-adv-x="457" 
d="M302 521q5 20 21.5 33.5t36.5 13.5t30.5 -13.5t5.5 -33.5t-21.5 -33.5t-36.5 -13.5t-30.5 13.5t-5.5 33.5zM107 302l6 28h383l-6 -28h-383zM203 91q5 20 21.5 33t36.5 13t30 -13t5 -33t-21 -34t-36 -14t-30.5 14t-5.5 34z" />
    <glyph glyph-name="oslash" unicode="&#xf8;" horiz-adv-x="712" 
d="M725 270q-17 -72 -57.5 -125.5t-93 -89t-111 -53t-111.5 -17.5q-30 0 -59.5 5.5t-56.5 16.5l-76 -88h-77l102 117q-37 28 -59.5 69t-22.5 98q0 29 8 67q17 72 57.5 125.5t93 89t111 53t111.5 17.5q33 0 66 -7t62 -21l81 92h77l-108 -124q32 -27 51.5 -66.5t19.5 -91.5
q0 -29 -8 -67zM552 458q-41 18 -87 18q-38 0 -79.5 -13t-79 -38.5t-66.5 -64t-41 -90.5q-6 -27 -6 -49q0 -38 14.5 -66.5t37.5 -48.5zM637 270q6 25 6 49q0 34 -11.5 60.5t-30.5 45.5l-304 -348q33 -13 73 -13q38 0 80 13t79.5 38.5t66.5 64t41 90.5z" />
    <glyph glyph-name="ugrave" unicode="&#xf9;" horiz-adv-x="695" 
d="M478 716l78 -107l-23 -22l-98 92zM198 540h88l-73 -317q-3 -11 -4 -22t-1 -21q0 -31 11.5 -54t30.5 -38t44.5 -22.5t53.5 -7.5q33 0 68 10.5t65 31.5t52.5 52.5t32.5 73.5l72 314h88l-92 -399l-3.5 -17.5t-1.5 -14.5q0 -17 10 -24.5t36 -7.5h7l-17 -77q-63 0 -96 18.5
t-32 66.5q-46 -51 -106 -76t-120 -25q-39 0 -74 11t-61.5 33.5t-42.5 55.5t-16 77q0 27 8 62z" />
    <glyph glyph-name="uacute" unicode="&#xfa;" horiz-adv-x="695" 
d="M549 725l25 -38l-140 -91l-13 21zM198 540h88l-73 -317q-3 -11 -4 -22t-1 -21q0 -31 11.5 -54t30.5 -38t44.5 -22.5t53.5 -7.5q33 0 68 10.5t65 31.5t52.5 52.5t32.5 73.5l72 314h88l-92 -399l-3.5 -17.5t-1.5 -14.5q0 -17 10 -24.5t36 -7.5h7l-17 -77q-63 0 -96 18.5
t-32 66.5q-46 -51 -106 -76t-120 -25q-39 0 -74 11t-61.5 33.5t-42.5 55.5t-16 77q0 27 8 62z" />
    <glyph glyph-name="ucircumflex" unicode="&#xfb;" horiz-adv-x="695" 
d="M404 605l82 100h47l37 -100h-39l-29 64l-60 -64h-38zM198 540h88l-73 -317q-3 -11 -4 -22t-1 -21q0 -31 11.5 -54t30.5 -38t44.5 -22.5t53.5 -7.5q33 0 68 10.5t65 31.5t52.5 52.5t32.5 73.5l72 314h88l-92 -399l-3.5 -17.5t-1.5 -14.5q0 -17 10 -24.5t36 -7.5h7l-17 -77
q-63 0 -96 18.5t-32 66.5q-46 -51 -106 -76t-120 -25q-39 0 -74 11t-61.5 33.5t-42.5 55.5t-16 77q0 27 8 62z" />
    <glyph glyph-name="udieresis" unicode="&#xfc;" horiz-adv-x="695" 
d="M415 639q3 14 15 23.5t26 9.5q12 0 20 -9.5t4 -23.5q-2 -13 -14.5 -22.5t-24.5 -9.5q-14 0 -21.5 9.5t-4.5 22.5zM509 639q4 14 16.5 23.5t26.5 9.5q11 0 18.5 -9.5t3.5 -23.5q-3 -13 -14.5 -22.5t-22.5 -9.5q-14 0 -22.5 9.5t-5.5 22.5zM198 540h88l-73 -317
q-3 -11 -4 -22t-1 -21q0 -31 11.5 -54t30.5 -38t44.5 -22.5t53.5 -7.5q33 0 68 10.5t65 31.5t52.5 52.5t32.5 73.5l72 314h88l-92 -399l-3.5 -17.5t-1.5 -14.5q0 -17 10 -24.5t36 -7.5h7l-17 -77q-63 0 -96 18.5t-32 66.5q-46 -51 -106 -76t-120 -25q-39 0 -74 11
t-61.5 33.5t-42.5 55.5t-16 77q0 27 8 62z" />
    <glyph glyph-name="yacute" unicode="&#xfd;" horiz-adv-x="686" 
d="M544 725l26 -38l-140 -91l-14 21zM205 540h88l-73 -317q-3 -12 -4 -22.5t-1 -21.5q0 -32 11 -55.5t30.5 -39t44.5 -23.5t54 -8q33 0 67 10.5t64 31.5t52.5 52.5t33.5 73.5l73 319h88l-106 -460q-37 -158 -139 -244.5t-262 -86.5q-51 0 -104.5 15t-93.5 38l46 79
q33 -21 81.5 -34.5t94.5 -13.5q71 0 120.5 18.5t82.5 51.5t53.5 77.5t32.5 96.5q-46 -49 -105 -73t-116 -24q-39 0 -74 11t-62 33.5t-42.5 56t-15.5 78.5q0 15 2 31t6 33z" />
    <glyph glyph-name="thorn" unicode="&#xfe;" horiz-adv-x="691" 
d="M704 270q-15 -68 -51.5 -121t-84 -89.5t-101 -55.5t-104.5 -19q-60 0 -108 28.5t-68 88.5l-58 -252h-88l185 800h88l-50 -213q48 60 109 89t122 29q43 0 82.5 -14t69.5 -41.5t48 -67t18 -90.5q0 -35 -9 -72zM616 270q7 28 7 56q0 38 -13 66.5t-34.5 48t-50.5 29.5t-60 10
q-36 0 -72.5 -13t-69 -39t-58 -65.5t-37.5 -92.5q-8 -37 -8 -63q0 -38 12 -65.5t32 -46t47 -27.5t57 -9q37 0 76 13.5t73 40t60.5 66t38.5 91.5z" />
    <glyph glyph-name="ydieresis" unicode="&#xff;" horiz-adv-x="686" 
d="M410 639q3 14 15 23.5t26 9.5q13 0 20.5 -9.5t4.5 -23.5q-3 -13 -15 -22.5t-25 -9.5q-14 0 -21.5 9.5t-4.5 22.5zM505 639q3 14 15.5 23.5t26.5 9.5q11 0 18.5 -9.5t4.5 -23.5q-3 -13 -15 -22.5t-23 -9.5q-14 0 -22 9.5t-5 22.5zM205 540h88l-73 -317q-3 -12 -4 -22.5
t-1 -21.5q0 -32 11 -55.5t30.5 -39t44.5 -23.5t54 -8q33 0 67 10.5t64 31.5t52.5 52.5t33.5 73.5l73 319h88l-106 -460q-37 -158 -139 -244.5t-262 -86.5q-51 0 -104.5 15t-93.5 38l46 79q33 -21 81.5 -34.5t94.5 -13.5q71 0 120.5 18.5t82.5 51.5t53.5 77.5t32.5 96.5
q-46 -49 -105 -73t-116 -24q-39 0 -74 11t-62 33.5t-42.5 56t-15.5 78.5q0 15 2 31t6 33z" />
    <glyph glyph-name="Dcroat" unicode="&#x110;" horiz-adv-x="806" 
d="M591 700q67 -1 116 -22.5t80.5 -56.5t46.5 -81.5t15 -98.5q0 -23 -3 -45.5t-8 -45.5q-15 -65 -50 -127t-87 -111t-120.5 -80t-150.5 -32h-352l83 360h-50l17 72h50l62 268h351zM310 618l-43 -186h317l-17 -72h-317l-64 -277h255q60 0 110.5 23t89.5 60.5t65 85.5t38 98
q9 37 9 74q0 39 -11 74.5t-34 62t-58.5 42t-84.5 15.5h-255z" />
    <glyph glyph-name="dcroat" unicode="&#x111;" horiz-adv-x="689" 
d="M110 270q16 67 52.5 120t84 90t101 56t104.5 19q60 0 107 -28t67 -87l39 169h-281l17 72h281l16 69h87l-16 -69h87l-16 -72h-87l-108 -468q-5 -20 -5 -31q0 -17 10.5 -25t35.5 -8h7l-17 -77q-68 0 -100.5 22t-26.5 79q-48 -60 -108.5 -88t-120.5 -28q-43 0 -82.5 14
t-69.5 41.5t-48 67.5t-18 91q0 17 1.5 34.5t6.5 36.5zM199 270q-4 -15 -5.5 -29.5t-1.5 -27.5q0 -38 13 -66.5t34.5 -48t50 -29.5t60.5 -10q35 0 72 12.5t69 38.5t57.5 65.5t38.5 92.5v3q7 31 7 61q0 37 -11.5 65t-32 46.5t-47 27.5t-56.5 9q-37 0 -76 -13.5t-73.5 -40
t-60.5 -66t-38 -90.5z" />
    <glyph glyph-name="dotlessi" unicode="&#x131;" horiz-adv-x="256" 
d="M196 141l-3.5 -17.5t-1.5 -14.5q0 -17 10 -24.5t36 -7.5h7l-17 -77q-62 0 -94.5 18t-32.5 65q0 9 1 19.5t4 22.5l67 289q1 8 3 16.5t1 16t-5 12t-13 4.5h-23l18 77h23q21 0 39.5 -5.5t32 -16.5t19.5 -28t0 -40z" />
    <glyph glyph-name="Lslash" unicode="&#x141;" horiz-adv-x="657" 
d="M133 236l-67 -24l-10 61l93 34l91 393h89l-83 -357l157 57l10 -61l-183 -67l-44 -191h471l-19 -81h-560z" />
    <glyph glyph-name="lslash" unicode="&#x142;" horiz-adv-x="241" 
d="M337 750l-90 -391l103 48l17 -58l-137 -64l-34 -144q-2 -9 -3 -17t-1 -14q0 -17 10 -25t36 -8h7l-17 -77q-63 0 -95.5 18.5t-32.5 65.5q0 16 5 41l27 115l-104 -48l-17 58l138 64l101 436h87z" />
    <glyph glyph-name="OE" unicode="&#x152;" horiz-adv-x="1213" 
d="M1117 81l-19 -81h-658q-59 0 -116.5 15t-103 47.5t-73.5 82.5t-28 119q0 20 2.5 41.5t7.5 44.5q21 93 72.5 159t118 108.5t141 62.5t142.5 20h651l-19 -81h-477l-53 -228h416l-19 -81h-415l-53 -229h483zM668 614h-85q-52 0 -108.5 -14.5t-107 -46.5t-90 -82t-55.5 -121
q-8 -37 -8 -65q0 -53 21.5 -91t56.5 -62t79.5 -35t89.5 -11h85z" />
    <glyph glyph-name="oe" unicode="&#x153;" horiz-adv-x="1191" 
d="M1159 101q-29 -28 -63.5 -50t-71 -37t-74 -23t-71.5 -8q-36 0 -71.5 8.5t-66 25t-55 41.5t-38.5 58q-30 -33 -66 -58t-74.5 -41.5t-77.5 -24.5t-75 -8q-47 0 -91.5 13.5t-79.5 40.5t-56.5 68t-21.5 96q0 16 1.5 33t6.5 35q16 72 56.5 125.5t93 89t111 53t111.5 17.5
q36 0 71.5 -8.5t66.5 -25t55.5 -41t39.5 -57.5q30 33 65.5 58t74 41.5t77.5 25t75 8.5q49 0 88.5 -15.5t67 -43t42.5 -67t15 -87.5q0 -35 -7 -69l-487 1q-6 -26 -6 -51q0 -32 10.5 -60.5t32 -50.5t54.5 -34.5t78 -12.5q56 0 110.5 20.5t99.5 69.5zM1142 342q1 23 -7.5 48
t-26.5 45.5t-46 33.5t-66 13q-42 0 -79 -11t-67.5 -30t-54 -44.5t-39.5 -54.5h386zM639 270q6 27 6 49q0 39 -15.5 68.5t-40 49t-56.5 29t-65 9.5q-38 0 -79.5 -12.5t-79 -38t-66.5 -64t-41 -90.5q-6 -27 -6 -50q0 -39 15.5 -68.5t40 -49t56.5 -29t65 -9.5q38 0 80 12.5
t79.5 38t66 64.5t40.5 91z" />
    <glyph glyph-name="Scaron" unicode="&#x160;" horiz-adv-x="698" 
d="M464 858h38l30 -65l59 65h39l-83 -100h-47zM718 549q-14 19 -37.5 34.5t-53 26t-63 16.5t-67.5 6q-36 0 -71.5 -7.5t-65.5 -23t-51.5 -40.5t-29.5 -60q-7 -31 7 -50t42.5 -30.5t67 -18.5t80 -14t82 -16t72.5 -26t52 -43.5t20 -67.5q0 -21 -6 -45q-13 -55 -47.5 -95
t-83 -65.5t-105.5 -38t-115 -12.5q-46 0 -89.5 7.5t-80.5 21.5t-65.5 34.5t-43.5 46.5l72 67q12 -22 36.5 -39t56.5 -29t68.5 -18.5t72.5 -6.5q39 0 77 7.5t70 23t54 39.5t30 57t-6 53.5t-42 33t-66.5 20t-80 14t-82 15.5t-72.5 25t-51.5 42t-19.5 67q0 10 1 21t4 23
q13 57 46 97t78 66t98.5 38t107.5 12q42 0 83 -7t76 -19.5t63.5 -31t45.5 -40.5z" />
    <glyph glyph-name="scaron" unicode="&#x161;" horiz-adv-x="638" 
d="M396 698h39l30 -65l59 65h39l-83 -100h-47zM628 409q-12 15 -35 28t-51.5 22t-61 14.5t-64.5 5.5q-30 0 -58.5 -5t-51.5 -16t-38.5 -28t-21.5 -41q-7 -30 18.5 -45t67.5 -23.5t93 -15.5t95.5 -20.5t74.5 -38.5t30 -70q0 -17 -4 -33q-10 -44 -40.5 -75.5t-73 -52
t-93.5 -30.5t-103 -10q-41 0 -79.5 6t-71.5 17t-58.5 27.5t-38.5 37.5l68 61q10 -17 31.5 -31t50 -23.5t61.5 -14.5t67 -5t66 5.5t58 17t44 29t24 42.5t-7 40.5t-38.5 25t-60 15t-71 10.5t-72.5 12.5t-64 21t-45.5 35t-17.5 55.5q0 17 4 33q10 43 37.5 74t65.5 50.5
t83.5 28.5t92.5 9q39 0 77 -6t71 -16.5t59.5 -25.5t42.5 -34z" />
    <glyph glyph-name="Ydieresis" unicode="&#x178;" horiz-adv-x="708" 
d="M458 799q4 14 15.5 23.5t25.5 9.5q13 0 20.5 -9.5t4.5 -23.5q-3 -13 -15 -22.5t-25 -9.5q-14 0 -21.5 9.5t-4.5 22.5zM553 799q3 14 15.5 23.5t26.5 9.5q11 0 18.5 -9.5t4.5 -23.5q-3 -13 -15 -22.5t-23 -9.5q-14 0 -22 9.5t-5 22.5zM284 700l153 -336l309 336h104
l-385 -411l-67 -289h-89l67 289l-196 411h104z" />
    <glyph glyph-name="Zcaron" unicode="&#x17d;" horiz-adv-x="652" 
d="M441 858h38l30 -65l59 65h39l-82 -100h-48zM159 81h475l-19 -81h-579l19 81l572 538h-440l19 81h539l-19 -81h-1h1z" />
    <glyph glyph-name="zcaron" unicode="&#x17e;" horiz-adv-x="594" 
d="M375 698h38l30 -65l59 65h39l-83 -100h-47zM162 80h421l-18 -80h-537l18 80l493 380h-380l18 80h489l-18 -80z" />
    <glyph glyph-name="circumflex" unicode="&#x2c6;" horiz-adv-x="200" 
d="M156 605l83 100h47l36 -100h-38l-30 64l-59 -64h-39z" />
    <glyph glyph-name="caron" unicode="&#x2c7;" horiz-adv-x="200" 
d="M178 698h38l30 -65l59 65h39l-82 -100h-48z" />
    <glyph glyph-name="ring" unicode="&#x2da;" horiz-adv-x="201" 
d="M235 576q-32 0 -47 16.5t-15 39.5q0 15 6.5 31t19 29t30 21.5t40.5 8.5q32 0 46 -16.5t14 -38.5q0 -15 -6.5 -31.5t-18.5 -29.5t-29.5 -21.5t-39.5 -8.5zM260 688q-23 0 -36 -15.5t-13 -32.5q0 -12 7 -20.5t24 -8.5q23 0 35.5 15.5t12.5 32.5q0 11 -7 20t-23 9z" />
    <glyph glyph-name="tilde" unicode="&#x2dc;" horiz-adv-x="283" 
d="M185 641q15 12 33.5 24t41.5 12q12 0 20.5 -4.5t16.5 -10t16 -10t19 -4.5t24 5t31 19l8 -31q-12 -10 -32.5 -19.5t-39.5 -9.5q-14 0 -23.5 4.5t-17.5 10t-15.5 10t-17.5 4.5t-23 -6t-32 -22z" />
    <glyph glyph-name="endash" unicode="&#x2013;" horiz-adv-x="416" 
d="M114 333h342l-16 -66h-342z" />
    <glyph glyph-name="emdash" unicode="&#x2014;" horiz-adv-x="654" 
d="M113 331h581l-17 -72h-580z" />
    <glyph glyph-name="quoteleft" unicode="&#x2018;" horiz-adv-x="208" 
d="M237 505h-84l131 195h49z" />
    <glyph glyph-name="quoteright" unicode="&#x2019;" horiz-adv-x="208" 
d="M249 700h84l-131 -195h-49z" />
    <glyph glyph-name="quotesinglbase" unicode="&#x201a;" horiz-adv-x="208" 
d="M112 107h84l-131 -195h-49z" />
    <glyph glyph-name="quotedblleft" unicode="&#x201c;" horiz-adv-x="349" 
d="M237 505h-84l131 195h50zM378 505h-84l131 195h49z" />
    <glyph glyph-name="quotedblright" unicode="&#x201d;" horiz-adv-x="349" 
d="M390 700h84l-131 -195h-49zM250 700h84l-131 -195h-50z" />
    <glyph glyph-name="quotedblbase" unicode="&#x201e;" horiz-adv-x="342" 
d="M112 107h84l-131 -195h-49zM246 107h84l-131 -195h-49z" />
    <glyph glyph-name="dagger" unicode="&#x2020;" horiz-adv-x="410" 
d="M404 700l-42 -181h131l-17 -74h-131l-123 -531h-74l122 531h-131l18 74h130l42 181h75z" />
    <glyph glyph-name="bullet" unicode="&#x2022;" horiz-adv-x="235" 
d="M118 350q3 16 13 30.5t24 25.5t30 18t33 7q32 0 50.5 -24.5t11.5 -56.5q-4 -17 -14 -31.5t-24 -26t-30 -18t-32 -6.5q-33 0 -51.5 24.5t-10.5 57.5z" />
    <glyph glyph-name="guilsinglleft" unicode="&#x2039;" horiz-adv-x="270" 
d="M122 368l255 253l-21 -91l-183 -180l100 -180l-21 -91l-139 253z" />
    <glyph glyph-name="guilsinglright" unicode="&#x203a;" horiz-adv-x="270" 
d="M319 368l-9 -36l-255 -253l21 91l183 180l-100 180l21 91z" />
    <glyph glyph-name="Euro" unicode="&#x20ac;" horiz-adv-x="721" 
d="M234 457q27 53 66.5 100t91 82t114 55.5t134.5 20.5q57 0 106.5 -18.5t86.5 -52.5l-65 -71q-20 22 -57 39.5t-88 17.5q-50 0 -94 -13.5t-81.5 -36.5t-67 -55t-51.5 -68h193l-15 -66h-209q-8 -23 -13 -45.5t-7 -45.5h208l-16 -67h-189q6 -34 22 -63.5t42 -51.5t63 -34.5
t86 -12.5q65 0 106 18.5t64 35.5l34 -69q-52 -35 -104.5 -53t-121.5 -18q-71 0 -123 19.5t-87.5 53.5t-54 79t-22.5 96h-113l16 67h99q4 44 20 91h-98l15 66h110z" />
    <glyph glyph-name="trademark" unicode="&#x2122;" horiz-adv-x="408" 
d="M432 602l76 98h29l-42 -181h-34l24 104l-53 -68h-22l-22 67l-24 -103h-33l42 181h28zM285 670l-35 -151h-34l35 151h-60l7 30h153l-7 -30h-59z" />
    <glyph glyph-name="minus" unicode="&#x2212;" horiz-adv-x="465" 
d="M126 386h391l-17 -73h-391z" />
    <glyph glyph-name="a.salt" horiz-adv-x="672" 
d="M207 492q24 13 54 24t62.5 18.5t66 12t66.5 4.5q42 0 80.5 -8t68 -25.5t46.5 -45.5t17 -68q0 -23 -6 -48l-50 -215q-2 -9 -3 -17t-1 -14q0 -17 9.5 -25t35.5 -8h7l-17 -77q-62 0 -94.5 18t-32.5 65q0 9 1 19.5t4 22.5l2 11q-27 -32 -62 -57.5t-75 -43.5t-83.5 -28.5
t-85.5 -11.5q-39 -2 -67.5 6.5t-46.5 23.5t-27 35.5t-9 44.5q0 36 19 74.5t54.5 70.5t86 51.5t113.5 18.5l139 -2h24.5t28.5 3t25 10t16 20q7 33 -1.5 56t-28 37.5t-47.5 20.5t-61 6q-56 0 -114 -14.5t-98 -35.5zM553 264q-20 -13 -43.5 -17.5t-51.5 -3.5l-134 2
q-37 0 -67 -10.5t-51.5 -27.5t-33.5 -37.5t-12 -39.5q0 -26 23 -43t74 -14q37 2 84 16.5t90 38.5t76 57t44 73z" />
    <glyph glyph-name="d.salt" horiz-adv-x="689" 
d="M786 750l-173 -750h-72l9 101q-48 -60 -108.5 -88t-120.5 -28q-44 0 -83.5 14t-69.5 41.5t-48 67t-18 90.5q0 34 9 72q16 67 52.5 120t83.5 90t101 56t104 19q59 0 107 -28.5t68 -86.5l71 310h88zM199 270q-4 -15 -5.5 -29.5t-1.5 -27.5q0 -38 13 -66.5t34.5 -48
t50 -29.5t60.5 -10q36 0 72.5 13t69 39t58 65.5t37.5 93.5q8 37 8 63q0 37 -11.5 64.5t-32 46t-47.5 27.5t-57 9q-37 0 -76 -13.5t-73 -40t-60.5 -66t-38.5 -90.5z" />
    <glyph glyph-name="g.salt" horiz-adv-x="678" 
d="M647 340q-12 -51 -41.5 -90t-70 -65t-87.5 -39.5t-92 -13.5q-38 0 -71.5 9t-59.5 27q-11 -5 -19.5 -11t-11.5 -17q-5 -20 11.5 -30t46 -15.5t69 -7.5t81.5 -5t82.5 -8.5t72.5 -18t51.5 -34t19.5 -55.5q0 -16 -4 -31q-10 -42 -43.5 -74.5t-81.5 -54t-106 -32.5t-115 -11
q-52 0 -100 9t-85 27.5t-59 47t-22 66.5q0 8 1 15.5t3 15.5q10 42 43 67t74 41q-14 14 -19.5 32.5t0.5 44.5q7 29 28.5 48t44.5 28q-27 38 -27 90q0 28 7 56q12 51 41.5 90t70 65t87.5 39.5t92 13.5q46 0 86.5 -14t67.5 -42q24 22 32 52t6 62l83 8q1 -53 -20.5 -95
t-70.5 -72q12 -29 12 -63q0 -27 -7 -55zM246 345q-4 -15 -4 -31q0 -26 11 -46t29.5 -33t42.5 -19.5t51 -6.5q30 0 61 8.5t57.5 25.5t46 42.5t27.5 59.5q4 15 4 31q0 26 -11 46t-29.5 33.5t-42.5 20t-50 6.5q-30 0 -61 -8.5t-58 -26t-46.5 -43t-27.5 -59.5zM193 21
q-14 -5 -29.5 -12.5t-29 -17t-23 -21t-12.5 -25.5q-6 -26 8.5 -45.5t42.5 -32.5t66.5 -19t79.5 -6t82 6t75 18t57 29t28 39t-9.5 35t-42 19.5t-65 9t-77.5 5t-79.5 6t-71.5 12.5z" />
    <glyph glyph-name="h.salt" horiz-adv-x="687" 
d="M77 0l173 750h87l-70 -306q39 49 94 78t127 29q95 0 149 -41t54 -124q0 -16 -1.5 -32.5t-6.5 -35.5l-74 -318h-88l63 272q6 26 9.5 49t3.5 43q0 54 -31.5 83.5t-110.5 29.5q-37 0 -72.5 -10.5t-65 -31.5t-51 -52t-30.5 -71l-72 -312h-87z" />
    <glyph glyph-name="i.salt" horiz-adv-x="236" 
d="M214 660q5 25 24 40t45 15t38 -15t6 -40t-24.5 -40t-44.5 -15t-38 15t-6 40zM74 0l125 540h87l-125 -540h-87z" />
    <glyph glyph-name="j.salt" horiz-adv-x="235" 
d="M214 660q5 25 24 40t45 15t37.5 -15t6.5 -40q-6 -25 -24.5 -40t-44.5 -15t-38 15t-6 40zM201 540h88l-159 -685h-87z" />
    <glyph glyph-name="k.salt" horiz-adv-x="692" 
d="M240 708h88l-99 -429l356 261h122l-285 -207l261 -333h-126l-212 277l-140 -101l-41 -176h-87z" />
    <glyph glyph-name="l.salt" horiz-adv-x="241" 
d="M250 750h87l-173 -750h-87z" />
    <glyph glyph-name="m.salt" horiz-adv-x="960" 
d="M77 0l124 540h72l-2 -76q36 41 83.5 64t105.5 23q133 0 150 -114q35 53 87.5 83.5t121.5 30.5q151 0 151 -144q0 -20 -2.5 -42t-8.5 -47l-73 -318h-88l72 311q9 40 9 73q0 43 -20 68t-71 25q-59 0 -110 -36.5t-74 -103.5q-1 -5 -1.5 -9.5t-2.5 -9.5l-73 -318l-88 1
l71 310q5 20 7.5 38t2.5 35q0 43 -20.5 68t-71.5 25q-32 0 -62.5 -10.5t-56 -31.5t-45 -52t-28.5 -71l-72 -312h-87z" />
    <glyph glyph-name="n.salt" horiz-adv-x="684" 
d="M164 0h-87l124 540h72l-4 -83q40 43 96.5 68.5t122.5 25.5q96 0 150 -40.5t54 -123.5q0 -32 -9 -69l-73 -318h-89l63 272q6 26 9.5 49t3.5 43q0 54 -31.5 83.5t-110.5 29.5q-37 0 -72.5 -11.5t-65 -33t-51 -52t-30.5 -68.5z" />
    <glyph glyph-name="p.salt" horiz-adv-x="692" 
d="M705 270q-15 -68 -51.5 -121t-84 -89.5t-101 -55.5t-104.5 -19q-60 0 -108 28.5t-68 88.5l-74 -319h-87l174 757h72l-10 -106q48 63 109.5 92t123.5 29q43 0 82.5 -14t69.5 -41.5t48 -67t18 -90.5q0 -35 -9 -72zM617 270q7 28 7 56q0 38 -13 66.5t-34.5 48t-50.5 29.5
t-60 10q-36 0 -72.5 -13t-69 -39t-58 -65.5t-37.5 -92.5q-8 -37 -8 -63q0 -38 12 -65.5t32 -46t47 -27.5t57 -9q37 0 76 13.5t73 40t60.5 66t38.5 91.5z" />
    <glyph glyph-name="r.salt" horiz-adv-x="448" 
d="M77 0l124 540h72l-7 -95q41 45 91.5 74t105.5 29q41 0 78 -17l-38 -74q-21 8 -46 8q-32 0 -67 -11t-66.5 -30t-54.5 -45t-30 -56l-75 -323h-87z" />
    <glyph glyph-name="u.salt" horiz-adv-x="678" 
d="M199 540h87l-73 -317q-3 -11 -4 -22t-1 -21q0 -31 11.5 -54t30.5 -38t44.5 -22.5t53.5 -7.5q33 0 68 10.5t65 31.5t52.5 52.5t32.5 73.5l73 314h87l-124 -540h-88l19 80q-46 -48 -105 -72t-116 -24q-39 0 -74.5 11t-62 33.5t-42.5 55.5t-16 77q0 27 8 62z" />
    <glyph glyph-name="y.salt" horiz-adv-x="689" 
d="M396 11q-35 -48 -74 -94.5t-80.5 -82.5t-83.5 -58t-83 -22t-73 15.5t-46 27.5l52 72q8 -6 31 -19t51 -13q24 0 50.5 14t53 35.5t51.5 49t47 54.5l-148 550h97l115 -463l330 463h97z" />
    </font>
</defs>
</svg>
