<?xml version="1.0" standalone="no"?>
<!DOCTYPE svg PUBLIC "-//W3C//DTD SVG 1.1//EN" "http://www.w3.org/Graphics/SVG/1.1/DTD/svg11.dtd" >
<svg xmlns="http://www.w3.org/2000/svg" xmlns:xlink="http://www.w3.org/1999/xlink" version="1.1">
<metadata>
Created by FontForge 20201107 at Sat Dec  5 09:28:21 2020
 By 
Copyright (c) 2020 by Sarid Ezra. All rights reserved.
</metadata>
<defs>
<font id="Ezra-Regular" horiz-adv-x="850" >
  <font-face 
    font-family="Ezra"
    font-weight="400"
    font-stretch="normal"
    units-per-em="1000"
    panose-1="0 0 0 0 0 0 0 0 0 0"
    ascent="750"
    descent="-250"
    x-height="540"
    cap-height="700"
    bbox="-72 -251 1175 885"
    underline-thickness="50"
    underline-position="-125"
    unicode-range="U+000D-FB01"
  />
<missing-glyph horiz-adv-x="500" 
 />
    <glyph glyph-name="fi" unicode="fi" horiz-adv-x="596" 
d="M431 0v466h-240v-466h-91v466h-81l-1 57l88 14q-32 44 -32 93q0 31 17 56t45.5 42.5t65.5 27t77 9.5q33 0 66.5 -7t64 -22t55.5 -38.5t42 -55.5l-70 -41q-27 47 -72 68t-89 21q-24 0 -46 -6t-38.5 -16.5t-26 -26t-9.5 -34.5q0 -17 9 -35t26 -32h328v-540h-88z" />
    <glyph glyph-name=".notdef" horiz-adv-x="500" 
 />
    <glyph glyph-name="uni0000" horiz-adv-x="0" 
 />
    <glyph glyph-name="uni0000" horiz-adv-x="0" 
 />
    <glyph glyph-name="uni000D" unicode="&#xd;" horiz-adv-x="250" 
 />
    <glyph glyph-name="space" unicode=" " horiz-adv-x="328" 
 />
    <glyph glyph-name="exclam" unicode="!" horiz-adv-x="179" 
d="M41 700h93l-16 -534h-61zM37 47q0 23 15 37.5t37 14.5t36.5 -14.5t14.5 -37.5q0 -21 -14.5 -36.5t-36.5 -15.5t-37 15.5t-15 36.5z" />
    <glyph glyph-name="quotedbl" unicode="&#x22;" horiz-adv-x="347" 
d="M75 709h88l-78 -211h-53zM222 709h88l-78 -211h-53z" />
    <glyph glyph-name="numbersign" unicode="#" horiz-adv-x="802" 
d="M441 193h-201l-92 -193h-76l93 193h-128v68h160l78 162h-183v67h216l100 210h75l-101 -210h202l100 210h76l-101 -210h104v-67h-136l-78 -162h156v-68h-189l-92 -193h-75zM474 261l78 162h-202l-78 -162h202z" />
    <glyph glyph-name="dollar" unicode="$" horiz-adv-x="755" 
d="M421 750v-68q83 -5 158 -29t119 -63l-54 -65q-32 31 -93.5 50.5t-129.5 24.5v-230q52 -8 103.5 -18.5t92 -31t65.5 -54t25 -86.5q0 -48 -23.5 -84t-63 -61t-91.5 -38.5t-108 -16.5v-42h-62v41q-46 2 -91 9.5t-85 21t-72.5 32.5t-53.5 43l58 61q15 -18 41 -32.5
t58.5 -25.5t69.5 -17.5t75 -8.5v236q-51 7 -100 17.5t-87.5 30t-62.5 51.5t-24 83t22.5 88t60.5 61.5t87.5 37.5t103.5 15v68h62zM359 600q-37 -2 -70.5 -10t-58.5 -22.5t-39.5 -37t-14.5 -52.5q0 -25 14.5 -41.5t39.5 -28t58 -18t71 -12.5v222zM421 62q39 2 74.5 10.5
t62.5 23t42.5 35.5t15.5 50q0 28 -15.5 46t-42.5 30t-62.5 19t-74.5 13v-227z" />
    <glyph glyph-name="percent" unicode="%" horiz-adv-x="821" 
d="M207 429q-40 0 -69.5 12.5t-49.5 33.5t-30 47.5t-10 54.5t10 54.5t30 47t49.5 33t69.5 12.5t70 -12.5t50.5 -33.5t30.5 -47.5t10 -54.5t-10 -54.5t-30.5 -47t-50.5 -33t-70 -12.5zM732 700l-573 -700h-82l573 700h82zM207 665q-23 0 -40.5 -7.5t-29 -20.5t-17.5 -29
t-6 -32q0 -17 6 -32.5t17.5 -28t29 -20t40.5 -7.5q48 0 72 27.5t24 60.5q0 16 -6 32t-18 29t-30 20.5t-42 7.5zM616 0q-40 0 -69.5 12.5t-49.5 33.5t-30 47.5t-10 54.5t10 54.5t30 47t49.5 33t69.5 12.5t70 -12.5t50.5 -33.5t30.5 -47.5t10 -54.5t-10 -54.5t-30.5 -47
t-50.5 -33t-70 -12.5zM615 237q-24 0 -41.5 -7.5t-29 -20.5t-17.5 -29t-6 -33t6 -33t17.5 -28.5t29 -20t41.5 -7.5t42.5 7.5t30.5 20t18 28.5t6 33t-6 33t-18 29t-30.5 20.5t-42.5 7.5z" />
    <glyph glyph-name="ampersand" unicode="&#x26;" horiz-adv-x="821" 
d="M685 -6q-12 9 -25 20q-12 10 -27.5 24t-35.5 31q-55 -52 -126 -76.5t-143 -24.5q-57 0 -109 15t-92.5 45t-64.5 73.5t-24 100.5q0 48 19.5 83.5t51.5 63.5t72.5 49t82.5 39q-23 39 -36.5 76t-13.5 69q0 34 15 60.5t39.5 43.5t55.5 26t63 9q31 0 61.5 -8.5t53.5 -25.5
t37.5 -42.5t14.5 -59.5t-14 -60t-37.5 -47t-54 -38.5t-64.5 -32.5q42 -54 94.5 -109.5t106.5 -106.5q16 29 25 63.5t9 76.5q0 9 -0.5 18.5t-1.5 19.5l85 7q1 -11 1.5 -21.5t0.5 -20.5q0 -62 -14.5 -112t-40.5 -90q32 -29 60 -53.5t49 -41.5q24 -20 44 -37zM341 469
q27 12 51 24.5t42 26t28 29.5t10 36q0 17 -7 29.5t-19 21t-27 13t-31 4.5q-33 0 -60.5 -18.5t-27.5 -55.5q0 -23 10.5 -51t30.5 -59zM306 374q-35 -15 -67 -31.5t-56.5 -37t-39 -45t-14.5 -56.5q0 -37 16.5 -65.5t44 -47.5t63.5 -29t76 -10q54 0 107.5 18.5t96.5 56.5
q-57 52 -117.5 116.5t-109.5 130.5z" />
    <glyph glyph-name="quotesingle" unicode="'" horiz-adv-x="183" 
d="M157 709l-72 -211h-53l37 211h88z" />
    <glyph glyph-name="parenleft" unicode="(" horiz-adv-x="265" 
d="M186 -40q-38 28 -65.5 69.5t-46.5 91t-28 104.5t-9 112t9 112.5t28 105t46.5 90.5t65.5 70l43 -36q-29 -26 -50 -63.5t-35.5 -82.5t-21.5 -95.5t-7 -101.5t7 -101.5t21.5 -95t35.5 -81.5t50 -62l-43 -36v0z" />
    <glyph glyph-name="parenright" unicode=")" horiz-adv-x="265" 
d="M37 -4q28 25 49.5 62t36 81.5t21.5 95t7 101.5t-7 101.5t-21.5 95.5t-36 82.5t-49.5 63.5l43 36q37 -29 65 -70t46.5 -90.5t27.5 -105t9 -112.5t-9 -112t-27.5 -104.5t-46.5 -91t-65 -69.5z" />
    <glyph glyph-name="asterisk" unicode="*" horiz-adv-x="327" 
d="M290 601l-91 -13l61 -66l-51 -39l-46 83l-45 -81l-52 38l59 65l-88 10l18 64l84 -38l-10 76h65l-8 -75l85 38z" />
    <glyph glyph-name="plus" unicode="+" horiz-adv-x="465" 
d="M37 387h158v149h75v-149h158v-73h-158v-161h-75v161h-158v73z" />
    <glyph glyph-name="comma" unicode="," horiz-adv-x="224" 
d="M86 97h96l-116 -201h-61z" />
    <glyph glyph-name="hyphen" unicode="-" horiz-adv-x="529" 
d="M37 387h455v-73h-455v73z" />
    <glyph glyph-name="period" unicode="." horiz-adv-x="195" 
d="M46 47q0 23 15 37.5t37 14.5t36.5 -14.5t14.5 -37.5q0 -21 -14.5 -36.5t-36.5 -15.5t-37 15.5t-15 36.5z" />
    <glyph glyph-name="slash" unicode="/" horiz-adv-x="600" 
d="M563 700l-449 -700h-77l449 700h77z" />
    <glyph glyph-name="zero" unicode="0" horiz-adv-x="777" 
d="M48 350q0 92 29.5 161t77.5 115t109 69t125 23t125 -23t109 -69t77 -115t29 -161t-29 -161t-77 -115t-109 -69t-125 -23t-125 23t-109 69t-77.5 115t-29.5 161zM136 350q0 -70 22 -122.5t57.5 -87.5t81 -52.5t93.5 -17.5q47 0 92.5 17.5t81 52.5t57.5 87.5t22 122.5
t-22 122.5t-57.5 88t-81 53t-92.5 17.5q-48 0 -93.5 -17.5t-81 -53t-57.5 -88t-22 -122.5z" />
    <glyph glyph-name="one" unicode="1" horiz-adv-x="361" 
d="M281 711v-711h-92v574l-118 -99l-43 51l211 185h42z" />
    <glyph glyph-name="two" unicode="2" horiz-adv-x="575" 
d="M441 517q0 27 -12.5 48.5t-33.5 36t-48.5 22t-57.5 7.5q-26 0 -52.5 -6t-50.5 -18t-44.5 -30.5t-35.5 -43.5l-48 74q19 28 45 49t56.5 34.5t64 20t66.5 6.5q46 0 89.5 -12.5t77.5 -37t54.5 -60.5t20.5 -83q0 -55 -24 -96.5t-61.5 -75.5t-83.5 -63.5t-90 -60.5
t-80.5 -66.5t-55.5 -80.5h399v-81h-415h-82q0 75 30 130.5t74.5 98t96.5 76.5t96.5 66.5t74.5 67t30 78.5z" />
    <glyph glyph-name="three" unicode="3" horiz-adv-x="651" 
d="M233 352l2 67q64 -2 109.5 8t74.5 27t42.5 39t13.5 44q0 19 -10 37.5t-28 33t-44.5 23t-59.5 8.5q-54 0 -106 -22.5t-88 -70.5l-57 49q48 65 114 93.5t132 28.5q57 0 101.5 -15t75.5 -40t47 -57t16 -66q0 -44 -27.5 -84.5t-87.5 -67.5q76 -30 112.5 -81t36.5 -106
q0 -41 -19 -80t-56 -70t-91 -49.5t-124 -18.5q-39 0 -78 8.5t-75 26.5t-66.5 45.5t-53.5 65.5l58 59q44 -63 103 -90t119 -27q44 0 79 11t59 30t36.5 42.5t12.5 49.5q0 27 -15 54t-47 48t-81 34t-117 13h-13z" />
    <glyph glyph-name="four" unicode="4" horiz-adv-x="650" 
d="M547 176v-176l-92 -1v177h-427v81l474 444l45 -1v-443h74v-81h-74zM455 257v294l-316 -294h316z" />
    <glyph glyph-name="five" unicode="5" horiz-adv-x="670" 
d="M77 333l46 367h450v-82h-373l-25 -194q42 14 82.5 20.5t82.5 6.5q70 0 123 -19.5t88.5 -51t53 -72.5t17.5 -84q0 -45 -19.5 -88.5t-57.5 -78t-95 -55.5t-133 -21q-41 0 -80 9t-74.5 27.5t-64.5 47.5t-49 69l80 38q10 -27 29.5 -47t44 -32.5t53 -18.5t57.5 -6
q53 0 93.5 14t67.5 37t41 51.5t14 58.5q0 28 -12.5 54.5t-37.5 47t-63 33t-89 12.5q-45 0 -94 -13t-94 -39z" />
    <glyph glyph-name="six" unicode="6" horiz-adv-x="728" 
d="M380 -15q-83 0 -145.5 30.5t-104 81t-62 114.5t-20.5 132q0 69 21.5 135t63.5 117.5t104.5 83.5t145.5 32q60 0 106 -12t79.5 -29.5t54.5 -36.5t31 -32l-58 -54q-6 9 -22 23t-43 27.5t-64.5 23.5t-87.5 10q-56 0 -99.5 -21.5t-74.5 -57.5t-49 -82.5t-22 -95.5
q17 19 40.5 36t56 30t73.5 20.5t92 7.5q71 0 124 -20t88.5 -53t53 -75t17.5 -86q0 -46 -19 -90.5t-56.5 -80t-93.5 -57t-130 -21.5zM396 388q-63 0 -107.5 -12.5t-73.5 -32.5t-42.5 -46t-13.5 -54q0 -31 15.5 -61.5t44.5 -54.5t69.5 -39t91.5 -15q52 0 91.5 14.5t66 37.5
t40 53t13.5 60q0 28 -12 55t-36.5 48t-61 34t-85.5 13z" />
    <glyph glyph-name="seven" unicode="7" horiz-adv-x="652" 
d="M493 619h-464v81h594v-27l-406 -673h-104z" />
    <glyph glyph-name="eight" unicode="8" horiz-adv-x="711" 
d="M98 538q0 40 18.5 72.5t52.5 55.5t81.5 36t105.5 13t105.5 -13t81.5 -36t52.5 -55.5t18.5 -72.5q0 -51 -29.5 -88.5t-81.5 -59.5q80 -24 125 -73t45 -118q0 -48 -22.5 -87.5t-64 -67.5t-100 -43.5t-130.5 -15.5t-130.5 15.5t-100 43.5t-64.5 67.5t-23 87.5q0 69 45.5 118
t125.5 73q-53 22 -82 59.5t-29 88.5zM356 431q42 0 74 9t53.5 24t32 33.5t10.5 38.5q0 19 -10.5 38t-31.5 33t-53 23t-75 9t-75.5 -9t-54 -23t-32.5 -33t-11 -38q0 -20 11 -38.5t32.5 -33.5t54 -24t75.5 -9zM356 70q56 0 98.5 11.5t70.5 31t42 43.5t14 50q0 25 -14 49.5
t-42 43.5t-70.5 30.5t-98.5 11.5q-57 0 -99 -11.5t-70.5 -30.5t-42.5 -43.5t-14 -49.5q0 -26 14 -50t42.5 -43.5t71 -31t98.5 -11.5z" />
    <glyph glyph-name="nine" unicode="9" horiz-adv-x="728" 
d="M347 711q84 0 146 -30.5t103.5 -81t62 -115t20.5 -131.5q0 -69 -21 -135t-63 -117.5t-104.5 -83.5t-145.5 -32q-60 0 -106.5 12t-80 29.5t-54.5 36t-31 32.5l58 54q6 -9 22.5 -23t43 -27.5t64 -23.5t87.5 -10q56 0 99.5 21.5t74.5 57.5t49 82t22 96q-17 -19 -40.5 -36
t-56 -30t-73.5 -20.5t-92 -7.5q-71 0 -124 20t-88 53t-52.5 75t-17.5 86q0 46 19 90.5t56.5 80t93 57t129.5 21.5zM331 308q63 0 107.5 12t73.5 32.5t42.5 46.5t13.5 54q0 31 -15.5 61.5t-44.5 54.5t-69.5 39t-91.5 15q-52 0 -91.5 -14.5t-65.5 -37.5t-39.5 -53t-13.5 -60
q0 -29 12 -56t36 -48t60.5 -33.5t85.5 -12.5z" />
    <glyph glyph-name="colon" unicode=":" horiz-adv-x="175" 
d="M37 473q0 22 15 36.5t37 14.5t36.5 -14.5t14.5 -36.5t-14.5 -37.5t-36.5 -15.5t-37 15.5t-15 37.5zM44 47q0 23 15.5 37.5t36.5 14.5q22 0 37 -14.5t15 -37.5q0 -21 -15 -36.5t-37 -15.5q-21 0 -36.5 15.5t-15.5 36.5z" />
    <glyph glyph-name="semicolon" unicode=";" horiz-adv-x="241" 
d="M81 427q0 22 15 36.5t37 14.5t36.5 -14.5t14.5 -36.5t-14.5 -37t-36.5 -15t-37 15t-15 37zM108 97h96l-106 -175h-60z" />
    <glyph glyph-name="less" unicode="&#x3c;" horiz-adv-x="326" 
d="M289 128l-252 183v66l252 183v-85l-191 -131l191 -131v-85z" />
    <glyph glyph-name="equal" unicode="=" horiz-adv-x="456" 
d="M37 451h382v-73h-382v73zM37 302h382v-73h-382v73z" />
    <glyph glyph-name="greater" unicode="&#x3e;" horiz-adv-x="326" 
d="M289 311l-252 -183v85l191 131l-191 131v85l252 -183v-66z" />
    <glyph glyph-name="question" unicode="?" horiz-adv-x="583" 
d="M455 520q0 30 -11 51.5t-30.5 36t-45 21t-53.5 6.5q-31 0 -63 -7.5t-61.5 -22t-55 -35t-41.5 -46.5l-56 64q21 30 51.5 53.5t66.5 39t75.5 23.5t78.5 8q46 0 88 -11.5t74.5 -35t52 -59.5t19.5 -85q0 -57 -20 -92t-50 -58.5t-64.5 -40.5t-64.5 -38t-50 -50.5t-20 -78.5
h-62q-1 62 16.5 101t44.5 64t58.5 42t59 36t45.5 45t18 69zM196 47q0 22 15 37t36 15q23 0 37.5 -15t14.5 -37t-14.5 -37t-37.5 -15q-21 0 -36 15t-15 37z" />
    <glyph glyph-name="at" unicode="@" horiz-adv-x="723" 
d="M473 478v-108q0 -25 1 -54t8.5 -54t22.5 -41.5t44 -16.5q20 0 35.5 10t26.5 27t17 40.5t6 49.5q0 41 -15 85.5t-47.5 81t-83 60.5t-122.5 24q-69 0 -121 -24t-86.5 -63t-51.5 -89t-17 -102t17 -102t51.5 -89t86.5 -62.5t121 -23.5q63 0 118 26.5t89 75.5l37 -41
q-48 -54 -110.5 -82.5t-133.5 -28.5q-83 0 -144.5 28t-102.5 74t-61.5 104.5t-20.5 120.5q0 61 20.5 120t61.5 105t102.5 74t144.5 28q82 0 142.5 -27.5t100 -70.5t58.5 -96t19 -103q0 -35 -9 -66t-26 -54.5t-43 -37.5t-59 -14q-45 0 -70 16.5t-39 42.5q-14 -33 -40 -55
t-70 -22q-29 0 -50 13.5t-35 36t-21 51.5t-7 60q0 33 8 66t24 58.5t39.5 41.5t54.5 16q44 0 77 -27v18h53zM420 364q-5 35 -26.5 55t-50.5 20q-18 0 -31.5 -11.5t-22.5 -30t-13.5 -42t-4.5 -47.5q0 -22 3.5 -43t11 -37t19 -25.5t26.5 -9.5q25 0 41.5 17t26.5 42.5t14.5 55.5
t6.5 56z" />
    <glyph glyph-name="A" unicode="A" horiz-adv-x="795" 
d="M355 710h86l336 -710h-94l-58 121h-455l-58 -121h-93zM586 203l-188 391l-188 -391h376z" />
    <glyph glyph-name="B" unicode="B" horiz-adv-x="722" 
d="M79 0v700h330q51 0 88.5 -16.5t63 -43t38 -60.5t12.5 -69q0 -37 -13.5 -72t-40.5 -61q28 -13 48.5 -32.5t34.5 -43.5t21 -51t7 -54q0 -37 -12.5 -72.5t-38 -63t-63.5 -44.5t-88 -17h-387zM400 399q30 0 52.5 9.5t37.5 25t22.5 35.5t7.5 41t-7.5 41t-22.5 36t-37.5 25.5
t-52.5 9.5h-232v-223h232zM458 81q30 0 52.5 10.5t37.5 27t22.5 38t7.5 44.5q0 22 -7.5 44t-22.5 38.5t-37.5 27t-52.5 10.5h-290v-240h290z" />
    <glyph glyph-name="C" unicode="C" horiz-adv-x="754" 
d="M48 350q0 92 33 161t85 114.5t116.5 68.5t126.5 23q88 0 167.5 -38.5t131.5 -111.5l-64 -61q-20 28 -47.5 51.5t-58.5 39.5t-64 25t-63 9q-68 0 -119.5 -24t-85.5 -64t-51 -90.5t-17 -102.5q0 -53 17 -103t51 -89.5t85.5 -63.5t119.5 -24q33 0 66 9.5t63 26.5t56 40.5
t45 50.5l67 -63q-27 -36 -61.5 -64t-73.5 -47.5t-81 -29.5t-83 -10q-62 0 -126.5 22.5t-116.5 68.5t-85 115t-33 161z" />
    <glyph glyph-name="D" unicode="D" horiz-adv-x="806" 
d="M430 700q82 -2 143.5 -32.5t102.5 -79.5t61.5 -111t20.5 -127t-20.5 -127t-61.5 -111t-102.5 -80t-143.5 -32h-351v700h351zM168 618v-535h255q60 0 105.5 23t75.5 60.5t45 85.5t15 98t-15 98.5t-45 86t-75.5 60.5t-105.5 23h-255z" />
    <glyph glyph-name="E" unicode="E" horiz-adv-x="688" 
d="M79 700h566v-81h-477v-228h415v-81h-415v-229h483v-81h-572v700z" />
    <glyph glyph-name="F" unicode="F" horiz-adv-x="662" 
d="M79 700h564v-81h-475v-264h414v-82h-414v-273h-89v700z" />
    <glyph glyph-name="G" unicode="G" horiz-adv-x="773" 
d="M705 0h-57l-20 83q-45 -48 -102 -74t-117 -26q-62 0 -126.5 22.5t-116.5 68.5t-85 115t-33 161t33 161t85 114.5t116.5 68.5t126.5 23q88 0 167.5 -38.5t131.5 -111.5l-67 -60q-20 28 -47 51t-57.5 39t-63 24.5t-62.5 8.5q-68 0 -119.5 -24t-85.5 -63.5t-51 -90
t-17 -102.5q0 -53 17 -103t51 -89.5t85.5 -63.5t119.5 -24q48 0 86 17.5t64.5 47.5t41 70t14.5 84v21h-172v72h260v-382z" />
    <glyph glyph-name="H" unicode="H" horiz-adv-x="788" 
d="M79 700h89v-309h453v309h89v-700h-89v310h-453v-310h-89v700z" />
    <glyph glyph-name="I" unicode="I" horiz-adv-x="247" 
d="M79 700h89v-700h-89v700z" />
    <glyph glyph-name="J" unicode="J" horiz-adv-x="528" 
d="M360 700h89v-466q0 -70 -21.5 -118.5t-56.5 -79t-78.5 -44.5t-88.5 -14q-54 0 -101.5 18t-74.5 48l27 85q27 -28 66 -44t80 -16q30 0 59 10t51 31t35.5 54.5t13.5 81.5v454z" />
    <glyph glyph-name="K" unicode="K" horiz-adv-x="750" 
d="M287 309l-119 -124v-185h-89v700h89v-383l375 383h119l-317 -330l386 -370h-124z" />
    <glyph glyph-name="L" unicode="L" horiz-adv-x="657" 
d="M79 700h89v-619h471v-81h-560v700z" />
    <glyph glyph-name="M" unicode="M" horiz-adv-x="938" 
d="M79 700h89l301 -561l301 561h89v-700h-89v527l-284 -527h-34l-284 528v-528h-89v700z" />
    <glyph glyph-name="N" unicode="N" horiz-adv-x="816" 
d="M79 700h89l481 -571v571h89v-700h-89l-481 572v-572h-89v700z" />
    <glyph glyph-name="O" unicode="O" 
d="M799 350q0 -92 -34.5 -161t-88.5 -115t-120.5 -68.5t-130.5 -22.5q-43 0 -87.5 10t-86 30.5t-78 51t-63.5 71t-43 91.5t-16 113t16 113t43 92t63.5 71.5t78 50.5t86 30t87.5 10q64 0 130.5 -22.5t120.5 -68.5t88.5 -114.5t34.5 -161.5zM711 350q0 71 -26 123.5
t-67.5 87.5t-92.5 52.5t-100 17.5q-50 0 -100.5 -17.5t-92 -52.5t-67.5 -87.5t-26 -123.5t26 -123.5t67.5 -87.5t92 -52.5t100.5 -17.5q49 0 100 17.5t92.5 52.5t67.5 87.5t26 123.5z" />
    <glyph glyph-name="P" unicode="P" horiz-adv-x="668" 
d="M79 700h343q52 0 91 -19t65 -50t39 -71t13 -81q0 -42 -13 -81.5t-39 -70.5t-65 -50t-91 -19h-254v-258h-89v700zM418 340q30 0 53 12t38.5 31.5t23 44.5t7.5 51t-7.5 51t-23 44.5t-38.5 31.5t-53 12h-250v-278h250z" />
    <glyph glyph-name="Q" unicode="Q" 
d="M556 6q-66 -23 -131 -23q-43 0 -87.5 10t-86 30.5t-78 51t-63.5 71t-43 91.5t-16 113t16 113t43 92t63.5 71.5t78 50.5t86 30t87.5 10q64 0 130.5 -22.5t120.5 -68.5t88.5 -114.5t34.5 -161.5q0 -56 -13.5 -104t-36.5 -87t-54.5 -69t-68.5 -52l78 -114l-61 -46zM711 350
q0 71 -26 123.5t-67.5 87.5t-92.5 52.5t-100 17.5q-50 0 -100.5 -17.5t-92 -52.5t-67.5 -87.5t-26 -123.5t26 -123.5t67.5 -87.5t92 -52.5t100.5 -17.5q39 0 80 11l-62 92l61 47l73 -109q57 34 95.5 93.5t38.5 146.5z" />
    <glyph glyph-name="R" unicode="R" horiz-adv-x="746" 
d="M411 293h-243v-293h-89v700h373q52 0 91 -17.5t65 -46t39 -65t13 -74.5q0 -32 -9.5 -63.5t-28.5 -57.5t-47.5 -46t-65.5 -29l218 -301h-110zM442 376q31 0 54.5 10.5t39 27t23.5 38t8 44.5t-8 45t-23.5 39t-39 27.5t-54.5 10.5h-274v-242h274z" />
    <glyph glyph-name="S" unicode="S" horiz-adv-x="698" 
d="M592 549q-18 19 -45 34.5t-59.5 26t-67.5 16.5t-69 6q-36 0 -70 -7.5t-60 -23t-41.5 -40.5t-15.5 -60q0 -33 21 -52.5t55.5 -31t78 -18t89.5 -14.5t89.5 -19.5t78 -33t55.5 -55.5t21 -87q0 -55 -25.5 -95t-67.5 -65.5t-96.5 -38t-111.5 -12.5q-46 0 -91 7.5t-85.5 21.5
t-74 34.5t-54.5 46.5l56 67q17 -22 45.5 -39t63 -29t72.5 -18.5t75 -6.5q39 0 75.5 7.5t64.5 23t45 39.5t17 57q0 35 -21 56t-55.5 33.5t-78 19.5t-89.5 15t-89.5 19t-78 31.5t-55.5 54t-21 85.5q0 57 23.5 97t63 66t90 38t104.5 12q42 0 84.5 -7t80.5 -19.5t70.5 -31
t55.5 -40.5z" />
    <glyph glyph-name="T" unicode="T" horiz-adv-x="755" 
d="M737 700v-79h-315v-621h-89v621h-315v79h719z" />
    <glyph glyph-name="U" unicode="U" horiz-adv-x="781" 
d="M79 700h89v-429q0 -51 19 -89t50.5 -63.5t71.5 -38t82 -12.5t81.5 12.5t71 38t50.5 63.5t19 89v429h89v-429q0 -74 -27 -129.5t-70.5 -92t-100 -55t-114.5 -18.5t-114 18.5t-99.5 55t-70.5 92t-27 129.5v429z" />
    <glyph glyph-name="V" unicode="V" horiz-adv-x="796" 
d="M355 -10l-336 710h93l286 -594l285 594h94l-336 -710h-86z" />
    <glyph glyph-name="W" unicode="W" horiz-adv-x="1072" 
d="M270 -10l-251 710h95l195 -570l196 570h61l197 -570l195 570h95l-252 -710h-73l-192 543l-192 -543h-74z" />
    <glyph glyph-name="X" unicode="X" horiz-adv-x="701" 
d="M567 0l-217 285l-216 -285h-115l276 359l-260 341h109l206 -269l207 269h109l-260 -341l276 -359h-115z" />
    <glyph glyph-name="Y" unicode="Y" horiz-adv-x="708" 
d="M123 700l231 -336l231 336h104l-291 -411v-289h-89v289l-290 411h104z" />
    <glyph glyph-name="Z" unicode="Z" horiz-adv-x="652" 
d="M141 81h475v-81h-580v81h1l448 538h-440v81h539v-81h-1h1z" />
    <glyph glyph-name="bracketleft" unicode="[" horiz-adv-x="228" 
d="M37 700h155v-39l-85 -10v-660l85 -10v-39h-155v758z" />
    <glyph glyph-name="backslash" unicode="\" horiz-adv-x="598" 
d="M113 700l449 -700h-76l-449 700h76z" />
    <glyph glyph-name="bracketright" unicode="]" horiz-adv-x="231" 
d="M192 -58h-155v39l84 10v660l-84 10v39h155v-758z" />
    <glyph glyph-name="asciicircum" unicode="^" horiz-adv-x="400" 
d="M177 700h55l135 -233h-81l-82 164l-82 -164h-81z" />
    <glyph glyph-name="underscore" unicode="_" horiz-adv-x="555" 
d="M37 53h482v-67h-482v67z" />
    <glyph glyph-name="grave" unicode="`" horiz-adv-x="171" 
d="M52 716l103 -107l-19 -22l-119 92z" />
    <glyph glyph-name="a" unicode="a" horiz-adv-x="672" 
d="M94 492q43 26 106 42.5t129 16.5q48 0 93.5 -10.5t80.5 -33.5t56 -60t21 -91l-1 -215q0 -34 11 -49t46 -15h7v-77q-37 0 -65 6.5t-47 21t-29 38.5t-10 59v11q-20 -32 -49 -57.5t-65 -43.5t-77 -28.5t-83 -11.5q-45 -2 -79 9.5t-56 31.5t-33 46.5t-11 55.5q0 33 14.5 66
t43 59.5t71 42t98.5 14.5l140 -2h24.5t27.5 3t22.5 10t11.5 20q-1 33 -14.5 56t-36.5 37.5t-52.5 20.5t-62.5 6q-56 0 -110.5 -14.5t-89.5 -35.5zM492 264q-16 -13 -39 -17.5t-51 -3.5l-135 2q-33 0 -59 -8.5t-43.5 -23t-26.5 -32.5t-9 -36q0 -30 27 -52.5t84 -19.5
q37 2 80.5 16.5t81 38.5t63 57t27.5 72v7z" />
    <glyph glyph-name="b" unicode="b" horiz-adv-x="691" 
d="M77 750h87v-312q34 60 88 88.5t114 28.5q51 0 100.5 -19t88.5 -56t63 -90t24 -120q0 -68 -24 -121t-63 -89.5t-88.5 -55.5t-100.5 -19q-60 0 -114.5 28.5t-88.5 89.5l-14 -103h-72v750zM554 270q0 51 -17.5 90.5t-45.5 66t-64 40t-73 13.5q-36 0 -70 -13t-60.5 -39
t-42.5 -65.5t-16 -92.5q0 -54 16 -93.5t42.5 -65.5t60.5 -39t70 -13q37 0 73 13.5t64 40t45.5 66t17.5 91.5z" />
    <glyph glyph-name="c" unicode="c" horiz-adv-x="646" 
d="M48 270q0 72 28 125.5t72 89t98.5 53.5t107.5 18q74 0 141.5 -30t111.5 -87l-64 -56q-35 51 -85 71t-103 20q-54 0 -95 -17.5t-68.5 -46t-41 -65.5t-13.5 -75t13.5 -74.5t41 -65t68.5 -46t95 -17.5q56 0 105.5 20.5t82.5 69.5l64 -56q-23 -28 -52 -50t-62.5 -37t-69 -23
t-69.5 -8q-53 0 -107.5 18t-98.5 53.5t-72 89.5t-28 126z" />
    <glyph glyph-name="d" unicode="d" horiz-adv-x="689" 
d="M613 750v-750h-72l-14 101q-34 -60 -88.5 -88t-114.5 -28q-51 0 -100 19t-88 55.5t-63 89.5t-24 121q0 67 24 120t63 90t88 56t100 19q60 0 113.5 -28t87.5 -87v310h88zM137 270q0 -52 17 -91.5t45 -66t64 -40t73 -13.5q36 0 70 13t60.5 39t42.5 65.5t16 93.5
q0 53 -16 92.5t-42.5 65.5t-60.5 39t-70 13q-37 0 -73 -13.5t-64 -40t-45 -66t-17 -90.5z" />
    <glyph glyph-name="e" unicode="e" horiz-adv-x="662" 
d="M48 270q0 72 28 125.5t72 89t98.5 53.5t107.5 18q58 0 107 -21t85 -58.5t56.5 -89t22.5 -113.5l-487 1q0 -39 13.5 -77t40.5 -67t68 -47t95 -18q56 0 106 20.5t83 69.5l63 -55q-23 -28 -52 -50t-62.5 -37t-69 -23t-69.5 -8q-53 0 -107.5 18t-98.5 53.5t-72 89.5t-28 126z
M534 342q-5 23 -19 48t-36.5 45.5t-53.5 33.5t-69 13q-42 0 -76.5 -11t-60 -30t-43.5 -44.5t-27 -54.5h385z" />
    <glyph glyph-name="f" unicode="f" horiz-adv-x="474" 
d="M100 466h-81l-1 57l88 14q-32 44 -32 93q0 30 14.5 54.5t39.5 41.5t57 26.5t67 9.5q29 0 58.5 -7t56 -21.5t49.5 -37t39 -53.5l-56 -37q-23 39 -63.5 58t-79.5 19q-41 0 -70.5 -19t-29.5 -57q0 -17 9 -35t26 -32h237l1 -74h-238v-466h-91v466z" />
    <glyph glyph-name="g" unicode="g" horiz-adv-x="689" 
d="M613 540v-460q0 -158 -85 -244.5t-245 -86.5q-51 0 -108.5 15t-101.5 38l28 79q47 -26 97.5 -39.5t98.5 -13.5t89.5 15t72 45.5t48.5 78t18 112.5v20q-34 -59 -87.5 -86.5t-113.5 -27.5q-51 0 -100 19t-88 55.5t-63 89.5t-24 121q0 67 24 120t63 90t88 56t100 19
q60 0 114 -28t87 -87l26 100h62zM137 270q0 -52 17 -91.5t45 -66t64 -40t73 -13.5q36 0 70 13t60.5 39t42.5 65.5t16 93.5q0 53 -16 92.5t-42.5 65.5t-60.5 39t-70 13q-37 0 -73 -13.5t-64 -40t-45 -66t-17 -90.5z" />
    <glyph glyph-name="h" unicode="h" horiz-adv-x="703" 
d="M77 0v750h87v-306q28 49 76.5 78t120.5 29q56 0 102 -14.5t78.5 -43.5t50 -73t17.5 -102v-177q0 -34 11 -49.5t46 -15.5h7l1 -76q-32 0 -59.5 5.5t-48.5 20t-33 39t-12 62.5v145q0 48 -7 86t-26.5 64.5t-54 40.5t-88.5 14q-38 0 -70.5 -10.5t-57.5 -31.5t-39 -52t-14 -71
v-312h-87z" />
    <glyph glyph-name="i" unicode="i" horiz-adv-x="236" 
d="M61 660q0 25 15.5 40t41.5 15t41.5 -15t15.5 -40t-15.5 -40t-41.5 -15t-41.5 15t-15.5 40zM74 0v540h87v-540h-87z" />
    <glyph glyph-name="j" unicode="j" horiz-adv-x="286" 
d="M104 660q0 25 15.5 40t41.5 15q25 0 40.5 -15t15.5 -40t-15.5 -40t-40.5 -15q-26 0 -41.5 15t-15.5 40zM119 540h87v-512q0 -61 -15.5 -101t-40 -63.5t-56 -33t-62.5 -9.5q-30 0 -57 6.5t-47 16.5l23 75q17 -6 35.5 -10.5t37.5 -4.5q18 0 35.5 6t30.5 20.5t21 39.5t8 63
l-1 90z" />
    <glyph glyph-name="k" unicode="k" horiz-adv-x="675" 
d="M77 708h87v-429l296 261h123l-250 -218q41 -2 70.5 -20.5t53 -45t43.5 -57t42 -56.5t49 -43t64 -17l1 -85q-53 0 -91.5 20.5t-68.5 51t-54 66t-49 66t-53.5 50t-67.5 18.5l-108 -94v-176h-87v708z" />
    <glyph glyph-name="l" unicode="l" horiz-adv-x="241" 
d="M77 750h87v-750h-87v750z" />
    <glyph glyph-name="m" unicode="m" horiz-adv-x="978" 
d="M76 0v423q-1 14 -5 27t-20 13h-23v77h24q19 0 37.5 -4.5t33.5 -13.5t25.5 -23.5t13.5 -34.5q27 41 69.5 64t100.5 23q134 0 176 -114q23 53 68.5 83.5t114.5 30.5q95 0 144.5 -57.5t49.5 -175.5v-177q0 -34 11 -49.5t46 -15.5h7l1 -76q-32 0 -59.5 5.5t-48.5 20t-33 39
t-12 62.5v184q0 37 -6 67.5t-19.5 52.5t-37 34t-57.5 12q-60 0 -102 -36.5t-49 -103.5v-19v-318l-88 1v310q0 37 -6 67.5t-20 52.5t-37.5 34t-57.5 12q-32 0 -60 -10.5t-49 -31.5t-33 -52t-12 -71v-312h-87z" />
    <glyph glyph-name="n" unicode="n" horiz-adv-x="702" 
d="M76 0v423q-1 14 -5 27t-20 13h-23v77h24q19 0 38.5 -5t35 -15t25.5 -25.5t12 -37.5q30 43 80.5 68.5t116.5 25.5q56 0 102 -14.5t78.5 -43.5t50.5 -73t18 -102v-177q0 -34 10.5 -49.5t45.5 -15.5h8v-76q-32 0 -59.5 5.5t-48.5 20t-33 39t-12 62.5v145q0 48 -7 86
t-26.5 64.5t-54 40.5t-88.5 14q-37 0 -70 -11.5t-57.5 -33t-39 -52t-14.5 -68.5v-312h-87z" />
    <glyph glyph-name="o" unicode="o" horiz-adv-x="712" 
d="M663 270q0 -72 -28 -125.5t-72.5 -89t-99 -53t-107.5 -17.5t-107.5 17.5t-99 53t-72.5 89t-28 125.5t28 125.5t72.5 89t99 53t107.5 17.5t107.5 -17.5t99 -53t72.5 -89t28 -125.5zM575 270q0 52 -20 90.5t-51.5 64t-70.5 38.5t-77 13t-77 -13t-70.5 -38.5t-51.5 -64
t-20 -90.5t20 -90.5t51.5 -64t70.5 -38.5t77 -13t77 13t70.5 38.5t51.5 64t20 90.5z" />
    <glyph glyph-name="p" unicode="p" horiz-adv-x="691" 
d="M642 270q0 -68 -24 -121t-63 -89.5t-88.5 -55.5t-100.5 -19q-60 0 -114.5 28.5t-88.5 88.5v-319h-87v631q0 16 -3 32.5t-21 16.5h-24v77h24q20 0 40 -5.5t35.5 -16.5t25.5 -28t10 -40v-13q34 60 88.5 89t114.5 29q51 0 100.5 -19t88.5 -56t63 -90t24 -120zM554 270
q0 51 -17.5 90.5t-45.5 66t-64 40t-73 13.5q-36 0 -70 -13t-60.5 -39t-42.5 -65.5t-16 -92.5q0 -54 16 -93.5t42.5 -65.5t60.5 -39t70 -13q37 0 73 13.5t64 40t45.5 66t17.5 91.5z" />
    <glyph glyph-name="q" unicode="q" horiz-adv-x="689" 
d="M613 540v-750h-88v309q-34 -59 -87.5 -86.5t-113.5 -27.5q-50 0 -99.5 19t-88.5 55.5t-63 89.5t-24 121q0 67 24 120t63 90t88.5 56t99.5 19q60 0 114 -28t87 -87l22 100h66zM137 270q0 -52 17 -91.5t45 -66t64 -40t73 -13.5q36 0 70 13t60.5 39t42.5 65.5t16 93.5
q0 53 -16 92.5t-42.5 65.5t-60.5 39t-70 13q-37 0 -73 -13.5t-64 -40t-45 -66t-17 -90.5z" />
    <glyph glyph-name="r" unicode="r" horiz-adv-x="447" 
d="M76 0v423q-1 14 -5 27t-20 13h-23v77h24q20 0 40 -5.5t35.5 -16.5t25.5 -28t10 -40v-4q31 45 75 73.5t99 28.5q40 0 81 -17l-22 -74q-22 8 -48 8q-31 0 -64 -11t-60 -30t-44 -45t-17 -56v-323h-87z" />
    <glyph glyph-name="s" unicode="s" horiz-adv-x="638" 
d="M534 409q-16 15 -41.5 28t-56 22t-64.5 14.5t-66 5.5q-30 0 -57 -5t-47.5 -16t-32.5 -28t-12 -41q0 -32 32 -47t80 -23.5t103.5 -16.5t103.5 -24.5t80 -47.5t32 -87q0 -44 -23 -75.5t-60.5 -52t-86.5 -30.5t-100 -10q-41 0 -81 6t-76 17t-65 27.5t-47 37.5l53 61
q14 -17 39 -31t55.5 -23.5t65 -14.5t68.5 -5t64.5 5.5t54 17t37.5 29t14 42.5q0 27 -18.5 42.5t-48.5 25t-68.5 14.5t-79 11t-79 15t-68.5 26t-48.5 44.5t-18.5 69.5q0 43 20 74t53.5 50.5t77 28.5t90.5 9q39 0 78.5 -6t75 -16.5t65.5 -25.5t50 -34z" />
    <glyph glyph-name="t" unicode="t" horiz-adv-x="498" 
d="M200 642v-102h243v-73l-243 -1v-284q0 -60 24.5 -93.5t84.5 -33.5q36 0 65.5 15.5t53.5 41.5l41 -58q-33 -36 -74.5 -58.5t-91.5 -22.5q-97 0 -144 52.5t-47 146.5v294h-93v74h93l28 101z" />
    <glyph glyph-name="u" unicode="u" horiz-adv-x="695" 
d="M74 540h87v-317q0 -42 15 -73t39.5 -51.5t55.5 -31t64 -10.5t65.5 10.5t57.5 32t40.5 53t15.5 73.5v314h88v-399q0 -34 10.5 -49t45.5 -15h7v-77q-63 0 -99.5 18.5t-47.5 66.5q-34 -51 -88.5 -76t-113.5 -25q-45 0 -88.5 15t-77.5 45t-55 74.5t-21 104.5v317z" />
    <glyph glyph-name="v" unicode="v" horiz-adv-x="677" 
d="M294 -10l-275 550h97l222 -463l223 463h97l-275 -550h-89z" />
    <glyph glyph-name="w" unicode="w" horiz-adv-x="924" 
d="M232 -10l-213 550h93l161 -435l160 435h58l159 -436l162 436h94l-214 -550h-75l-155 399l-155 -399h-75z" />
    <glyph glyph-name="x" unicode="x" horiz-adv-x="624" 
d="M491 0l-179 206l-179 -206h-114l237 270l-234 270h107l183 -207l182 207h107l-234 -270l238 -270h-114z" />
    <glyph glyph-name="y" unicode="y" horiz-adv-x="686" 
d="M81 540h88v-317q0 -43 15 -75t39.5 -53t55.5 -31.5t64 -10.5t64.5 10.5t56 31.5t40.5 52t17 72v321h88v-460q0 -157 -83 -244t-242 -87q-51 0 -108 15t-102 38l28 79q38 -21 89.5 -34.5t97.5 -13.5q71 0 116 18.5t71 51.5t35.5 77.5t9.5 96.5q-35 -49 -88 -73t-110 -24
q-45 0 -88.5 15t-77.5 45.5t-55 76t-21 106.5v317z" />
    <glyph glyph-name="z" unicode="z" horiz-adv-x="594" 
d="M145 80h420v-80h-537v80l405 380h-380v80h489v-80z" />
    <glyph glyph-name="braceleft" unicode="{" horiz-adv-x="286" 
d="M37 358q28 0 45.5 6t28 17t14.5 26t4 33q0 36 -9 78.5t-9 81.5q0 23 5.5 43.5t20.5 35.5t41.5 23.5t68.5 8.5l2 -53q-22 0 -36 -5.5t-22 -15.5t-11 -23.5t-3 -29.5q0 -34 7.5 -75.5t7.5 -80.5q0 -30 -8.5 -56t-32.5 -44q24 -19 32.5 -45.5t8.5 -57.5q0 -38 -7 -78.5
t-7 -73.5t14 -54t57 -21l-2 -53q-42 0 -68.5 8.5t-41.5 23t-20.5 34t-5.5 42.5q0 40 9.5 83.5t9.5 80.5q0 18 -4 33t-14.5 25.5t-28.5 16.5t-46 6v60v0z" />
    <glyph glyph-name="bar" unicode="|" horiz-adv-x="129" 
d="M37 700h55v-792h-55v792z" />
    <glyph glyph-name="braceright" unicode="}" horiz-adv-x="286" 
d="M249 298q-56 1 -75 -22t-19 -59q0 -37 10 -80.5t10 -83.5q0 -23 -6 -42.5t-21 -34t-41.5 -23t-67.5 -8.5l-2 53q43 0 57 20.5t14 53.5t-7.5 74t-7.5 80q0 30 8.5 56.5t32.5 45.5q-24 18 -32.5 44t-8.5 56q0 39 8 80.5t8 75.5q0 32 -14.5 53t-57.5 21l2 53q41 0 67.5 -8.5
t41.5 -23.5t21 -35t6 -43q0 -39 -9 -82t-9 -79q0 -18 4 -33t14.5 -26t28 -17t45.5 -6v-60z" />
    <glyph glyph-name="asciitilde" unicode="~" horiz-adv-x="472" 
d="M37 310q29 56 56.5 76.5t54.5 20.5q22 0 43 -9t41.5 -20t40.5 -20t39 -9q18 0 35.5 11t34.5 38l53 -33q-29 -51 -57.5 -69.5t-55.5 -18.5q-22 0 -43.5 8.5t-41.5 19t-39.5 19.5t-37.5 9q-19 0 -36 -12.5t-33 -44.5z" />
    <glyph glyph-name="exclamdown" unicode="&#xa1;" horiz-adv-x="147" 
d="M125 458q0 -22 -15 -37t-37 -15t-36.5 15t-14.5 37t14.5 37t36.5 15t37 -15t15 -37zM119 -195h-93l17 534h60z" />
    <glyph glyph-name="cent" unicode="&#xa2;" horiz-adv-x="541" 
d="M331 666v-80q46 -3 87.5 -23t83.5 -58l-61 -59q-23 25 -51 42t-59 22v-384q32 4 64 22t58 50l50 -66q-41 -36 -84 -57t-88 -25v-69l-71 3v70q-57 9 -100 34.5t-71.5 61.5t-42.5 79.5t-14 88.5t14 89t42.5 80t71.5 61.5t100 34.5v85zM260 505q-38 -8 -66 -27t-46.5 -44
t-28 -55t-9.5 -61t9.5 -61t28 -55.5t46.5 -44t66 -26.5v374z" />
    <glyph glyph-name="sterling" unicode="&#xa3;" horiz-adv-x="597" 
d="M470 630q-44 0 -71.5 -22.5t-46 -60.5t-31 -87t-24.5 -101h119l1 -71h-138q-17 -62 -43.5 -117t-72.5 -93h398v-78h-519v58q61 42 94.5 102.5t54.5 127.5h-154v71h173q16 65 31.5 127t42 110t70 77.5t117.5 29.5z" />
    <glyph glyph-name="yen" unicode="&#xa5;" horiz-adv-x="707" 
d="M160 335h116l-258 365h104l231 -336l231 336h104l-258 -365h112v-70h-145v-74h145v-71h-145v-120h-89v120h-148v71h148v74h-148v70z" />
    <glyph glyph-name="dieresis" unicode="&#xa8;" horiz-adv-x="199" 
d="M20 639q0 14 9.5 23.5t23.5 9.5q13 0 22.5 -9.5t9.5 -23.5q0 -13 -9.5 -22.5t-22.5 -9.5q-14 0 -23.5 9.5t-9.5 22.5zM114 639q0 14 10.5 23.5t24.5 9.5q11 0 20.5 -9.5t9.5 -23.5q0 -13 -9.5 -22.5t-20.5 -9.5q-14 0 -24.5 9.5t-10.5 22.5z" />
    <glyph glyph-name="copyright" unicode="&#xa9;" horiz-adv-x="648" 
d="M33 338q0 60 23 113t62.5 92t92.5 62t113 23t113 -23t92.5 -62.5t62.5 -92.5t23 -113t-23 -113t-62.5 -92.5t-93 -62.5t-113.5 -23t-113 23t-92 62.5t-62 93t-23 113.5zM66 337q0 -53 20.5 -100t55.5 -82t82 -55.5t100 -20.5q54 0 101 20.5t82 55.5t55 82.5t20 100.5
t-20.5 100t-56 82t-82.5 55t-100 20t-99.5 -20.5t-81.5 -55.5t-55.5 -82t-20.5 -100zM451 204q-28 -23 -59 -35t-66 -12q-39 0 -73.5 15t-60 41t-40.5 60.5t-15 73.5t15 73.5t41 60t60.5 40.5t73.5 15q35 0 66 -12.5t59 -35.5l-22 -24q-48 39 -104 39q-32 0 -60.5 -12.5
t-49.5 -34t-33.5 -50t-12.5 -60.5t12.5 -60.5t34 -49.5t50 -33.5t60.5 -12.5q29 0 55 10.5t49 29.5z" />
    <glyph glyph-name="guillemotleft" unicode="&#xab;" horiz-adv-x="386" 
d="M153 369l197 253v-92l-142 -179l142 -180v-92l-197 253v37zM37 368l197 253v-91l-142 -180l142 -180v-91l-197 253v36z" />
    <glyph glyph-name="registered" unicode="&#xae;" horiz-adv-x="348" 
d="M34 588q0 28 11 53t29.5 44t44 29.5t54.5 10.5q28 0 53 -11t43.5 -29.5t29.5 -43.5t11 -53t-10.5 -53.5t-29 -44.5t-43.5 -30t-54 -11t-54.5 11t-44.5 30t-29.5 44t-10.5 54zM54 588q0 -24 9.5 -45.5t25.5 -38t37.5 -26t46.5 -9.5q24 0 45.5 9.5t37.5 26t25.5 38
t9.5 45.5t-9.5 45.5t-25.5 37.5t-37.5 25.5t-45.5 9.5q-25 0 -46.5 -9.5t-37.5 -25.5t-25.5 -37.5t-9.5 -45.5zM235 504h-25l-51 63h-22v-63h-19v170h52q26 -1 42.5 -15.5t16.5 -37.5q0 -20 -13.5 -34t-34.5 -18zM137 585h28q20 0 33 9t13 27q0 19 -13 28.5t-33 9.5h-28v-74
z" />
    <glyph glyph-name="degree" unicode="&#xb0;" horiz-adv-x="321" 
d="M164 446q-32 0 -55.5 11.5t-39 30.5t-23.5 43t-8 49t8 49t23.5 43t39 30.5t55.5 11.5q31 0 54.5 -11.5t39.5 -30t23.5 -42.5t7.5 -49t-8 -49.5t-23.5 -43.5t-39 -30.5t-54.5 -11.5zM164 665q-18 0 -31.5 -7.5t-22 -19.5t-13 -27t-4.5 -31t4.5 -31t13 -27t22 -19t31.5 -7
t31 7.5t21.5 19.5t13 27t4.5 31t-4.5 31t-13 27t-21.5 19t-31 7z" />
    <glyph glyph-name="plusminus" unicode="&#xb1;" horiz-adv-x="470" 
d="M273 571v-160h160v-73h-160v-154h-76v154h-160v73h160v160h76zM39 73h391v-73h-391v73z" />
    <glyph glyph-name="acute" unicode="&#xb4;" horiz-adv-x="171" 
d="M120 725l35 -38l-119 -91l-19 21z" />
    <glyph glyph-name="periodcentered" unicode="&#xb7;" horiz-adv-x="176" 
d="M72 354q0 7 4.5 12t11.5 5q8 0 12.5 -5t4.5 -12q0 -16 -17 -16q-16 0 -16 16z" />
    <glyph glyph-name="cedilla" unicode="&#xb8;" horiz-adv-x="162" 
d="M110 14l-21 -54q26 -6 38 -22.5t12 -35.5q0 -22 -15 -40t-41 -18q-15 0 -27.5 4.5t-20.5 9.5q-11 6 -18 15l16 31q6 -11 19.5 -18.5t26.5 -7.5q9 0 16 5.5t7 17.5q1 14 -12.5 27t-43.5 14l29 83z" />
    <glyph glyph-name="guillemotright" unicode="&#xbb;" horiz-adv-x="391" 
d="M233 368v-36l-196 -254v92l141 180l-141 180v92zM354 368v-36l-197 -253v91l142 180l-142 180v91z" />
    <glyph glyph-name="questiondown" unicode="&#xbf;" horiz-adv-x="579" 
d="M387 477q0 -22 -15 -37t-37 -15t-36.5 15t-14.5 37t14.5 37t36.5 15t37 -15t15 -37zM126 5q0 -30 11 -52t30.5 -36t44.5 -21t54 -7q31 0 63 7.5t61.5 21.5t54 35t41.5 47l56 -64q-21 -30 -51.5 -53t-66 -39t-75 -24t-78.5 -8q-46 0 -88.5 11.5t-75 35t-52 59.5t-19.5 86
q0 57 20 92t50 58.5t64.5 40.5t64.5 37.5t50 50.5t20 79h63q1 -62 -16.5 -101t-44.5 -64.5t-58.5 -42.5t-59 -36t-45.5 -44.5t-18 -68.5z" />
    <glyph glyph-name="Agrave" unicode="&#xc0;" horiz-adv-x="795" 
d="M363 876l103 -107l-18 -22l-120 92zM354 710h86l336 -710h-93l-58 121h-455l-58 -121h-94zM585 203l-188 391l-188 -391h376z" />
    <glyph glyph-name="Aacute" unicode="&#xc1;" horiz-adv-x="795" 
d="M432 885l34 -38l-119 -91l-19 21zM354 710h86l336 -710h-93l-58 121h-455l-58 -121h-94zM585 203l-188 391l-188 -391h376z" />
    <glyph glyph-name="Acircumflex" unicode="&#xc2;" horiz-adv-x="795" 
d="M314 765l60 100h47l59 -100h-38l-45 64l-44 -64h-39zM354 710h86l336 -710h-93l-58 121h-455l-58 -121h-94zM585 203l-188 391l-188 -391h376z" />
    <glyph glyph-name="Atilde" unicode="&#xc3;" horiz-adv-x="795" 
d="M292 801q12 12 28 24t39 12q12 0 22 -4.5t19 -10t18 -10t20 -4.5q10 0 22 5t27 19l15 -31q-10 -10 -28 -19.5t-37 -9.5q-14 0 -24.5 4.5t-20 10t-18 10t-18.5 4.5t-21.5 -6t-26.5 -22zM354 710h86l336 -710h-93l-58 121h-455l-58 -121h-94zM585 203l-188 391l-188 -391
h376z" />
    <glyph glyph-name="Adieresis" unicode="&#xc4;" horiz-adv-x="795" 
d="M317 799q0 14 10 23.5t24 9.5q12 0 22 -9.5t10 -23.5q0 -13 -10 -22.5t-22 -9.5q-14 0 -24 9.5t-10 22.5zM412 799q0 14 10.5 23.5t24.5 9.5q11 0 20.5 -9.5t9.5 -23.5q0 -13 -9.5 -22.5t-20.5 -9.5q-14 0 -24.5 9.5t-10.5 22.5zM354 710h86l336 -710h-93l-58 121h-455
l-58 -121h-94zM585 203l-188 391l-188 -391h376z" />
    <glyph glyph-name="Aring" unicode="&#xc5;" horiz-adv-x="795" 
d="M354 710h2q-16 11 -24 27t-8 34q0 28 19.5 50.5t57.5 22.5t56.5 -23t18.5 -50q0 -19 -9 -36t-26 -27l335 -708h-93l-58 121h-455l-58 -121h-94zM400 810q-20 0 -29.5 -12.5t-9.5 -26.5q0 -15 9.5 -27t29.5 -12q19 0 28.5 12t9.5 27q0 14 -9.5 26.5t-28.5 12.5zM585 203
l-188 391l-188 -391h376z" />
    <glyph glyph-name="AE" unicode="&#xc6;" horiz-adv-x="1212" 
d="M595 700h574v-81h-477v-228h415v-81h-415v-229h483v-81h-572v121h-380l-101 -121h-103zM603 203v369l-311 -369h311z" />
    <glyph glyph-name="Ccedilla" unicode="&#xc7;" horiz-adv-x="754" 
d="M48 350q0 92 33 161t85 114.5t116.5 68.5t126.5 23q43 0 85.5 -10t81.5 -29t72 -47t59 -64l-64 -61q-20 28 -47.5 51.5t-58.5 39.5t-64 25t-63 9q-68 0 -119 -24t-85 -64t-51 -90.5t-17 -102.5q0 -53 17 -103t51 -89.5t85 -63.5t119 -24q33 0 66 9.5t63 26.5t56 40.5
t46 50.5l66 -63q-55 -75 -137.5 -113t-173.5 -38l-9 -23q26 -6 38.5 -22.5t12.5 -35.5q0 -22 -15 -40t-41 -18q-16 0 -28 4.5t-21 9.5q-11 6 -18 15l17 31q6 -11 19.5 -18.5t25.5 -7.5q9 0 16 5.5t7 17.5q1 14 -12.5 27t-43.5 14l16 44q-57 8 -113 34.5t-100.5 72t-71.5 110
t-27 147.5z" />
    <glyph glyph-name="Egrave" unicode="&#xc8;" horiz-adv-x="688" 
d="M309 876l103 -107l-18 -22l-119 92zM78 700h566v-81h-477v-228h416v-81h-416v-229h483v-81h-572v700z" />
    <glyph glyph-name="Eacute" unicode="&#xc9;" horiz-adv-x="688" 
d="M378 885l34 -38l-119 -91l-18 21zM78 700h566v-81h-477v-228h416v-81h-416v-229h483v-81h-572v700z" />
    <glyph glyph-name="Ecircumflex" unicode="&#xca;" horiz-adv-x="688" 
d="M260 765l60 100h47l59 -100h-38l-45 64l-44 -64h-39zM78 700h566v-81h-477v-228h416v-81h-416v-229h483v-81h-572v700z" />
    <glyph glyph-name="Edieresis" unicode="&#xcb;" horiz-adv-x="688" 
d="M264 799q0 14 9.5 23.5t23.5 9.5q13 0 22.5 -9.5t9.5 -23.5q0 -13 -9.5 -22.5t-22.5 -9.5q-14 0 -23.5 9.5t-9.5 22.5zM358 799q0 14 10.5 23.5t24.5 9.5q11 0 20.5 -9.5t9.5 -23.5q0 -13 -9.5 -22.5t-20.5 -9.5q-14 0 -24.5 9.5t-10.5 22.5zM78 700h566v-81h-477v-228
h416v-81h-416v-229h483v-81h-572v700z" />
    <glyph glyph-name="Igrave" unicode="&#xcc;" horiz-adv-x="247" 
d="M89 876l103 -107l-19 -22l-119 92zM78 700h89v-700h-89v700z" />
    <glyph glyph-name="Iacute" unicode="&#xcd;" horiz-adv-x="247" 
d="M157 885l35 -38l-119 -91l-19 21zM78 700h89v-700h-89v700z" />
    <glyph glyph-name="Icircumflex" unicode="&#xce;" horiz-adv-x="247" 
d="M40 765l60 100h47l59 -100h-39l-44 64l-44 -64h-39zM78 700h89v-700h-89v700z" />
    <glyph glyph-name="Idieresis" unicode="&#xcf;" horiz-adv-x="247" 
d="M43 799q0 14 10 23.5t24 9.5q12 0 22 -9.5t10 -23.5q0 -13 -10 -22.5t-22 -9.5q-14 0 -24 9.5t-10 22.5zM138 799q0 14 10.5 23.5t24.5 9.5q11 0 20.5 -9.5t9.5 -23.5q0 -13 -9.5 -22.5t-20.5 -9.5q-14 0 -24.5 9.5t-10.5 22.5zM78 700h89v-700h-89v700z" />
    <glyph glyph-name="Eth" unicode="&#xd0;" horiz-adv-x="806" 
d="M430 700q82 -2 143 -32.5t102 -79.5t61.5 -111t20.5 -127t-20.5 -127t-61.5 -111t-102 -80t-143 -32h-352v360h-50v72h50v268h352zM167 618v-186h317v-72h-317v-277h255q60 0 105.5 23t76 60.5t45.5 85.5t15 98t-15 98.5t-45.5 86t-76 60.5t-105.5 23h-255z" />
    <glyph glyph-name="Ntilde" unicode="&#xd1;" horiz-adv-x="816" 
d="M303 801q12 12 27.5 24t39.5 12q12 0 21.5 -4.5t18.5 -10t18 -10t20 -4.5t23 5t27 19l15 -31q-10 -10 -28 -19.5t-37 -9.5q-14 0 -24.5 4.5t-20 10t-18 10t-18.5 4.5t-22 -6t-27 -22zM78 700h89l481 -571v571h89v-700h-89l-481 572v-572h-89v700z" />
    <glyph glyph-name="Ograve" unicode="&#xd2;" 
d="M390 876l104 -107l-19 -22l-119 92zM799 350q0 -92 -34.5 -161t-88.5 -115t-120.5 -68.5t-130.5 -22.5q-65 0 -131.5 22.5t-120.5 68.5t-88.5 115t-34.5 161q0 93 34.5 161.5t88.5 114.5t120.5 68.5t131.5 22.5q64 0 130.5 -22.5t120.5 -68.5t88.5 -114.5t34.5 -161.5z
M710 350q0 71 -26 123.5t-67.5 87.5t-92 52.5t-99.5 17.5q-50 0 -100.5 -17.5t-92 -52.5t-67.5 -87.5t-26 -123.5t26 -123.5t67.5 -87.5t92 -52.5t100.5 -17.5q49 0 99.5 17.5t92 52.5t67.5 87.5t26 123.5z" />
    <glyph glyph-name="Oacute" unicode="&#xd3;" 
d="M459 885l35 -38l-120 -91l-18 21zM799 350q0 -92 -34.5 -161t-88.5 -115t-120.5 -68.5t-130.5 -22.5q-65 0 -131.5 22.5t-120.5 68.5t-88.5 115t-34.5 161q0 93 34.5 161.5t88.5 114.5t120.5 68.5t131.5 22.5q64 0 130.5 -22.5t120.5 -68.5t88.5 -114.5t34.5 -161.5z
M710 350q0 71 -26 123.5t-67.5 87.5t-92 52.5t-99.5 17.5q-50 0 -100.5 -17.5t-92 -52.5t-67.5 -87.5t-26 -123.5t26 -123.5t67.5 -87.5t92 -52.5t100.5 -17.5q49 0 99.5 17.5t92 52.5t67.5 87.5t26 123.5z" />
    <glyph glyph-name="Ocircumflex" unicode="&#xd4;" 
d="M342 765l59 100h47l60 -100h-39l-44 64l-45 -64h-38zM799 350q0 -92 -34.5 -161t-88.5 -115t-120.5 -68.5t-130.5 -22.5q-65 0 -131.5 22.5t-120.5 68.5t-88.5 115t-34.5 161q0 93 34.5 161.5t88.5 114.5t120.5 68.5t131.5 22.5q64 0 130.5 -22.5t120.5 -68.5
t88.5 -114.5t34.5 -161.5zM710 350q0 71 -26 123.5t-67.5 87.5t-92 52.5t-99.5 17.5q-50 0 -100.5 -17.5t-92 -52.5t-67.5 -87.5t-26 -123.5t26 -123.5t67.5 -87.5t92 -52.5t100.5 -17.5q49 0 99.5 17.5t92 52.5t67.5 87.5t26 123.5z" />
    <glyph glyph-name="Otilde" unicode="&#xd5;" 
d="M320 801q12 12 27.5 24t39.5 12q12 0 21.5 -4.5t18.5 -10t18 -10t20 -4.5t23 5t27 19l15 -31q-10 -10 -28 -19.5t-37 -9.5q-14 0 -24.5 4.5t-20 10t-18 10t-18.5 4.5t-22 -6t-27 -22zM799 350q0 -92 -34.5 -161t-88.5 -115t-120.5 -68.5t-130.5 -22.5q-65 0 -131.5 22.5
t-120.5 68.5t-88.5 115t-34.5 161q0 93 34.5 161.5t88.5 114.5t120.5 68.5t131.5 22.5q64 0 130.5 -22.5t120.5 -68.5t88.5 -114.5t34.5 -161.5zM710 350q0 71 -26 123.5t-67.5 87.5t-92 52.5t-99.5 17.5q-50 0 -100.5 -17.5t-92 -52.5t-67.5 -87.5t-26 -123.5t26 -123.5
t67.5 -87.5t92 -52.5t100.5 -17.5q49 0 99.5 17.5t92 52.5t67.5 87.5t26 123.5z" />
    <glyph glyph-name="Odieresis" unicode="&#xd6;" 
d="M345 799q0 14 9.5 23.5t23.5 9.5q13 0 23 -9.5t10 -23.5q0 -13 -10 -22.5t-23 -9.5q-14 0 -23.5 9.5t-9.5 22.5zM440 799q0 14 10 23.5t24 9.5q11 0 20.5 -9.5t9.5 -23.5q0 -13 -9.5 -22.5t-20.5 -9.5q-14 0 -24 9.5t-10 22.5zM799 350q0 -92 -34.5 -161t-88.5 -115
t-120.5 -68.5t-130.5 -22.5q-65 0 -131.5 22.5t-120.5 68.5t-88.5 115t-34.5 161q0 93 34.5 161.5t88.5 114.5t120.5 68.5t131.5 22.5q64 0 130.5 -22.5t120.5 -68.5t88.5 -114.5t34.5 -161.5zM710 350q0 71 -26 123.5t-67.5 87.5t-92 52.5t-99.5 17.5q-50 0 -100.5 -17.5
t-92 -52.5t-67.5 -87.5t-26 -123.5t26 -123.5t67.5 -87.5t92 -52.5t100.5 -17.5q49 0 99.5 17.5t92 52.5t67.5 87.5t26 123.5z" />
    <glyph glyph-name="multiply" unicode="&#xd7;" horiz-adv-x="410" 
d="M94 512l111 -109l115 113l53 -54l-114 -112l112 -110l-56 -51l-110 108l-115 -112l-53 54l113 111l-111 109z" />
    <glyph glyph-name="Oslash" unicode="&#xd8;" 
d="M799 350q0 -92 -34.5 -161t-88.5 -115t-120.5 -68.5t-130.5 -22.5q-43 0 -86.5 9.5t-85.5 29.5l-14 -22h-77l35 55q-64 45 -105.5 118.5t-41.5 176.5q0 93 34.5 161.5t88.5 114.5t120.5 68.5t131.5 22.5q42 0 85.5 -9.5t85.5 -29.5l15 22h77l-36 -55q64 -45 105.5 -118.5
t41.5 -176.5zM549 604q-60 27 -124 27q-50 0 -100.5 -17.5t-92 -52.5t-67.5 -87.5t-26 -123.5q0 -76 29.5 -131t75.5 -90zM710 350q0 76 -29.5 131t-75.5 90l-305 -475q60 -27 125 -27q49 0 99.5 17.5t92 52.5t67.5 87.5t26 123.5z" />
    <glyph glyph-name="Ugrave" unicode="&#xd9;" horiz-adv-x="781" 
d="M356 876l103 -107l-19 -22l-119 92zM78 700h89v-429q0 -51 19 -89t50.5 -63.5t71.5 -38t82 -12.5t82 12.5t71.5 38t50.5 63.5t19 89v429h89v-429q0 -74 -27 -129.5t-70.5 -92t-100 -55t-114.5 -18.5q-59 0 -115 18.5t-99.5 55t-70.5 92t-27 129.5v429z" />
    <glyph glyph-name="Uacute" unicode="&#xda;" horiz-adv-x="781" 
d="M424 885l35 -38l-119 -91l-19 21zM78 700h89v-429q0 -51 19 -89t50.5 -63.5t71.5 -38t82 -12.5t82 12.5t71.5 38t50.5 63.5t19 89v429h89v-429q0 -74 -27 -129.5t-70.5 -92t-100 -55t-114.5 -18.5q-59 0 -115 18.5t-99.5 55t-70.5 92t-27 129.5v429z" />
    <glyph glyph-name="Ucircumflex" unicode="&#xdb;" horiz-adv-x="781" 
d="M307 765l60 100h47l59 -100h-39l-44 64l-44 -64h-39zM78 700h89v-429q0 -51 19 -89t50.5 -63.5t71.5 -38t82 -12.5t82 12.5t71.5 38t50.5 63.5t19 89v429h89v-429q0 -74 -27 -129.5t-70.5 -92t-100 -55t-114.5 -18.5q-59 0 -115 18.5t-99.5 55t-70.5 92t-27 129.5v429z
" />
    <glyph glyph-name="Udieresis" unicode="&#xdc;" horiz-adv-x="781" 
d="M310 799q0 14 10 23.5t24 9.5q12 0 22 -9.5t10 -23.5q0 -13 -10 -22.5t-22 -9.5q-14 0 -24 9.5t-10 22.5zM405 799q0 14 10.5 23.5t24.5 9.5q11 0 20.5 -9.5t9.5 -23.5q0 -13 -9.5 -22.5t-20.5 -9.5q-14 0 -24.5 9.5t-10.5 22.5zM78 700h89v-429q0 -51 19 -89t50.5 -63.5
t71.5 -38t82 -12.5t82 12.5t71.5 38t50.5 63.5t19 89v429h89v-429q0 -74 -27 -129.5t-70.5 -92t-100 -55t-114.5 -18.5q-59 0 -115 18.5t-99.5 55t-70.5 92t-27 129.5v429z" />
    <glyph glyph-name="Yacute" unicode="&#xdd;" horiz-adv-x="708" 
d="M388 885l34 -38l-119 -91l-18 21zM122 700l231 -336l232 336h103l-290 -411v-289h-89v289l-290 411h103z" />
    <glyph glyph-name="Thorn" unicode="&#xde;" horiz-adv-x="726" 
d="M79 700h91v-129h282q56 0 98.5 -19t70.5 -50t42 -71t14 -81q0 -42 -14 -81.5t-42 -70.5t-70.5 -50t-98.5 -19h-282v-129h-91v700zM448 211q34 0 59.5 12t42.5 31.5t25.5 44.5t8.5 51t-8.5 51t-25.5 44.5t-42.5 31.5t-59.5 12h-278v-278h278z" />
    <glyph glyph-name="germandbls" unicode="&#xdf;" horiz-adv-x="717" 
d="M60 1v493q0 63 19.5 107.5t51 73.5t72 42.5t82.5 13.5t82.5 -13t72 -37t51 -58.5t19.5 -77.5q0 -32 -14 -54.5t-30.5 -39t-30 -29.5t-13.5 -26q0 -12 20 -21t49.5 -20t64 -25t64 -35.5t49.5 -52t20 -73.5q0 -50 -20.5 -85.5t-53.5 -58.5t-75 -34t-85 -11q-61 0 -115.5 19
t-83.5 54l47 56q19 -20 61.5 -33.5t88.5 -13.5q27 0 53 5.5t45.5 18t31.5 32t12 48.5q0 36 -19.5 59.5t-49.5 40t-64 28.5t-64 24.5t-49.5 28.5t-19.5 40q0 26 14.5 44t32 34t32 34.5t14.5 46.5q0 25 -11 45.5t-29.5 35.5t-42 23t-48.5 8q-26 0 -51.5 -10t-45.5 -31
t-32.5 -54.5t-12.5 -81.5v-482z" />
    <glyph glyph-name="agrave" unicode="&#xe0;" horiz-adv-x="672" 
d="M301 716l104 -107l-19 -22l-119 92zM93 492q43 26 106.5 42.5t129.5 16.5q48 0 93 -10.5t80 -33.5t56 -60t21 -91v-215q0 -34 10.5 -49t45.5 -15h7l1 -77q-37 0 -65.5 6.5t-47.5 21t-28.5 38.5t-9.5 59v11q-20 -32 -49.5 -57.5t-65.5 -43.5t-76.5 -28.5t-82.5 -11.5
q-45 -2 -79 9.5t-56.5 31.5t-33.5 46.5t-11 55.5q0 33 14.5 66t43 59.5t71 42t98.5 14.5l140 -2h25.5t27.5 3t22.5 10t11.5 20q-1 33 -14.5 56t-36.5 37.5t-52.5 20.5t-62.5 6q-56 0 -111 -14.5t-90 -35.5zM492 264q-17 -13 -39.5 -17.5t-51.5 -3.5l-134 2q-33 0 -59 -8.5
t-44 -23t-27 -32.5t-9 -36q0 -30 27 -52.5t84 -19.5q37 2 81 16.5t81.5 38.5t63 57t27.5 72v7z" />
    <glyph glyph-name="aacute" unicode="&#xe1;" horiz-adv-x="672" 
d="M370 725l35 -38l-120 -91l-18 21zM93 492q43 26 106.5 42.5t129.5 16.5q48 0 93 -10.5t80 -33.5t56 -60t21 -91v-215q0 -34 10.5 -49t45.5 -15h7l1 -77q-37 0 -65.5 6.5t-47.5 21t-28.5 38.5t-9.5 59v11q-20 -32 -49.5 -57.5t-65.5 -43.5t-76.5 -28.5t-82.5 -11.5
q-45 -2 -79 9.5t-56.5 31.5t-33.5 46.5t-11 55.5q0 33 14.5 66t43 59.5t71 42t98.5 14.5l140 -2h25.5t27.5 3t22.5 10t11.5 20q-1 33 -14.5 56t-36.5 37.5t-52.5 20.5t-62.5 6q-56 0 -111 -14.5t-90 -35.5zM492 264q-17 -13 -39.5 -17.5t-51.5 -3.5l-134 2q-33 0 -59 -8.5
t-44 -23t-27 -32.5t-9 -36q0 -30 27 -52.5t84 -19.5q37 2 81 16.5t81.5 38.5t63 57t27.5 72v7z" />
    <glyph glyph-name="acircumflex" unicode="&#xe2;" horiz-adv-x="672" 
d="M253 605l59 100h47l60 -100h-39l-44 64l-45 -64h-38zM93 492q43 26 106.5 42.5t129.5 16.5q48 0 93 -10.5t80 -33.5t56 -60t21 -91v-215q0 -34 10.5 -49t45.5 -15h7l1 -77q-37 0 -65.5 6.5t-47.5 21t-28.5 38.5t-9.5 59v11q-20 -32 -49.5 -57.5t-65.5 -43.5t-76.5 -28.5
t-82.5 -11.5q-45 -2 -79 9.5t-56.5 31.5t-33.5 46.5t-11 55.5q0 33 14.5 66t43 59.5t71 42t98.5 14.5l140 -2h25.5t27.5 3t22.5 10t11.5 20q-1 33 -14.5 56t-36.5 37.5t-52.5 20.5t-62.5 6q-56 0 -111 -14.5t-90 -35.5zM492 264q-17 -13 -39.5 -17.5t-51.5 -3.5l-134 2
q-33 0 -59 -8.5t-44 -23t-27 -32.5t-9 -36q0 -30 27 -52.5t84 -19.5q37 2 81 16.5t81.5 38.5t63 57t27.5 72v7z" />
    <glyph glyph-name="atilde" unicode="&#xe3;" horiz-adv-x="672" 
d="M231 641q12 12 27.5 24t39.5 12q12 0 21.5 -4.5t18.5 -10t18 -10t20 -4.5t23 5t27 19l15 -31q-10 -10 -28 -19.5t-37 -9.5q-14 0 -24.5 4.5t-20 10t-18 10t-18.5 4.5t-22 -6t-27 -22zM93 492q43 26 106.5 42.5t129.5 16.5q48 0 93 -10.5t80 -33.5t56 -60t21 -91v-215
q0 -34 10.5 -49t45.5 -15h7l1 -77q-37 0 -65.5 6.5t-47.5 21t-28.5 38.5t-9.5 59v11q-20 -32 -49.5 -57.5t-65.5 -43.5t-76.5 -28.5t-82.5 -11.5q-45 -2 -79 9.5t-56.5 31.5t-33.5 46.5t-11 55.5q0 33 14.5 66t43 59.5t71 42t98.5 14.5l140 -2h25.5t27.5 3t22.5 10t11.5 20
q-1 33 -14.5 56t-36.5 37.5t-52.5 20.5t-62.5 6q-56 0 -111 -14.5t-90 -35.5zM492 264q-17 -13 -39.5 -17.5t-51.5 -3.5l-134 2q-33 0 -59 -8.5t-44 -23t-27 -32.5t-9 -36q0 -30 27 -52.5t84 -19.5q37 2 81 16.5t81.5 38.5t63 57t27.5 72v7z" />
    <glyph glyph-name="adieresis" unicode="&#xe4;" horiz-adv-x="672" 
d="M256 639q0 14 9.5 23.5t23.5 9.5q13 0 23 -9.5t10 -23.5q0 -13 -10 -22.5t-23 -9.5q-14 0 -23.5 9.5t-9.5 22.5zM351 639q0 14 10.5 23.5t24.5 9.5q11 0 20.5 -9.5t9.5 -23.5q0 -13 -9.5 -22.5t-20.5 -9.5q-14 0 -24.5 9.5t-10.5 22.5zM93 492q43 26 106.5 42.5
t129.5 16.5q48 0 93 -10.5t80 -33.5t56 -60t21 -91v-215q0 -34 10.5 -49t45.5 -15h7l1 -77q-37 0 -65.5 6.5t-47.5 21t-28.5 38.5t-9.5 59v11q-20 -32 -49.5 -57.5t-65.5 -43.5t-76.5 -28.5t-82.5 -11.5q-45 -2 -79 9.5t-56.5 31.5t-33.5 46.5t-11 55.5q0 33 14.5 66
t43 59.5t71 42t98.5 14.5l140 -2h25.5t27.5 3t22.5 10t11.5 20q-1 33 -14.5 56t-36.5 37.5t-52.5 20.5t-62.5 6q-56 0 -111 -14.5t-90 -35.5zM492 264q-17 -13 -39.5 -17.5t-51.5 -3.5l-134 2q-33 0 -59 -8.5t-44 -23t-27 -32.5t-9 -36q0 -30 27 -52.5t84 -19.5
q37 2 81 16.5t81.5 38.5t63 57t27.5 72v7z" />
    <glyph glyph-name="aring" unicode="&#xe5;" horiz-adv-x="672" 
d="M337 576q-39 0 -58 22.5t-19 50.5q0 27 19 50t58 23q38 0 56.5 -23t18.5 -50q0 -28 -18.5 -50.5t-56.5 -22.5zM336 688q-20 0 -29.5 -12.5t-9.5 -26.5t9.5 -26t29.5 -12q19 0 28.5 12t9.5 26t-9.5 26.5t-28.5 12.5zM93 492q43 26 106.5 42.5t129.5 16.5q48 0 93 -10.5
t80 -33.5t56 -60t21 -91v-215q0 -34 10.5 -49t45.5 -15h7l1 -77q-37 0 -65.5 6.5t-47.5 21t-28.5 38.5t-9.5 59v11q-20 -32 -49.5 -57.5t-65.5 -43.5t-76.5 -28.5t-82.5 -11.5q-45 -2 -79 9.5t-56.5 31.5t-33.5 46.5t-11 55.5q0 33 14.5 66t43 59.5t71 42t98.5 14.5l140 -2
h25.5t27.5 3t22.5 10t11.5 20q-1 33 -14.5 56t-36.5 37.5t-52.5 20.5t-62.5 6q-56 0 -111 -14.5t-90 -35.5zM492 264q-17 -13 -39.5 -17.5t-51.5 -3.5l-134 2q-33 0 -59 -8.5t-44 -23t-27 -32.5t-9 -36q0 -30 27 -52.5t84 -19.5q37 2 81 16.5t81.5 38.5t63 57t27.5 72v7z
" />
    <glyph glyph-name="ae" unicode="&#xe6;" horiz-adv-x="1105" 
d="M93 492q43 26 106 42.5t129 16.5q72 0 134 -23t94 -77q46 53 111 79t130 26q58 0 107 -21t85 -58.5t56.5 -89t22.5 -113.5l-488 1q0 -39 13.5 -77t40.5 -67t68 -47t96 -18t105.5 20.5t83.5 69.5l63 -55q-23 -28 -52.5 -50t-63 -37t-69 -23t-69.5 -8q-42 0 -86 11.5
t-83 35t-70.5 58t-48.5 81.5q-15 -40 -44.5 -71.5t-68.5 -54t-84.5 -35t-92.5 -13.5q-45 -2 -79 9.5t-56.5 31.5t-33.5 46.5t-11 55.5q0 33 14.5 66t43 59.5t71 42t98.5 14.5l141 -2h24.5t27.5 3t22.5 10t11.5 20q-1 33 -14.5 56t-36.5 37.5t-52.5 20.5t-62.5 6
q-56 0 -110.5 -14.5t-89.5 -35.5zM977 342q-5 23 -19.5 48t-37 45.5t-53.5 33.5t-69 13q-42 0 -76.5 -11t-60 -30t-43.5 -44.5t-27 -54.5h386zM491 264q-17 -14 -39 -18t-51 -3l-134 2q-33 0 -59 -8.5t-44 -23t-27 -32.5t-9 -36q0 -30 27 -52.5t85 -19.5q36 2 78.5 15.5
t80 37t63.5 55.5t29 71v12z" />
    <glyph glyph-name="ccedilla" unicode="&#xe7;" horiz-adv-x="646" 
d="M48 270q0 72 28 125.5t72 89t98.5 53.5t107.5 18q74 0 141 -30t112 -87l-65 -56q-17 25 -38.5 42.5t-45.5 28t-50.5 15.5t-52.5 5q-54 0 -95 -17.5t-68.5 -46t-41 -65.5t-13.5 -75t13.5 -74.5t41 -65t68.5 -46t95 -17.5q56 0 105 20.5t82 69.5l65 -56
q-48 -59 -118.5 -88.5t-145.5 -29.5l-10 -23q26 -6 38.5 -22.5t12.5 -35.5q0 -22 -15 -40t-41 -18q-16 0 -28 4.5t-21 9.5q-11 6 -18 15l17 31q6 -11 19.5 -18.5t25.5 -7.5q9 0 16 5.5t7 17.5q1 14 -12.5 27t-43.5 14l16 45q-48 7 -94.5 28t-82.5 56t-58.5 85t-22.5 114z
" />
    <glyph glyph-name="egrave" unicode="&#xe8;" horiz-adv-x="662" 
d="M296 716l103 -107l-18 -22l-119 92zM48 270q0 72 28 125.5t72 89t98.5 53.5t107.5 18q58 0 107 -21t85 -58.5t56.5 -89t22.5 -113.5l-487 1q0 -39 13 -77t40 -67t68 -47t96 -18q56 0 106 20.5t83 69.5l63 -55q-23 -28 -52.5 -50t-63 -37t-69 -23t-69.5 -8q-53 0 -107 18
t-98 53.5t-72 89.5t-28 126zM534 342q-5 23 -19 48t-37 45.5t-54 33.5t-69 13q-42 0 -76.5 -11t-60 -30t-43.5 -44.5t-27 -54.5h386z" />
    <glyph glyph-name="eacute" unicode="&#xe9;" horiz-adv-x="662" 
d="M365 725l34 -38l-119 -91l-18 21zM48 270q0 72 28 125.5t72 89t98.5 53.5t107.5 18q58 0 107 -21t85 -58.5t56.5 -89t22.5 -113.5l-487 1q0 -39 13 -77t40 -67t68 -47t96 -18q56 0 106 20.5t83 69.5l63 -55q-23 -28 -52.5 -50t-63 -37t-69 -23t-69.5 -8q-53 0 -107 18
t-98 53.5t-72 89.5t-28 126zM534 342q-5 23 -19 48t-37 45.5t-54 33.5t-69 13q-42 0 -76.5 -11t-60 -30t-43.5 -44.5t-27 -54.5h386z" />
    <glyph glyph-name="ecircumflex" unicode="&#xea;" horiz-adv-x="662" 
d="M247 605l60 100h47l59 -100h-38l-45 64l-44 -64h-39zM48 270q0 72 28 125.5t72 89t98.5 53.5t107.5 18q58 0 107 -21t85 -58.5t56.5 -89t22.5 -113.5l-487 1q0 -39 13 -77t40 -67t68 -47t96 -18q56 0 106 20.5t83 69.5l63 -55q-23 -28 -52.5 -50t-63 -37t-69 -23
t-69.5 -8q-53 0 -107 18t-98 53.5t-72 89.5t-28 126zM534 342q-5 23 -19 48t-37 45.5t-54 33.5t-69 13q-42 0 -76.5 -11t-60 -30t-43.5 -44.5t-27 -54.5h386z" />
    <glyph glyph-name="edieresis" unicode="&#xeb;" horiz-adv-x="662" 
d="M251 639q0 14 9.5 23.5t23.5 9.5q13 0 22.5 -9.5t9.5 -23.5q0 -13 -9.5 -22.5t-22.5 -9.5q-14 0 -23.5 9.5t-9.5 22.5zM345 639q0 14 10.5 23.5t24.5 9.5q11 0 20.5 -9.5t9.5 -23.5q0 -13 -9.5 -22.5t-20.5 -9.5q-14 0 -24.5 9.5t-10.5 22.5zM48 270q0 72 28 125.5t72 89
t98.5 53.5t107.5 18q58 0 107 -21t85 -58.5t56.5 -89t22.5 -113.5l-487 1q0 -39 13 -77t40 -67t68 -47t96 -18q56 0 106 20.5t83 69.5l63 -55q-23 -28 -52.5 -50t-63 -37t-69 -23t-69.5 -8q-53 0 -107 18t-98 53.5t-72 89.5t-28 126zM534 342q-5 23 -19 48t-37 45.5
t-54 33.5t-69 13q-42 0 -76.5 -11t-60 -30t-43.5 -44.5t-27 -54.5h386z" />
    <glyph glyph-name="igrave" unicode="&#xec;" horiz-adv-x="241" 
d="M86 716l103 -107l-18 -22l-120 92zM76 0v540h88v-540h-88z" />
    <glyph glyph-name="iacute" unicode="&#xed;" horiz-adv-x="241" 
d="M155 725l34 -38l-119 -91l-19 21zM76 0v540h88v-540h-88z" />
    <glyph glyph-name="icircumflex" unicode="&#xee;" horiz-adv-x="241" 
d="M37 605l60 100h47l59 -100h-38l-45 64l-44 -64h-39zM76 0v540h88v-540h-88z" />
    <glyph glyph-name="idieresis" unicode="&#xef;" horiz-adv-x="241" 
d="M40 639q0 14 10 23.5t24 9.5q12 0 22 -9.5t10 -23.5q0 -13 -10 -22.5t-22 -9.5q-14 0 -24 9.5t-10 22.5zM135 639q0 14 10.5 23.5t24.5 9.5q11 0 20.5 -9.5t9.5 -23.5q0 -13 -9.5 -22.5t-20.5 -9.5q-14 0 -24.5 9.5t-10.5 22.5zM76 0v540h88v-540h-88z" />
    <glyph glyph-name="ntilde" unicode="&#xf1;" horiz-adv-x="702" 
d="M245 641q13 12 28.5 24t39.5 12q12 0 21.5 -4.5t18.5 -10t18 -10t20 -4.5t23 5t27 19l15 -31q-11 -10 -28.5 -19.5t-36.5 -9.5q-14 0 -24.5 4.5t-20 10t-18 10t-18.5 4.5t-22 -6t-27 -22zM75 0v423q0 14 -4 27t-20 13h-23v77h23q20 0 39 -5t35 -15t26 -25.5t12 -37.5
q30 43 80 68.5t116 25.5q57 0 103 -14.5t78.5 -43.5t50 -73t17.5 -102v-177q0 -34 11 -49.5t46 -15.5h7l1 -76q-32 0 -59.5 5.5t-48.5 20t-33 39t-12 62.5v145q0 48 -7 86t-26.5 64.5t-54 40.5t-88.5 14q-38 0 -70.5 -11.5t-57.5 -33t-39 -52t-14 -68.5v-312h-88z" />
    <glyph glyph-name="ograve" unicode="&#xf2;" horiz-adv-x="712" 
d="M321 716l103 -107l-18 -22l-119 92zM662 270q0 -72 -28 -125.5t-72 -89t-98.5 -53t-107.5 -17.5t-108 17.5t-99 53t-72 89t-28 125.5t28 125.5t72 89t99 53t108 17.5t107.5 -17.5t98.5 -53t72 -89t28 -125.5zM575 270q0 52 -20 90.5t-52 64t-71 38.5t-76 13
q-38 0 -77 -13t-70.5 -38.5t-51.5 -64t-20 -90.5t20 -90.5t51.5 -64t70.5 -38.5t77 -13q37 0 76 13t71 38.5t52 64t20 90.5z" />
    <glyph glyph-name="oacute" unicode="&#xf3;" horiz-adv-x="712" 
d="M390 725l34 -38l-119 -91l-18 21zM662 270q0 -72 -28 -125.5t-72 -89t-98.5 -53t-107.5 -17.5t-108 17.5t-99 53t-72 89t-28 125.5t28 125.5t72 89t99 53t108 17.5t107.5 -17.5t98.5 -53t72 -89t28 -125.5zM575 270q0 52 -20 90.5t-52 64t-71 38.5t-76 13q-38 0 -77 -13
t-70.5 -38.5t-51.5 -64t-20 -90.5t20 -90.5t51.5 -64t70.5 -38.5t77 -13q37 0 76 13t71 38.5t52 64t20 90.5z" />
    <glyph glyph-name="ocircumflex" unicode="&#xf4;" horiz-adv-x="712" 
d="M272 605l60 100h47l59 -100h-38l-45 64l-44 -64h-39zM662 270q0 -72 -28 -125.5t-72 -89t-98.5 -53t-107.5 -17.5t-108 17.5t-99 53t-72 89t-28 125.5t28 125.5t72 89t99 53t108 17.5t107.5 -17.5t98.5 -53t72 -89t28 -125.5zM575 270q0 52 -20 90.5t-52 64t-71 38.5
t-76 13q-38 0 -77 -13t-70.5 -38.5t-51.5 -64t-20 -90.5t20 -90.5t51.5 -64t70.5 -38.5t77 -13q37 0 76 13t71 38.5t52 64t20 90.5z" />
    <glyph glyph-name="otilde" unicode="&#xf5;" horiz-adv-x="712" 
d="M250 641q13 12 28.5 24t39.5 12q12 0 21.5 -4.5t18.5 -10t18 -10t20 -4.5q10 0 22 5t27 19l16 -31q-11 -10 -28.5 -19.5t-36.5 -9.5q-14 0 -25 4.5t-20 10t-18 10t-19 4.5t-21.5 -6t-26.5 -22zM662 270q0 -72 -28 -125.5t-72 -89t-98.5 -53t-107.5 -17.5t-108 17.5
t-99 53t-72 89t-28 125.5t28 125.5t72 89t99 53t108 17.5t107.5 -17.5t98.5 -53t72 -89t28 -125.5zM575 270q0 52 -20 90.5t-52 64t-71 38.5t-76 13q-38 0 -77 -13t-70.5 -38.5t-51.5 -64t-20 -90.5t20 -90.5t51.5 -64t70.5 -38.5t77 -13q37 0 76 13t71 38.5t52 64t20 90.5z
" />
    <glyph glyph-name="odieresis" unicode="&#xf6;" horiz-adv-x="712" 
d="M276 639q0 14 9.5 23.5t23.5 9.5q13 0 22.5 -9.5t9.5 -23.5q0 -13 -9.5 -22.5t-22.5 -9.5q-14 0 -23.5 9.5t-9.5 22.5zM370 639q0 14 10.5 23.5t24.5 9.5q11 0 20.5 -9.5t9.5 -23.5q0 -13 -9.5 -22.5t-20.5 -9.5q-14 0 -24.5 9.5t-10.5 22.5zM662 270q0 -72 -28 -125.5
t-72 -89t-98.5 -53t-107.5 -17.5t-108 17.5t-99 53t-72 89t-28 125.5t28 125.5t72 89t99 53t108 17.5t107.5 -17.5t98.5 -53t72 -89t28 -125.5zM575 270q0 52 -20 90.5t-52 64t-71 38.5t-76 13q-38 0 -77 -13t-70.5 -38.5t-51.5 -64t-20 -90.5t20 -90.5t51.5 -64t70.5 -38.5
t77 -13q37 0 76 13t71 38.5t52 64t20 90.5z" />
    <glyph glyph-name="divide" unicode="&#xf7;" horiz-adv-x="457" 
d="M182 521q0 20 13.5 33.5t33.5 13.5t33 -13.5t13 -33.5t-13 -33.5t-33 -13.5t-33.5 13.5t-13.5 33.5zM37 302v28h383v-28h-383zM182 91q0 20 13.5 33t33.5 13t33 -13t13 -33t-13 -34t-33 -14t-33.5 14t-13.5 34z" />
    <glyph glyph-name="oslash" unicode="&#xf8;" horiz-adv-x="712" 
d="M662 270q0 -72 -28 -125.5t-72 -89t-98.5 -53t-107.5 -17.5q-30 0 -61 5.5t-60 16.5l-57 -88h-77l75 117q-55 35 -91 93t-36 141q0 72 28 125.5t72 89t99 53t108 17.5q33 0 67.5 -7t67.5 -21l59 92h77l-80 -124q51 -35 83 -91t32 -134zM446 458q-44 18 -90 18
q-38 0 -77 -13t-70.5 -38.5t-51.5 -64t-20 -90.5q0 -57 23.5 -97.5t60.5 -66.5zM575 270q0 52 -20.5 90.5t-52.5 64.5l-223 -348q19 -7 38.5 -10t38.5 -3q37 0 76 13t71 38.5t52 64t20 90.5z" />
    <glyph glyph-name="ugrave" unicode="&#xf9;" horiz-adv-x="695" 
d="M313 716l103 -107l-19 -22l-119 92zM74 540h87v-317q0 -42 15 -73t39.5 -51.5t55.5 -31t64 -10.5t65.5 10.5t57.5 32t40.5 53t15.5 73.5v314h87v-399q0 -34 10.5 -49t45.5 -15h7l1 -77q-63 0 -100 18.5t-48 66.5q-34 -51 -88.5 -76t-113.5 -25q-45 0 -88.5 15t-77.5 45
t-54.5 74.5t-20.5 104.5v317z" />
    <glyph glyph-name="uacute" unicode="&#xfa;" horiz-adv-x="695" 
d="M381 725l35 -38l-119 -91l-19 21zM74 540h87v-317q0 -42 15 -73t39.5 -51.5t55.5 -31t64 -10.5t65.5 10.5t57.5 32t40.5 53t15.5 73.5v314h87v-399q0 -34 10.5 -49t45.5 -15h7l1 -77q-63 0 -100 18.5t-48 66.5q-34 -51 -88.5 -76t-113.5 -25q-45 0 -88.5 15t-77.5 45
t-54.5 74.5t-20.5 104.5v317z" />
    <glyph glyph-name="ucircumflex" unicode="&#xfb;" horiz-adv-x="695" 
d="M264 605l60 100h47l59 -100h-39l-44 64l-44 -64h-39zM74 540h87v-317q0 -42 15 -73t39.5 -51.5t55.5 -31t64 -10.5t65.5 10.5t57.5 32t40.5 53t15.5 73.5v314h87v-399q0 -34 10.5 -49t45.5 -15h7l1 -77q-63 0 -100 18.5t-48 66.5q-34 -51 -88.5 -76t-113.5 -25
q-45 0 -88.5 15t-77.5 45t-54.5 74.5t-20.5 104.5v317z" />
    <glyph glyph-name="udieresis" unicode="&#xfc;" horiz-adv-x="695" 
d="M267 639q0 14 10 23.5t24 9.5q12 0 22 -9.5t10 -23.5q0 -13 -10 -22.5t-22 -9.5q-14 0 -24 9.5t-10 22.5zM362 639q0 14 10.5 23.5t24.5 9.5q11 0 20.5 -9.5t9.5 -23.5q0 -13 -9.5 -22.5t-20.5 -9.5q-14 0 -24.5 9.5t-10.5 22.5zM74 540h87v-317q0 -42 15 -73t39.5 -51.5
t55.5 -31t64 -10.5t65.5 10.5t57.5 32t40.5 53t15.5 73.5v314h87v-399q0 -34 10.5 -49t45.5 -15h7l1 -77q-63 0 -100 18.5t-48 66.5q-34 -51 -88.5 -76t-113.5 -25q-45 0 -88.5 15t-77.5 45t-54.5 74.5t-20.5 104.5v317z" />
    <glyph glyph-name="yacute" unicode="&#xfd;" horiz-adv-x="686" 
d="M377 725l34 -38l-119 -91l-18 21zM81 540h87v-317q0 -43 15 -75t39.5 -53t55.5 -31.5t64 -10.5t64.5 10.5t56.5 31.5t40.5 52t17.5 72v321h87v-460q0 -157 -82.5 -244t-241.5 -87q-51 0 -108.5 15t-101.5 38l28 79q38 -21 89 -34.5t98 -13.5q70 0 115.5 18.5t71 51.5
t35.5 77.5t10 96.5q-35 -49 -88 -73t-111 -24q-45 0 -88.5 15t-77 45.5t-54.5 76t-21 106.5v317z" />
    <glyph glyph-name="thorn" unicode="&#xfe;" horiz-adv-x="691" 
d="M642 270q0 -68 -24 -121t-63 -89.5t-88.5 -55.5t-100.5 -19q-60 0 -114.5 28.5t-88.5 88.5v-252h-87v800h87v-213q34 60 88.5 89t114.5 29q51 0 100.5 -19t88.5 -56t63 -90t24 -120zM554 270q0 51 -17.5 90.5t-45.5 66t-64 40t-73 13.5q-36 0 -70 -13t-60.5 -39
t-42.5 -65.5t-16 -92.5q0 -54 16 -93.5t42.5 -65.5t60.5 -39t70 -13q37 0 73 13.5t64 40t45.5 66t17.5 91.5z" />
    <glyph glyph-name="ydieresis" unicode="&#xff;" horiz-adv-x="686" 
d="M263 639q0 14 9.5 23.5t23.5 9.5q13 0 22.5 -9.5t9.5 -23.5q0 -13 -9.5 -22.5t-22.5 -9.5q-14 0 -23.5 9.5t-9.5 22.5zM357 639q0 14 10.5 23.5t24.5 9.5q11 0 20.5 -9.5t9.5 -23.5q0 -13 -9.5 -22.5t-20.5 -9.5q-14 0 -24.5 9.5t-10.5 22.5zM81 540h87v-317
q0 -43 15 -75t39.5 -53t55.5 -31.5t64 -10.5t64.5 10.5t56.5 31.5t40.5 52t17.5 72v321h87v-460q0 -157 -82.5 -244t-241.5 -87q-51 0 -108.5 15t-101.5 38l28 79q38 -21 89 -34.5t98 -13.5q70 0 115.5 18.5t71 51.5t35.5 77.5t10 96.5q-35 -49 -88 -73t-111 -24
q-45 0 -88.5 15t-77 45.5t-54.5 76t-21 106.5v317z" />
    <glyph glyph-name="Dcroat" unicode="&#x110;" horiz-adv-x="806" 
d="M430 700q82 -2 143 -32.5t102 -79.5t61.5 -111t20.5 -127t-20.5 -127t-61.5 -111t-102 -80t-143 -32h-352v360h-50v72h50v268h352zM167 618v-186h317v-72h-317v-277h255q60 0 105.5 23t76 60.5t45.5 85.5t15 98t-15 98.5t-45.5 86t-76 60.5t-105.5 23h-255z" />
    <glyph glyph-name="dcroat" unicode="&#x111;" horiz-adv-x="689" 
d="M612 750v-69h87v-72h-87v-609h-72l-14 101q-34 -60 -88 -88t-114 -28q-51 0 -100.5 19t-88.5 55.5t-63 89.5t-24 121q0 67 24 120t63 90t88.5 56t100.5 19q60 0 113.5 -28t87.5 -87v169h-281v72h281v69h87zM136 270q0 -52 17.5 -91.5t45.5 -66t64 -40t73 -13.5
q36 0 70 13t60.5 39t42.5 65.5t16 93.5q0 53 -16 92.5t-42.5 65.5t-60.5 39t-70 13q-37 0 -73 -13.5t-64 -40t-45.5 -66t-17.5 -90.5z" />
    <glyph glyph-name="dotlessi" unicode="&#x131;" horiz-adv-x="241" 
d="M77 0v540h87v-540h-87z" />
    <glyph glyph-name="Lslash" unicode="&#x141;" horiz-adv-x="657" 
d="M78 236l-60 -24l-25 61l85 34v393h89v-357l143 57l25 -61l-168 -67v-191h471v-81h-560v236z" />
    <glyph glyph-name="lslash" unicode="&#x142;" horiz-adv-x="241" 
d="M76 240l-92 -48l-30 58l122 64v436h88v-391l92 48l30 -58l-122 -64v-285h-88v240z" />
    <glyph glyph-name="OE" unicode="&#x152;" horiz-adv-x="1213" 
d="M1098 81v-81h-658q-68 0 -137.5 20t-126 62.5t-92.5 109t-36 158.5q0 93 36 159t92.5 108.5t126.5 62.5t138 20h651v-81h-477v-228h416v-81h-416v-229h483zM526 614h-85q-52 0 -105 -14.5t-96.5 -46.5t-71 -82t-27.5 -121t27.5 -121t71 -82t96.5 -46.5t105 -14.5h85v528z
" />
    <glyph glyph-name="oe" unicode="&#x153;" horiz-adv-x="1191" 
d="M1136 101q-23 -28 -52.5 -50t-62.5 -37t-68.5 -23t-69.5 -8q-36 0 -73.5 8.5t-72 25t-64.5 41.5t-52 59q-22 -33 -52.5 -58t-65 -41.5t-72 -25t-73.5 -8.5q-53 0 -107.5 17.5t-98.5 53.5t-72 89.5t-28 125.5t28 125.5t72 89t98.5 53t107.5 17.5q36 0 73.5 -8.5t72 -25
t65 -41t52.5 -57.5q22 33 52 58t64.5 41.5t72 25t73.5 8.5q58 0 107 -21t85 -58.5t56.5 -89t22.5 -113.5l-487 1q0 -39 13.5 -77t40.5 -67t68 -47t95 -18q56 0 106 20.5t83 69.5zM1063 342q-5 23 -19 48t-37 45.5t-54 33.5t-68 13q-42 0 -76.5 -11t-60.5 -30t-44 -44.5
t-27 -54.5h386zM577 270q0 52 -20 90.5t-51.5 64t-70.5 38t-77 12.5t-77 -12.5t-70.5 -38t-51.5 -64t-20 -90.5t20 -91t51.5 -64.5t70.5 -38t77 -12.5t77 12.5t70.5 38t51.5 64.5t20 91z" />
    <glyph glyph-name="Scaron" unicode="&#x160;" horiz-adv-x="698" 
d="M265 858h39l44 -65l45 65h38l-59 -100h-47zM591 549q-18 19 -45 34.5t-59 26t-67 16.5t-69 6q-36 0 -70 -7.5t-60.5 -23t-42 -40.5t-15.5 -60q0 -33 21 -52.5t55.5 -31t78.5 -18t89.5 -14.5t89.5 -19.5t78.5 -33t55.5 -55.5t21 -87q0 -55 -25.5 -95t-67.5 -65.5
t-96.5 -38t-112.5 -12.5q-46 0 -91 7.5t-85.5 21.5t-73.5 34.5t-54 46.5l56 67q17 -22 45.5 -39t63 -29t72.5 -18.5t75 -6.5q39 0 75 7.5t64 23t45 39.5t17 57q0 35 -21 56t-55.5 33.5t-78 19.5t-89.5 15t-89.5 19t-78 31.5t-55.5 54t-21 85.5q0 57 23.5 97t63 66t90.5 38
t105 12q42 0 84 -7t80.5 -19.5t70.5 -31t55 -40.5z" />
    <glyph glyph-name="scaron" unicode="&#x161;" horiz-adv-x="638" 
d="M235 698h39l44 -65l45 65h38l-59 -100h-47zM534 409q-16 15 -41.5 28t-56 22t-64.5 14.5t-67 5.5q-30 0 -57 -5t-47.5 -16t-32.5 -28t-12 -41q0 -32 32 -47t80 -23.5t104 -16.5t104 -24.5t80 -47.5t32 -87q0 -44 -23 -75.5t-61 -52t-86.5 -30.5t-100.5 -10q-41 0 -81 6
t-75.5 17t-65 27.5t-47.5 37.5l54 61q14 -17 39 -31t55.5 -23.5t65 -14.5t68.5 -5t64.5 5.5t54 17t37.5 29t14 42.5q0 27 -18.5 42.5t-48.5 25t-68.5 14.5t-79 11t-79 15t-68.5 26t-48.5 44.5t-18.5 69.5q0 43 20 74t53.5 50.5t77 28.5t90.5 9q39 0 78.5 -6t75 -16.5
t65.5 -25.5t50 -34z" />
    <glyph glyph-name="Ydieresis" unicode="&#x178;" horiz-adv-x="708" 
d="M274 799q0 14 9.5 23.5t23.5 9.5q13 0 23 -9.5t10 -23.5q0 -13 -10 -22.5t-23 -9.5q-14 0 -23.5 9.5t-9.5 22.5zM369 799q0 14 10 23.5t24 9.5q11 0 20.5 -9.5t9.5 -23.5q0 -13 -9.5 -22.5t-20.5 -9.5q-14 0 -24 9.5t-10 22.5zM122 700l231 -336l232 336h103l-290 -411
v-289h-89v289l-290 411h103z" />
    <glyph glyph-name="Zcaron" unicode="&#x17d;" horiz-adv-x="652" 
d="M243 858h38l45 -65l44 65h39l-59 -100h-48zM141 81h474v-81h-579v81l448 538h-440v81h540v-81h-2h1z" />
    <glyph glyph-name="zcaron" unicode="&#x17e;" horiz-adv-x="594" 
d="M214 698h38l45 -65l44 65h39l-60 -100h-47zM144 80h421v-80h-537v80l405 380h-380v80h489v-80z" />
    <glyph glyph-name="circumflex" unicode="&#x2c6;" horiz-adv-x="200" 
d="M17 605l59 100h47l60 -100h-39l-44 64l-45 -64h-38z" />
    <glyph glyph-name="caron" unicode="&#x2c7;" horiz-adv-x="200" 
d="M17 698h38l45 -65l44 65h39l-59 -100h-48z" />
    <glyph glyph-name="ring" unicode="&#x2da;" horiz-adv-x="201" 
d="M102 576q-39 0 -58 22.5t-19 50.5q0 27 19 50t58 23q38 0 56.5 -23t18.5 -50q0 -28 -18.5 -50.5t-56.5 -22.5zM101 688q-20 0 -29.5 -12.5t-9.5 -26.5t9.5 -26t29.5 -12q19 0 28.5 12t9.5 26t-9.5 26.5t-28.5 12.5z" />
    <glyph glyph-name="tilde" unicode="&#x2dc;" horiz-adv-x="283" 
d="M37 641q12 12 28 24t39 12q12 0 21.5 -4.5t18.5 -10t18.5 -10t20.5 -4.5q10 0 22 5t27 19l15 -31q-10 -10 -28 -19.5t-37 -9.5q-14 0 -24.5 4.5t-20 10t-18 10t-18.5 4.5t-22 -6t-27 -22z" />
    <glyph glyph-name="endash" unicode="&#x2013;" horiz-adv-x="416" 
d="M37 333h342v-66h-342v66z" />
    <glyph glyph-name="emdash" unicode="&#x2014;" horiz-adv-x="654" 
d="M37 331h580v-72h-580v72z" />
    <glyph glyph-name="quoteleft" unicode="&#x2018;" horiz-adv-x="208" 
d="M121 505h-84l86 195h49z" />
    <glyph glyph-name="quoteright" unicode="&#x2019;" horiz-adv-x="208" 
d="M88 700h84l-86 -195h-49z" />
    <glyph glyph-name="quotesinglbase" unicode="&#x201a;" horiz-adv-x="208" 
d="M88 107h84l-86 -195h-49z" />
    <glyph glyph-name="quotedblleft" unicode="&#x201c;" horiz-adv-x="349" 
d="M121 505h-84l86 195h49zM261 505h-84l86 195h49z" />
    <glyph glyph-name="quotedblright" unicode="&#x201d;" horiz-adv-x="349" 
d="M228 700h84l-85 -195h-50zM88 700h84l-86 -195h-49z" />
    <glyph glyph-name="quotedblbase" unicode="&#x201e;" horiz-adv-x="342" 
d="M88 107h84l-86 -195h-49zM221 107h84l-86 -195h-49z" />
    <glyph glyph-name="dagger" unicode="&#x2020;" horiz-adv-x="410" 
d="M242 700v-181h132v-74h-132v-531h-74v531h-131v74h131v181h74z" />
    <glyph glyph-name="bullet" unicode="&#x2022;" horiz-adv-x="235" 
d="M37 350q0 16 6.5 30.5t17.5 25.5t25.5 18t31.5 7q16 0 30.5 -7t25.5 -18t18 -25.5t7 -30.5q0 -17 -7 -31.5t-18 -26t-25.5 -18t-30.5 -6.5q-33 0 -57 24.5t-24 57.5z" />
    <glyph glyph-name="guilsinglleft" unicode="&#x2039;" horiz-adv-x="270" 
d="M37 368l197 253v-91l-142 -180l142 -180v-91l-197 253v36z" />
    <glyph glyph-name="guilsinglright" unicode="&#x203a;" horiz-adv-x="270" 
d="M234 368v-36l-197 -253v91l142 180l-142 180v91z" />
    <glyph glyph-name="Euro" unicode="&#x20ac;" horiz-adv-x="721" 
d="M129 457q14 53 43 100t72.5 82t101 55.5t129.5 20.5q57 0 110.5 -18.5t98.5 -52.5l-49 -71q-25 22 -65.5 39.5t-91.5 17.5q-50 0 -91 -13.5t-73 -36.5t-54.5 -55t-35.5 -68h193v-66h-209q-3 -21 -3 -43q0 -12 1 -24t3 -24h208v-67h-189q14 -34 36.5 -63.5t53.5 -51.5
t71 -34.5t89 -12.5q32 0 57 5t44 13t32.5 17.5t23.5 18.5l50 -69q-44 -35 -92 -53t-118 -18q-71 0 -127.5 19.5t-99.5 53.5t-72.5 79t-44.5 96h-113v67h99q-3 25 -3 50q0 11 0.5 20.5t1.5 20.5h-98v66h111z" />
    <glyph glyph-name="trademark" unicode="&#x2122;" horiz-adv-x="408" 
d="M293 602l54 98h28v-181h-33v104l-38 -68h-22l-38 67v-103h-32v181h27zM130 670v-151h-33v151h-60v30h153v-30h-60z" />
    <glyph glyph-name="minus" unicode="&#x2212;" horiz-adv-x="465" 
d="M37 386h391v-73h-391v73z" />
    <glyph glyph-name="a.salt" horiz-adv-x="689" 
d="M613 540v-540h-72l-14 101q-34 -60 -88.5 -88t-114.5 -28q-51 0 -100 19t-88 55.5t-63 89.5t-24 121q0 67 24 120t63 90t88 56t100 19q60 0 113.5 -28t87.5 -87v100h88zM137 270q0 -52 17 -91.5t45 -66t64 -40t73 -13.5q36 0 70 13t60.5 39t42.5 65.5t16 93.5
q0 53 -16 92.5t-42.5 65.5t-60.5 39t-70 13q-37 0 -73 -13.5t-64 -40t-45 -66t-17 -90.5z" />
    <glyph glyph-name="d.salt" horiz-adv-x="706" 
d="M49 270q0 67 24 120t63 90t88 56t100 19q60 0 113.5 -28t87.5 -87v310h88v-609q0 -34 10.5 -49t45.5 -15h7l1 -77q-68 0 -106 22t-45 79q-33 -60 -87.5 -88t-114.5 -28q-51 0 -100 19t-88 55.5t-63 89.5t-24 121zM137 270q0 -52 17 -91.5t45 -66t64 -40t73 -13.5
q36 0 70 13t60.5 39t42.5 65.5t16 93.5q0 53 -16 92.5t-42.5 65.5t-60.5 39t-70 13q-37 0 -73 -13.5t-64 -40t-45 -66t-17 -90.5z" />
    <glyph glyph-name="g.salt" horiz-adv-x="678" 
d="M568 340q0 -51 -21 -90t-55 -65t-78 -39.5t-89 -13.5q-37 0 -72.5 9t-66.5 27q-9 -5 -16.5 -11t-7.5 -17q0 -20 20.5 -30.5t54 -15.5t76.5 -7t87.5 -6t87.5 -11t76.5 -23t54 -43t20.5 -69t-26.5 -74.5t-69.5 -54t-98 -32.5t-112 -11t-111.5 11t-97.5 33.5t-69 56.5
t-26 80q0 42 27.5 67t64.5 41q-17 14 -27 32.5t-10 44.5q0 29 17.5 48t37.5 28q-25 26 -39 62.5t-14 83.5q0 51 21 90t55 65t78 39.5t89 13.5q46 0 89.5 -14t77.5 -42q20 23 20 60q0 25 -9 54l81 8q7 -27 7 -54q0 -35 -14 -63t-45 -50q15 -24 23.5 -53.5t8.5 -64.5zM166 345
q0 -34 14 -59.5t36.5 -42.5t51.5 -25.5t59 -8.5t59 8.5t51.5 25.5t36.5 42.5t14 59.5t-14 59.5t-36.5 43t-51.5 26t-59 8.5t-59 -8.5t-51.5 -26t-36.5 -43t-14 -59.5zM188 21q-13 -5 -26.5 -12.5t-25 -17t-18.5 -21t-7 -25.5q0 -26 19 -45.5t50.5 -32.5t71 -19t81.5 -6
q41 0 80.5 6t70.5 18t50 29t19 39t-17.5 35t-46.5 19.5t-66.5 9t-78.5 5t-81.5 6t-74.5 12.5z" />
    <glyph glyph-name="h.salt" horiz-adv-x="687" 
d="M77 0v750h87v-306q28 49 76.5 78t120.5 29q56 0 102 -14.5t78.5 -43.5t50 -73t17.5 -102v-318h-88v272q0 48 -7 86t-26.5 64.5t-54 40.5t-88.5 14q-38 0 -70.5 -10.5t-57.5 -31.5t-39 -52t-14 -71v-312h-87z" />
    <glyph glyph-name="i.salt" horiz-adv-x="256" 
d="M63 660q0 25 15.5 40t41.5 15t41 -15t15 -40t-15 -40t-41 -15t-41.5 15t-15.5 40zM28 540h24q20 0 40 -5.5t35.5 -16.5t25.5 -28t10 -40v-309q0 -34 10.5 -49t45.5 -15h8v-77q-74 0 -112.5 27t-38.5 98v289q0 8 -0.5 16.5t-2.5 16t-7.5 12t-14.5 4.5h-23v77z" />
    <glyph glyph-name="j.salt" horiz-adv-x="235" 
d="M61 660q0 25 15.5 40t41.5 15t41 -15t15 -40t-15 -40t-41 -15t-41.5 15t-15.5 40zM76 540h88v-685h-88v685z" />
    <glyph glyph-name="k.salt" horiz-adv-x="692" 
d="M77 708h87v-429l296 261h123l-238 -207l338 -333h-126l-276 277l-117 -101v-176h-87v708z" />
    <glyph glyph-name="l.salt" horiz-adv-x="257" 
d="M164 750v-609q0 -34 11 -49t46 -15h7v-77q-74 0 -112.5 27t-38.5 98v625h87z" />
    <glyph glyph-name="m.salt" horiz-adv-x="960" 
d="M77 0v540h72l14 -76q27 41 69.5 64t100.5 23q134 0 176 -114q23 53 68.5 83.5t114.5 30.5q95 0 144.5 -57.5t49.5 -175.5v-318h-88v311q0 37 -6 67.5t-19.5 52.5t-37 34t-57.5 12q-60 0 -102 -36.5t-49 -103.5v-19v-318l-88 1v310q0 37 -6 67.5t-20 52.5t-37.5 34
t-57.5 12q-32 0 -60 -10.5t-49 -31.5t-33 -52t-12 -71v-312h-87z" />
    <glyph glyph-name="n.salt" horiz-adv-x="684" 
d="M164 0h-87v540h72l15 -83q30 43 80 68.5t117 25.5q56 0 102 -14.5t78.5 -43.5t50.5 -73t18 -102v-318h-89v272q0 48 -7 86t-26.5 64.5t-54 40.5t-88.5 14q-37 0 -70 -11.5t-57.5 -33t-39 -52t-14.5 -68.5v-312z" />
    <glyph glyph-name="p.salt" horiz-adv-x="692" 
d="M643 270q0 -68 -24 -121t-63 -89.5t-88.5 -55.5t-100.5 -19q-60 0 -114.5 28.5t-88.5 88.5v-319h-87v757h72l14 -106q33 63 88 92t116 29q51 0 100.5 -19t88.5 -56t63 -90t24 -120zM555 270q0 51 -17.5 90.5t-45.5 66t-64 40t-73 13.5q-36 0 -70 -13t-60.5 -39
t-42.5 -65.5t-16 -92.5q0 -54 16 -93.5t42.5 -65.5t60.5 -39t70 -13q37 0 73 13.5t64 40t45.5 66t17.5 91.5z" />
    <glyph glyph-name="r.salt" horiz-adv-x="448" 
d="M164 0h-87v540h72l15 -95q30 45 74 74t99 29q41 0 82 -17l-22 -74q-22 8 -48 8q-31 0 -64 -11t-60 -30t-44 -45t-17 -56v-323z" />
    <glyph glyph-name="u.salt" horiz-adv-x="678" 
d="M74 540h87v-317q0 -42 15 -73t39.5 -51.5t55.5 -31t64 -10.5t65.5 10.5t57.5 32t40.5 53t15.5 73.5v314h88v-540h-88v80q-35 -48 -88 -72t-111 -24q-45 0 -88.5 15t-77 45t-54.5 74.5t-21 104.5v317z" />
    <glyph glyph-name="y.salt" horiz-adv-x="689" 
d="M394 11q-24 -48 -52.5 -94.5t-61.5 -82.5t-70 -58t-78 -22q-21 0 -40.5 4.5t-36.5 11t-30.5 14t-22.5 13.5l36 72q4 -3 13.5 -8.5t21.5 -10.5t26.5 -9t28.5 -4q24 0 47 14t44.5 35.5t40.5 49t34 54.5l-275 550h97l223 -463l222 463h97z" />
    </font>
</defs>
</svg>
